<?xml version="1.0" encoding="utf-8"?>
<!-- Uploaded to: SVG Repo, www.svgrepo.com, Generator: SVG Repo Mixer Tools -->
<svg fill="#000000" width="800px" height="800px" viewBox="0 0 32 32" version="1.1" xmlns="http://www.w3.org/2000/svg">
<title>codepen</title>
<path d="M8.333 14.668v2.663l1.989-1.332zM15.204 12.735v-3.711l-6.235 4.156 2.785 1.863zM23.031 13.18l-6.235-4.156v3.711l3.449 2.309zM8.969 18.82l6.235 4.156v-3.711l-3.449-2.307zM16.796 19.265v3.713l6.235-4.156-2.785-1.863zM16 14.118l-2.814 1.882 2.814 1.884 2.814-1.884zM16 1.025c-8.271 0-14.975 6.705-14.975 14.975s6.705 14.975 14.975 14.975c8.271 0 14.975-6.705 14.975-14.975v0c0-0 0-0 0-0 0-8.271-6.705-14.975-14.975-14.975-0 0-0 0-0 0h0zM25.26 18.822c-0 0.037-0.003 0.073-0.008 0.108l0-0.004-0.006 0.035-0.014 0.066-0.012 0.039c-0.007 0.024-0.014 0.043-0.023 0.062l0.001-0.004-0.017 0.037-0.026 0.054-0.024 0.037c-0.030 0.047-0.063 0.088-0.1 0.125l-0 0-0.032 0.031-0.045 0.037-0.036 0.027-0.012 0.010-8.464 5.643c-0.124 0.084-0.277 0.134-0.442 0.134s-0.318-0.050-0.445-0.136l0.003 0.002-8.476-5.654c-0.030-0.021-0.057-0.042-0.082-0.065l0 0-0.032-0.031-0.040-0.042-0.026-0.035c-0.031-0.040-0.059-0.085-0.082-0.133l-0.002-0.004-0.017-0.039-0.021-0.059-0.012-0.037c-0.005-0.018-0.009-0.041-0.012-0.064l-0-0.003-0.007-0.035c-0.005-0.031-0.007-0.067-0.008-0.103v-5.642c0-0.037 0.003-0.072 0.008-0.108l-0 0.004 0.006-0.034 0.014-0.067 0.012-0.037c0.032-0.105 0.083-0.195 0.15-0.272l-0.001 0.001 0.039-0.042 0.032-0.031c0.024-0.022 0.051-0.044 0.079-0.063l0.002-0.002 0.012-0.010 8.463-5.642c0.124-0.084 0.277-0.134 0.442-0.134s0.318 0.050 0.445 0.136l-0.003-0.002 8.557 5.717 0.032 0.031c0.037 0.037 0.070 0.078 0.098 0.122l0.002 0.003 0.024 0.037 0.026 0.054 0.017 0.037c0.009 0.020 0.015 0.040 0.021 0.059l0.012 0.039c0.005 0.018 0.009 0.041 0.012 0.064l0 0.003 0.007 0.034c0.005 0.031 0.007 0.067 0.007 0.103v0zM23.667 17.332v-2.663l-1.989 1.332z"></path>
</svg>