<?xml version="1.0" encoding="utf-8"?>
<!-- Uploaded to: SVG Repo, www.svgrepo.com, Generator: SVG Repo Mixer Tools -->
<svg fill="#000000" width="800px" height="800px" viewBox="0 0 32 32" version="1.1" xmlns="http://www.w3.org/2000/svg">
<title>cpanel</title>
<path d="M24.569 14.317c-0.003-0-0.007-0-0.011-0-0.215 0-0.42 0.037-0.612 0.105l0.013-0.004c-0.587 0.208-1.033 0.685-1.193 1.279l-0.003 0.013-0.507 1.881c-0.032 0.107-0.051 0.229-0.051 0.356 0 0.099 0.011 0.195 0.033 0.287l-0.002-0.009c0.047 0.213 0.136 0.4 0.259 0.561l-0.003-0.003c0.125 0.163 0.283 0.294 0.463 0.386l0.008 0.004c0.176 0.091 0.383 0.144 0.604 0.144 0.007 0 0.013-0 0.020-0h3.126c0.002 0 0.005 0 0.007 0 0.155 0 0.297-0.053 0.409-0.142l-0.001 0.001c0.118-0.090 0.206-0.215 0.249-0.359l0.001-0.005 0.262-0.988h-3.434c-0.137-0.002-0.247-0.113-0.247-0.25 0-0.023 0.003-0.045 0.009-0.067l-0 0.002 0.373-1.408c0.027-0.082 0.076-0.151 0.14-0.202l0.001-0.001c0.060-0.050 0.138-0.080 0.223-0.080 0.001 0 0.001 0 0.002 0h1.539c0.105 0 0.19 0.086 0.19 0.191 0 0.018-0.002 0.035-0.007 0.051l0-0.001-0.032 0.125c-0.017 0.081-0.088 0.141-0.173 0.141-0.003 0-0.007-0-0.010-0l0 0h-1.012c-0.004-0-0.009-0-0.014-0-0.155 0-0.297 0.052-0.411 0.14l0.002-0.001c-0.117 0.090-0.201 0.216-0.238 0.362l-0.001 0.005-0.166 0.612h2.504c0.004 0 0.008 0 0.012 0 0.253 0 0.487-0.085 0.674-0.228l-0.003 0.002c0.195-0.147 0.337-0.356 0.398-0.596l0.002-0.007 0.15-0.562c0.029-0.106 0.046-0.229 0.046-0.355 0-0.101-0.011-0.2-0.032-0.296l0.002 0.009c-0.044-0.212-0.133-0.398-0.256-0.557l0.002 0.003c-0.126-0.161-0.282-0.293-0.461-0.387l-0.008-0.004c-0.176-0.094-0.384-0.149-0.606-0.149-0.006 0-0.011 0-0.017 0h-2.214zM17.33 14.317l-1.227 4.61c-0.008 0.025-0.013 0.054-0.013 0.084 0 0.071 0.026 0.137 0.069 0.187l-0-0c0.055 0.072 0.141 0.119 0.238 0.119 0.002 0 0.004-0 0.006-0h0.888c0.001 0 0.003 0 0.005 0 0.115 0 0.221-0.038 0.307-0.101l-0.001 0.001c0.088-0.063 0.151-0.154 0.178-0.259l0.001-0.003 0.805-3.012h0.931c0.003-0 0.006-0 0.010-0 0.141 0 0.275 0.035 0.392 0.096l-0.005-0.002c0.119 0.062 0.218 0.146 0.296 0.248l0.002 0.002c0.075 0.099 0.131 0.216 0.16 0.344l0.001 0.006c0.013 0.054 0.020 0.116 0.020 0.18 0 0.081-0.012 0.16-0.034 0.234l0.002-0.006-0.497 1.882c-0.008 0.026-0.013 0.056-0.013 0.086 0 0.168 0.136 0.304 0.304 0.304 0.003 0 0.006-0 0.009-0h0.891c0.001 0 0.002 0 0.004 0 0.114 0 0.218-0.038 0.303-0.101l-0.001 0.001c0.088-0.064 0.152-0.156 0.178-0.263l0.001-0.003 0.415-1.56c0.056-0.192 0.088-0.413 0.088-0.641 0-0.175-0.019-0.345-0.055-0.51l0.003 0.016c-0.080-0.378-0.237-0.71-0.455-0.993l0.004 0.006c-0.223-0.287-0.502-0.52-0.821-0.686l-0.014-0.007c-0.314-0.165-0.685-0.261-1.080-0.261-0.009 0-0.019 0-0.028 0h-2.264zM3.484 14.317c-0.002 0-0.004 0-0.007 0-0.283 0-0.555 0.049-0.807 0.139l0.017-0.005c-0.264 0.092-0.493 0.217-0.697 0.373l0.006-0.004c-0.419 0.323-0.727 0.772-0.871 1.289l-0.004 0.017-0.034 0.125c-0.052 0.188-0.081 0.403-0.081 0.626 0 0.562 0.189 1.080 0.508 1.493l-0.004-0.006c0.223 0.287 0.502 0.52 0.821 0.686l0.014 0.006c0.313 0.165 0.684 0.263 1.078 0.263 0.008 0 0.015-0 0.023-0h0.579l0.332-1.228c0.008-0.025 0.013-0.055 0.013-0.085 0-0.070-0.025-0.134-0.067-0.184l0 0c-0.055-0.073-0.142-0.12-0.239-0.12-0.003 0-0.006 0-0.008 0h-0.528c-0.002 0-0.004 0-0.006 0-0.143 0-0.278-0.034-0.397-0.095l0.005 0.002c-0.12-0.059-0.221-0.141-0.299-0.242l-0.001-0.002c-0.074-0.099-0.129-0.217-0.158-0.345l-0.001-0.006c-0.013-0.056-0.020-0.121-0.020-0.187 0-0.085 0.012-0.166 0.034-0.244l-0.002 0.006c0.056-0.192 0.169-0.354 0.318-0.47l0.002-0.002c0.141-0.109 0.32-0.175 0.514-0.175 0.004 0 0.007 0 0.011 0h0.87c0.003 0 0.005 0 0.008 0 0.157 0 0.301-0.054 0.415-0.144l-0.001 0.001c0.119-0.092 0.206-0.219 0.247-0.366l0.001-0.005 0.29-1.112zM11.478 14.304l-0.166 0.629c-0.015 0.053-0.023 0.115-0.023 0.178 0 0.052 0.006 0.103 0.016 0.151l-0.001-0.005c0.022 0.106 0.066 0.199 0.126 0.278l-0.001-0.002c0.062 0.080 0.139 0.144 0.227 0.191l0.004 0.002c0.089 0.047 0.194 0.075 0.306 0.075 0.003 0 0.006-0 0.009-0h2.695c0.002-0 0.004-0 0.006-0 0.040 0 0.075 0.018 0.099 0.047l0 0c0.015 0.020 0.024 0.046 0.024 0.073 0 0.013-0.002 0.026-0.006 0.038l0-0.001-0.025 0.090-0.405 1.501-0.016 0.069c-0.011 0.054-0.041 0.1-0.083 0.131l-0.001 0c-0.042 0.031-0.095 0.050-0.152 0.050-0.002 0-0.005-0-0.007-0h-1.632c-0.001 0-0.003 0-0.005 0-0.059 0-0.111-0.028-0.145-0.071l-0-0c-0.026-0.030-0.042-0.069-0.042-0.111 0-0.018 0.003-0.036 0.008-0.052l-0 0.001c0.017-0.081 0.088-0.14 0.173-0.14 0.004 0 0.008 0 0.011 0l-0.001-0h1.010c0.002 0 0.005 0 0.008 0 0.154 0 0.296-0.053 0.409-0.141l-0.001 0.001c0.118-0.091 0.206-0.216 0.249-0.361l0.001-0.005 0.165-0.622h-2.262c-0.001 0-0.002 0-0.003 0-0.169 0-0.332 0.030-0.482 0.084l0.010-0.003c-0.154 0.055-0.288 0.13-0.407 0.222l0.003-0.002c-0.124 0.096-0.23 0.208-0.317 0.334l-0.003 0.005c-0.086 0.123-0.154 0.268-0.193 0.423l-0.002 0.009-0.035 0.125c-0.032 0.11-0.050 0.235-0.050 0.365 0 0.107 0.012 0.21 0.035 0.31l-0.002-0.009c0.049 0.222 0.141 0.416 0.268 0.584l-0.003-0.004c0.263 0.345 0.674 0.566 1.137 0.566 0.003 0 0.007 0 0.010-0h-0.001l2.696 0.008c0.002 0 0.005 0 0.007 0 0.519 0 0.955-0.352 1.085-0.829l0.002-0.008 0.656-2.437c0.028-0.104 0.044-0.224 0.044-0.347 0-0.105-0.012-0.206-0.034-0.304l0.002 0.009c-0.047-0.212-0.136-0.399-0.258-0.558l0.002 0.003c-0.127-0.161-0.284-0.292-0.463-0.386l-0.008-0.004c-0.177-0.095-0.386-0.15-0.609-0.15-0.005 0-0.010 0-0.014 0h-3.65zM29.787 12.683c-0.003-0-0.006-0-0.009-0-0.115 0-0.22 0.039-0.305 0.103l0.001-0.001c-0.087 0.066-0.149 0.16-0.174 0.268l-0.001 0.003-1.667 6.261c0.002 0 0.005 0 0.008 0 0.252 0 0.494-0.044 0.719-0.125l-0.015 0.005c0.237-0.084 0.442-0.196 0.625-0.336l-0.005 0.004c0.187-0.144 0.346-0.312 0.476-0.502l0.005-0.007c0.129-0.19 0.23-0.411 0.289-0.649l0.003-0.014 1.245-4.619c0.008-0.025 0.013-0.054 0.013-0.084 0-0.071-0.026-0.137-0.069-0.187l0 0c-0.057-0.073-0.144-0.119-0.243-0.119-0.003 0-0.005 0-0.008 0h0zM6.735 12.683c-0.004-0-0.008-0-0.012-0-0.156 0-0.3 0.053-0.414 0.142l0.001-0.001c-0.118 0.093-0.205 0.221-0.245 0.369l-0.001 0.005-1.636 6.118h1.152c0.002 0 0.005 0 0.007 0 0.155 0 0.297-0.053 0.409-0.142l-0.001 0.001c0.118-0.090 0.206-0.215 0.249-0.359l0.001-0.005 1.21-4.504h0.93c0.001 0 0.003 0 0.004 0 0.143 0 0.278 0.036 0.396 0.098l-0.005-0.002c0.12 0.061 0.22 0.145 0.299 0.247l0.002 0.002c0.075 0.099 0.131 0.217 0.16 0.345l0.001 0.006c0.013 0.054 0.020 0.116 0.020 0.18 0 0.081-0.012 0.16-0.034 0.234l0.001-0.006c-0.099 0.381-0.44 0.657-0.845 0.657h-0.481c-0.003-0-0.006-0-0.009-0-0.156 0-0.3 0.053-0.414 0.142l0.001-0.001c-0.118 0.090-0.206 0.215-0.249 0.359l-0.001 0.005-0.3 1.12h1.501c0.002 0 0.003 0 0.005 0 0.839 0 1.579-0.427 2.014-1.075l0.005-0.009c0.142-0.21 0.255-0.454 0.327-0.715l0.004-0.017 0.034-0.125c0.056-0.189 0.088-0.406 0.088-0.631 0-0.178-0.020-0.351-0.058-0.518l0.003 0.016c-0.163-0.736-0.637-1.337-1.275-1.668l-0.014-0.006c-0.313-0.165-0.684-0.263-1.078-0.263-0.008 0-0.015 0-0.023 0h-1.729z"></path>
</svg>