<?xml version="1.0" encoding="utf-8"?>
<!-- Uploaded to: SVG Repo, www.svgrepo.com, Generator: SVG Repo Mixer Tools -->
<svg width="800px" height="800px" viewBox="0 0 1024 1024" class="icon"  version="1.1" xmlns="http://www.w3.org/2000/svg"><path d="M863.963429 136.045714h-185.051429v-61.732571a61.732571 61.732571 0 0 0-61.805714-61.732572H370.322286a61.732571 61.732571 0 0 0-61.732572 61.732572v61.732571H123.465143C55.296 136.045714 0 191.268571 0 259.437714v555.446857c0 68.169143 55.296 123.392 123.465143 123.392h740.498286c68.169143 0 123.465143-55.222857 123.465142-123.392V259.437714a123.392 123.392 0 0 0-123.465142-123.392z m-493.714286-30.866285c0-17.042286 13.824-30.866286 30.939428-30.866286h185.051429c17.042286 0 30.866286 13.897143 30.866286 30.866286v30.866285H370.322286v-30.866285z m555.446857 709.705142a61.805714 61.805714 0 0 1-61.805714 61.659429H123.465143a61.659429 61.659429 0 0 1-61.732572-61.659429V475.428571h312.905143c-2.779429 10.020571-4.169143 20.406857-4.388571 30.793143a123.465143 123.465143 0 0 0 246.857143 0 122.88 122.88 0 0 0-4.388572-30.866285h313.051429v339.382857h-0.073143z m-493.714286-308.589714c0-11.264 3.291429-21.723429 8.557715-30.866286h106.349714a60.928 60.928 0 0 1 8.557714 30.866286 61.732571 61.732571 0 0 1-123.465143 0z m493.714286-92.525714H61.659429v-154.331429c0-34.084571 27.574857-61.659429 61.732571-61.659428h740.498286c34.084571 0 61.805714 27.574857 61.805714 61.659428v154.331429z" fill="#000000" /></svg>