<?xml version="1.0" encoding="utf-8"?>
<!-- Uploaded to: SVG Repo, www.svgrepo.com, Generator: SVG Repo Mixer Tools -->
<svg fill="#000000" width="800px" height="800px" viewBox="0 0 32 32" version="1.1" xmlns="http://www.w3.org/2000/svg">
<title>facebookmessenger</title>
<path d="M11.409 12.816l-4.393 6.988c-0.071 0.108-0.112 0.24-0.112 0.381 0 0.388 0.315 0.703 0.703 0.703 0.164 0 0.314-0.056 0.434-0.15l4.728-3.581c0.148-0.117 0.337-0.187 0.543-0.187s0.395 0.070 0.545 0.189l-0.002-0.001 3.494 2.621c0.37 0.278 0.838 0.445 1.344 0.445 0.795 0 1.495-0.412 1.895-1.035l0.005-0.009 4.393-6.988c0.069-0.107 0.11-0.238 0.11-0.378 0-0.389-0.315-0.704-0.704-0.704-0.162 0-0.312 0.055-0.431 0.147l0.002-0.001-4.73 3.582c-0.146 0.117-0.333 0.187-0.537 0.187s-0.391-0.071-0.538-0.189l0.002 0.001-3.494-2.621c-0.372-0.283-0.843-0.454-1.354-0.454-0.798 0-1.499 0.416-1.898 1.044l-0.005 0.009zM1.026 15.55c-0-0.025-0-0.055-0-0.084 0-7.981 6.47-14.45 14.45-14.45 0.185 0 0.369 0.003 0.552 0.010l-0.026-0.001c0.156-0.006 0.34-0.010 0.524-0.010 7.98 0 14.45 6.469 14.45 14.45 0 0.030-0 0.059-0 0.089l0-0.005c0 0.025 0 0.054 0 0.083 0 7.98-6.469 14.45-14.45 14.45-0.185 0-0.369-0.003-0.552-0.010l0.026 0.001c-0.011 0-0.024 0-0.037 0-1.527 0-3.006-0.21-4.408-0.601l0.115 0.027c-0.093-0.026-0.201-0.041-0.311-0.041-0.176 0-0.344 0.038-0.495 0.107l0.008-0.003-2.983 1.31c-0.143 0.065-0.311 0.104-0.487 0.104-0.65 0-1.179-0.517-1.197-1.163l-0-0.002-0.087-2.671c-0.015-0.338-0.165-0.637-0.398-0.848l-0.001-0.001c-2.886-2.611-4.691-6.371-4.691-10.551 0-0.067 0-0.133 0.001-0.2l-0 0.010z"></path>
</svg>