<?xml version="1.0" encoding="utf-8"?>
<!-- Uploaded to: SVG Repo, www.svgrepo.com, Generator: SVG Repo Mixer Tools -->
<svg fill="#000000" width="800px" height="800px" viewBox="0 0 32 32" version="1.1" xmlns="http://www.w3.org/2000/svg">
<title>googlechat</title>
<path d="M3.909 7.449c-0 0-0.001 0-0.001 0-1.252 0-2.266 1.015-2.266 2.266 0 0 0 0.001 0 0.001v-0 20.123c0 0 0 0.001 0 0.001 0 0.626 0.507 1.133 1.133 1.133 0.313 0 0.597-0.127 0.802-0.333l4.679-4.677h13.32c0 0 0 0 0 0 1.252 0 2.266-1.015 2.266-2.266 0 0 0-0 0-0v0-13.981c0-0 0-0.001 0-0.001 0-1.252-1.015-2.266-2.266-2.266 0 0-0 0-0 0h-17.666zM10.425 1.025c-1.252 0-2.266 1.015-2.266 2.266v0 3.534h13.949c1.303 0.008 2.356 1.066 2.356 2.37 0 0.005 0 0.010-0 0.015v-0.001 10.238h3.627c0 0 0.001 0 0.001 0 1.252 0 2.266-1.015 2.266-2.266 0-0 0-0.001 0-0.001v0-13.888c0-1.252-1.015-2.266-2.266-2.266-0 0-0.001 0-0.001 0h0z"></path>
</svg>