<?xml version="1.0" encoding="utf-8"?>
<!-- Uploaded to: SVG Repo, www.svgrepo.com, Generator: SVG Repo Mixer Tools -->
<svg fill="#000000" width="800px" height="800px" viewBox="0 0 32 32" version="1.1" xmlns="http://www.w3.org/2000/svg">
<title>googlestreetview</title>
<path d="M13.946 21.355c0.002-0.66 0.223-1.268 0.594-1.755l-0.005 0.007-11.388 11.389h10.801v-9.64zM10.844 10.020c0-0.001 0-0.003 0-0.005 0-0.284-0.035-0.56-0.101-0.823l0.005 0.023h-3.674v1.427h2.112c-0.057 0.538-0.351 0.997-0.775 1.277l-0.007 0.004c-0.355 0.234-0.791 0.374-1.26 0.374-0.026 0-0.051-0-0.076-0.001l0.004 0c-1.287-0.025-2.321-1.075-2.321-2.366s1.034-2.34 2.319-2.366l0.002-0c0.010-0 0.022-0 0.034-0 0.562 0 1.074 0.218 1.454 0.574l-0.001-0.001 1.141-1.111c-0.673-0.634-1.583-1.024-2.583-1.024-0.015 0-0.030 0-0.046 0l0.002-0c-2.17 0-3.928 1.759-3.928 3.928s1.759 3.928 3.928 3.928v0c0.031 0.001 0.068 0.001 0.105 0.001 0.961 0 1.837-0.36 2.501-0.953l-0.004 0.003c0.722-0.7 1.171-1.678 1.171-2.762 0-0.045-0.001-0.090-0.002-0.135l0 0.007zM17.4 12.457l-16.394 16.395v-22.85c0.004-1.181 0.96-2.137 2.14-2.142h14.239c-0.812 1.204-1.296 2.688-1.296 4.285 0 1.607 0.49 3.1 1.329 4.337l-0.017-0.027zM28.14 28.854v-11.454c-1.279-0.434-2.753-0.685-4.285-0.687h-0.001c-3.175 0.011-6.099 1.073-8.446 2.856l0.035-0.025c-0.533 0.428-0.871 1.079-0.871 1.809 0 0.001 0 0.002 0 0.003v-0 9.641h11.425c1.181-0.004 2.138-0.961 2.142-2.142v-0zM19.543 14.599l-4.376 4.376c2.398-1.789 5.415-2.871 8.685-2.887h0.004c1.531 0.004 3.004 0.246 4.386 0.691l-0.102-0.028v-2.136c-1.204 0.812-2.688 1.296-4.285 1.296-1.607 0-3.1-0.49-4.337-1.329l0.027 0.017zM16.714 8.145c0 0 0 0 0 0 0-3.944 3.197-7.142 7.142-7.142s7.142 3.197 7.142 7.142c0 3.944-3.197 7.142-7.142 7.142-1.315 0-2.547-0.355-3.605-0.975l0.034 0.018c-2.15-1.258-3.571-3.555-3.571-6.185v0z"></path>
</svg>