<?xml version="1.0" encoding="utf-8"?>
<!-- Uploaded to: SVG Repo, www.svgrepo.com, Generator: SVG Repo Mixer Tools -->
<svg fill="#000000" width="800px" height="800px" viewBox="0 0 32 32" version="1.1" xmlns="http://www.w3.org/2000/svg">
<title>googlepay</title>
<path d="M22.413 16.415c0.041-0.003 0.088-0.004 0.136-0.004 0.491 0 0.945 0.156 1.315 0.421l-0.007-0.005c-0 0.484-0.212 0.918-0.548 1.215l-0.002 0.002c-0.319 0.319-0.759 0.517-1.246 0.517h-0c-0.008 0-0.017 0-0.026 0-0.317 0-0.609-0.109-0.839-0.292l0.003 0.002c-0.223-0.163-0.366-0.423-0.366-0.717 0-0.002 0-0.004 0-0.006v0c0.005-0.339 0.183-0.636 0.45-0.806l0.004-0.002c0.296-0.204 0.662-0.326 1.056-0.326 0.024 0 0.048 0 0.072 0.001l-0.003-0zM25.095 13.456l2.432 5.526-1.372 2.974h1.143l3.698-8.501h-1.206l-1.709 4.237h-0.025l-1.757-4.236zM22.267 13.263c-0.047-0.003-0.102-0.005-0.157-0.005-0.918 0-1.729 0.455-2.22 1.152l-0.006 0.009 0.976 0.614c0.306-0.474 0.831-0.783 1.429-0.783 0.014 0 0.028 0 0.041 0.001l-0.002-0c0.006-0 0.012-0 0.019-0 0.405 0 0.774 0.153 1.052 0.405l-0.001-0.001c0.28 0.233 0.457 0.582 0.457 0.972 0 0.003 0 0.007-0 0.010v-0.001 0.252c-0.435-0.229-0.95-0.364-1.497-0.364-0.045 0-0.089 0.001-0.134 0.003l0.006-0c-0.044-0.002-0.097-0.004-0.149-0.004-0.638 0-1.228 0.205-1.708 0.552l0.009-0.006c-0.423 0.323-0.693 0.827-0.693 1.394 0 0.022 0 0.043 0.001 0.065l-0-0.003c-0 0.010-0 0.022-0 0.034 0 0.565 0.254 1.070 0.654 1.409l0.003 0.002c0.415 0.36 0.96 0.58 1.557 0.58 0.026 0 0.052-0 0.078-0.001l-0.004 0c0.008 0 0.017 0 0.026 0 0.76 0 1.427-0.401 1.8-1.003l0.005-0.009h0.047v0.818h1.060v-3.635c0.002-0.036 0.003-0.078 0.003-0.121 0-0.659-0.273-1.254-0.712-1.678l-0.001-0.001c-0.477-0.41-1.103-0.66-1.787-0.66-0.053 0-0.106 0.002-0.159 0.005l0.007-0zM17.113 11.795c0.406 0.007 0.77 0.181 1.028 0.455l0.001 0.001c0.267 0.271 0.432 0.643 0.432 1.053 0 0.828-0.672 1.5-1.5 1.5-0.010 0-0.020-0-0.030-0l0.002 0h-1.858v-3.009h1.858q0.034-0.001 0.067 0zM14.081 10.733v8.623h1.107v-3.493h1.831c0.020 0.001 0.044 0.001 0.068 0.001 0.712 0 1.358-0.28 1.835-0.737l-0.001 0.001c0.489-0.457 0.794-1.105 0.794-1.824s-0.305-1.368-0.792-1.823l-0.001-0.001c-0.477-0.463-1.129-0.748-1.847-0.748-0.019 0-0.038 0-0.058 0.001l0.003-0zM5.957 10.045c-2.735 0-4.953 2.218-4.953 4.953s2.218 4.953 4.953 4.953v0c0.039 0.001 0.085 0.002 0.132 0.002 1.212 0 2.317-0.454 3.156-1.202l-0.005 0.004c0.911-0.882 1.477-2.117 1.477-3.483 0-0.056-0.001-0.113-0.003-0.169l0 0.008c-0-0.356-0.032-0.705-0.093-1.043l0.005 0.036h-4.669v1.907h2.674c-0.116 0.632-0.477 1.163-0.979 1.501l-0.008 0.005c-0.459 0.301-1.022 0.48-1.627 0.48-1.655 0-2.996-1.341-2.996-2.996 0-1.633 1.307-2.961 2.932-2.995l0.003-0c0.013-0 0.029-0 0.044-0 0.72 0 1.374 0.283 1.857 0.744l-0.001-0.001 1.415-1.412c-0.849-0.8-1.997-1.291-3.259-1.291-0.019 0-0.039 0-0.058 0l0.003-0z"></path>
</svg>