<?xml version="1.0" encoding="utf-8"?>
<!-- Uploaded to: SVG Repo, www.svgrepo.com, Generator: SVG Repo Mixer Tools -->
<svg fill="#000000" width="800px" height="800px" viewBox="0 0 32 32" version="1.1" xmlns="http://www.w3.org/2000/svg">
<title>googlemeet</title>
<path d="M10.377 8.842h8.519c0.001 0 0.002 0 0.003 0 0.941 0 1.703 0.763 1.703 1.703 0 0.001 0 0.002 0 0.003v-0 2.129l3.409-3.408v9.374l-3.407-3.407v2.128c0 0.001 0 0.002 0 0.004 0 0.94-0.762 1.702-1.702 1.702-0.001 0-0.003 0-0.004 0h-8.521c-0.942-0-1.705-0.764-1.706-1.706v-6.817c0-0.001 0-0.002 0-0.004 0-0.94 0.762-1.702 1.702-1.702 0.001 0 0.003 0 0.004 0h-0zM16 1.004c-7.152 0.002-12.949 5.799-12.951 12.951v0c0.332 6.844 5.962 12.268 12.859 12.268 0.033 0 0.065-0 0.098-0l-0.005 0v4.772c7.866-3.991 12.951-10.413 12.951-17.040-0.002-7.152-5.799-12.95-12.951-12.951h-0z"></path>
</svg>