<?xml version="1.0" encoding="utf-8"?>
<!-- Uploaded to: SVG Repo, www.svgrepo.com, Generator: SVG Repo Mixer Tools -->
<svg fill="#000000" width="800px" height="800px" viewBox="0 0 32 32" version="1.1" xmlns="http://www.w3.org/2000/svg">
<title>googletranslate</title>
<path d="M22.266 19.895c-0.368 0.38-0.752 0.737-1.155 1.072l-0.024 0.019-0.010 0.005-1.824-5.683h5.953c-0.464 1.402-1.169 2.612-2.073 3.641l0.010-0.012c-1.47-1.739-1.475-2.304-1.475-2.304h-1.527s0.062 0.847 2.124 3.262zM30.368 29.031c-0.010 0.742-0.614 1.34-1.358 1.34-0.005 0-0.009-0-0.014-0h-11.090l4.56-5.036h0.006l-0.925-2.877 0.008-0.006s0.71-0.61 1.596-1.55c0.89 0.963 2.037 2.123 3.521 3.505l0.963-0.965c-1.59-1.442-2.754-2.587-3.611-3.505 1.192-1.262 2.081-2.823 2.544-4.558l0.017-0.074 2.544 0.002v-1.175h-5.663v-1.899h-1.838v1.899h-2.754l-2.089-6.511 0.007 0.027h12.205c0.004-0 0.010-0 0.015-0 0.743 0 1.347 0.598 1.356 1.339v0.001zM9.428 17.872c-0.003 0-0.006 0-0.010 0-2.588 0-4.686-2.098-4.686-4.686s2.098-4.686 4.686-4.686c0.003 0 0.007 0 0.010 0h-0.001c0.013-0 0.028-0 0.043-0 1.198 0 2.287 0.464 3.098 1.222l-0.003-0.002-1.237 1.19c-0.487-0.452-1.143-0.73-1.863-0.73-0.014 0-0.028 0-0.041 0l0.002-0c-1.638 0.032-2.954 1.368-2.954 3.010s1.315 2.978 2.95 3.010l0.003 0c0.057 0.004 0.123 0.007 0.19 0.007 1.311 0 2.393-0.984 2.546-2.254l0.001-0.012-2.734-0.003v-1.604h4.386c0.071 0.287 0.112 0.616 0.112 0.954v0.001c0.005 0.079 0.008 0.172 0.008 0.265 0 2.388-1.936 4.324-4.324 4.324-0.065 0-0.13-0.001-0.195-0.004l0.009 0zM28.997 7.025h-12.405l-1.933-6.021h-11.657c-1.102 0.004-1.994 0.896-1.996 1.998v20.338c0.004 1.101 0.895 1.992 1.995 1.996h12.497l1.841 5.66h11.657c0.003 0 0.006 0 0.010 0 1.089 0 1.974-0.877 1.986-1.963v-20.043c-0.013-1.088-0.897-1.964-1.987-1.964-0.003 0-0.006 0-0.009 0h0z"></path>
</svg>