<?xml version="1.0" encoding="iso-8859-1"?>
<!-- Uploaded to: SVG Repo, www.svgrepo.com, Generator: SVG Repo Mixer Tools -->
<!DOCTYPE svg PUBLIC "-//W3C//DTD SVG 1.1//EN" "http://www.w3.org/Graphics/SVG/1.1/DTD/svg11.dtd">
<svg fill="#000000" version="1.1" id="Capa_1" xmlns="http://www.w3.org/2000/svg" xmlns:xlink="http://www.w3.org/1999/xlink" 
	 width="800px" height="800px" viewBox="0 0 44.332 44.332"
	 xml:space="preserve">
<g>
	<g>
		<path d="M27.376,11.801H17.083c-3.71,0-6.796,2.866-6.796,6.563v23.271c0,1.412,1.226,2.697,2.642,2.697h18.602
			c1.416,0,2.515-1.285,2.515-2.697v-23.27C34.044,14.667,31.086,11.801,27.376,11.801z M12.722,20.847
			c-0.546,0-0.988-0.443-0.988-0.989c0-5.082,3.583-6.54,5.477-6.6c0.57-0.033,1.002,0.411,1.02,0.956
			c0.018,0.544-0.407,1-0.951,1.021c-0.371,0.017-3.569,0.295-3.569,4.624C13.709,20.404,13.268,20.847,12.722,20.847z
			 M31.134,37.41c0,1.172-0.949,2.123-2.123,2.123H15.319c-1.172,0-2.123-0.951-2.123-2.123V24.859c0-1.172,0.951-2.123,2.123-2.123
			h13.692c1.172,0,2.123,0.951,2.123,2.123V37.41z"/>
		<path d="M15.501,8.851H28.83c1.783,0,3.229-1.446,3.229-3.229V3.229C32.058,1.445,30.613,0,28.83,0H15.501
			c-1.784,0-3.229,1.446-3.229,3.229v2.393C12.272,7.405,13.718,8.851,15.501,8.851z"/>
		<path d="M27.972,32.682c-0.15-0.346-1.957,0.104-3.476,0.699c0.062-0.099,0.125-0.203,0.188-0.312
			c1.209-2.041,2.422-5.008,1.924-5.303c-0.426-0.252-1.967,1.534-3.16,3.334c-0.047-2.858-0.604-6.425-1.283-6.425
			c-0.68,0-1.236,3.566-1.282,6.425c-1.193-1.801-2.734-3.586-3.16-3.334c-0.498,0.295,0.714,3.262,1.923,5.303
			c0.064,0.108,0.127,0.213,0.189,0.312c-1.518-0.595-3.325-1.045-3.477-0.699c-0.17,0.387,1.818,1.635,3.411,2.332
			c0.148,0.065,0.288,0.123,0.419,0.174c-0.821,0.291-1.621,0.691-1.567,0.883c0.067,0.236,1.418,0.062,2.39-0.209
			c0.314-0.09,0.547-0.178,0.723-0.264v1.592c0,0.238,0.194,0.432,0.433,0.432c0.238,0,0.434-0.193,0.434-0.432v-1.592
			c0.176,0.086,0.408,0.174,0.723,0.264c0.971,0.272,2.322,0.447,2.388,0.209c0.054-0.191-0.746-0.592-1.567-0.883
			c0.131-0.051,0.271-0.108,0.42-0.174C26.154,34.316,28.142,33.068,27.972,32.682z"/>
	</g>
</g>
</svg>