<?xml version="1.0" encoding="iso-8859-1"?>
<!-- Uploaded to: SVG Repo, www.svgrepo.com, Generator: SVG Repo Mixer Tools -->
<svg height="800px" width="800px" version="1.1" id="Layer_1" xmlns="http://www.w3.org/2000/svg" xmlns:xlink="http://www.w3.org/1999/xlink" 
	 viewBox="0 0 496.159 496.159" xml:space="preserve">
<path style="fill:#5F8E0E;" d="M248.083,0.003C111.071,0.003,0,111.063,0,248.085c0,137.001,111.07,248.07,248.083,248.07
	c137.006,0,248.076-111.069,248.076-248.07C496.159,111.062,385.089,0.003,248.083,0.003z"/>
<g>
	<path style="fill:#E2F0F2;" d="M261.546,293.134c-42.972,0-77.807,34.833-77.807,77.807c0,42.969,34.835,77.803,77.807,77.803
		c42.97,0,77.805-34.834,77.805-77.803C339.351,327.967,304.516,293.134,261.546,293.134z"/>
	<path style="fill:#E2F0F2;" d="M210.295,78.696c-10.993-11.604-29.311-12.099-40.913-1.106
		c-11.604,10.993-12.099,29.31-1.106,40.914c31.524,33.275,51.733,75.056,60.065,124.181c6.337,37.359,3.076,65.264,2.981,66.046
		c-2.04,15.818,9.106,30.311,24.928,32.392c1.282,0.169,2.554,0.251,3.812,0.251c14.305,0,26.741-10.603,28.658-25.168
		C289.45,310.659,305.502,179.192,210.295,78.696z"/>
	
		<ellipse transform="matrix(-0.7521 -0.6591 0.6591 -0.7521 254.2706 273.9338)" style="fill:#E2F0F2;" cx="178.658" cy="89.142" rx="22.249" ry="34.838"/>
</g>
<path style="fill:#D3E1E2;" d="M320.35,335.424H202.74c-6.602,10.604-10.426,23.118-10.426,36.529
	c0,38.233,30.996,69.228,69.232,69.228c38.234,0,69.23-30.995,69.23-69.228C330.776,358.542,326.952,346.029,320.35,335.424z"/>
<path style="fill:#9FA3A3;" d="M362.113,242.424c-3.146-2.217-7.493-1.463-9.708,1.681l-64.358,91.319h17.046l58.701-83.292
	C366.011,248.988,365.258,244.641,362.113,242.424z"/>
<path style="fill:#888989;" d="M365.166,235.948c-6.064-4.274-13.19-4.524-13.19-4.524l-18.341,39.092l10.719,6.968l29.575-30.588
	C373.928,246.896,371.227,240.22,365.166,235.948z"/>
<path style="fill:#9FA3A3;" d="M360.074,242.111c-6.064-4.274-8.099-10.688-8.099-10.688l-19.771,41.303l11.791,6.9l29.932-32.731
	C373.928,246.896,366.136,246.384,360.074,242.111z"/>
<path style="fill:#8D9696;" d="M286.129,335.477l-48.456,68.097c-2.829,4.014-1.868,9.56,2.146,12.388
	c1.557,1.098,3.343,1.624,5.114,1.624c2.792,0,5.543-1.313,7.273-3.769l55.674-78.34L286.129,335.477L286.129,335.477z"/>
<path style="fill:#6B9913;" d="M303.976,386.67c-0.262-0.062-0.24-0.407-0.324-0.647c-1.172-0.021-2.286,0.017-3.13,0.324
	c-0.282-0.114-0.353-0.439-0.323-0.864c-1.04,0.04-1.751,0.407-2.698,0.54c-0.167-0.156-0.227-0.421-0.216-0.755
	c-1.135-0.02-1.767,0.463-2.482,0.863c-0.335-0.024-0.183-0.538-0.216-0.863c-1.176,0.011-1.789,0.586-2.482,1.079
	c-0.254-0.213-0.149-0.786-0.324-1.079c-1.024,0.198-1.528,0.917-2.266,1.402c-0.339-0.057-0.389-0.402-0.432-0.755
	c-0.9,0.25-1.422,0.879-2.05,1.403c-0.502,0.07-0.377-0.487-0.648-0.648c-0.857,0.259-1.072,1.158-1.942,1.403
	c-0.303,0.015-0.311-0.265-0.323-0.54c-0.985,0.455-1.711,1.167-2.482,1.835c-0.338,0.05-0.305-0.271-0.432-0.432
	c-0.786,0.472-1.458,1.06-2.05,1.727c-0.213-0.074-0.288-0.288-0.324-0.54c-0.894,0.51-1.485,1.321-2.375,1.834
	c-0.206-0.045-0.464-0.039-0.431-0.324c-2.179,2.137-5.49,3.144-8.741,4.209c0.288-0.996,1.277-1.618,2.05-2.267
	c2.618-2.196,5.519-4.639,9.497-5.612c0.08-0.333-0.297-0.208-0.216-0.54c0.817-0.98,2.514-1.083,3.886-1.51
	c0.251-0.284-0.309-0.409-0.325-0.756c0.97-0.541,2.339-0.684,3.346-1.187c0.083-0.42-0.399-0.561-0.108-0.864
	c1.341-0.35,2.617-0.764,3.669-1.403c-0.105-0.435-0.607-0.472-0.647-0.972c1.178-0.26,2.389-0.489,3.345-0.97
	c-0.116-0.496-0.588-0.635-0.647-1.188c1.294-0.217,2.382-0.641,3.346-1.188c-0.042-0.533-0.538-0.612-0.647-1.079
	c0.854-0.478,1.868-0.795,3.022-0.971c-0.094-0.418,0.181-0.467,0.324-0.647c-0.27-0.451-0.914-0.526-0.972-1.187
	c1.139-0.41,2.174-0.921,2.807-1.835c-0.01-0.566-0.73-0.421-0.756-0.972c1.032-0.586,2.078-1.159,2.806-2.05
	c-0.075-0.464-0.635-0.443-0.755-0.863c0.711-0.98,1.755-1.628,2.483-2.59c-0.099-0.441-0.604-0.475-0.756-0.863
	c0.729-1.286,2.775-2.282,2.267-4.101c0.935-1.512,1.929-2.964,2.698-4.641c0.29-0.357,0.696-0.598,0.539-1.402
	c-2.146,1.163-3.962,2.656-6.151,3.777c-0.41-0.022-0.41-0.454-0.863-0.433c-1.218,0.688-2.347,1.466-3.237,2.482
	c-0.535-0.004-0.66-0.418-0.864-0.755c-1.159,0.604-1.789,1.735-2.698,2.59c-0.325-0.214-0.644-0.436-0.755-0.863
	c-0.998,0.693-1.712,1.67-2.158,2.913c-0.577-0.034-0.509-0.713-0.971-0.862c-0.894,0.688-1.584,1.582-1.835,2.913
	c-0.713-0.041-0.747-0.764-1.295-0.971c-0.731,0.851-1.177,1.989-1.402,3.345c-0.599,0.022-0.645-0.506-1.08-0.646
	c-0.834,0.711-1.156,1.937-1.294,3.345c-0.644-0.04-0.715-0.652-1.295-0.755c-0.337,1.066-0.784,2.021-0.863,3.345
	c-0.684,0.109-0.543-0.607-1.08-0.646c-0.555,1.17-1.112,2.341-1.295,3.885c-0.468,0.037-0.602-0.262-0.971-0.324
	c-0.269,1.17-0.796,2.081-0.972,3.345c-0.547,0.159-0.667-0.465-0.971-0.215c-0.272,1.346-0.598,2.64-1.187,3.668
	c-0.371,0.047-0.605-0.042-0.864-0.107c-1.043,5.396-4.687,8.191-7.447,11.871c-0.54-0.464-0.075-1.214,0-1.835
	c0.589-4.813,1.262-9.706,3.454-12.843c-0.548,0.116-0.664-0.199-0.864-0.431c0.539-1.835,1.43-3.318,2.375-4.749
	c-0.264-0.167-0.702-0.161-1.08-0.216c0.445-1.677,1.637-2.607,1.943-4.425c-0.361-0.034-0.68-0.11-0.863-0.323
	c0.718-1.656,1.767-2.982,2.159-4.965c-0.527-0.012-1.138,0.058-1.511-0.108c0.732-1.389,1.771-2.473,2.158-4.208
	c-0.672,0.061-1.137-0.086-1.619-0.217c0.611-1.407,1.821-2.777,1.835-4.424c-0.69,0.043-1.137-0.158-1.727-0.215
	c0.734-1.32,1.83-2.842,1.727-4.641c-0.598,0.106-1.362,0.178-1.943,0c0.56-1.208,1.325-2.771,0.863-4.641
	c-0.504,0.107-0.956,0.267-1.619,0.216c0.447-1.298,1.166-3.29,0.648-4.856c-0.305,0.164-0.675,0.261-1.188,0.216
	c-0.109-0.07-0.11-0.249-0.323-0.216c0.224-1.569,0.158-2.968,0.108-4.641c-0.504,0-1.007,0-1.511,0
	c-0.228-2.604-0.19-3.827-0.864-5.72c-0.429,0.094-0.542,0.094-0.971,0c-0.338-3.295-1.237-6.029-2.266-8.633
	c-0.175-0.031-0.187,0.102-0.324,0.108c-0.583,3.194-1.151,6.403-2.159,9.173c-0.34,0.146-0.424-0.04-0.971,0.108
	c-0.547,1.575-0.835,3.41-0.755,5.612c-0.527-0.013-1.137,0.058-1.511-0.108c-0.286,1.528-0.181,3.188,0,4.749
	c-0.383,0.405-1.119,0.096-1.619,0c-0.293,1.646,0.235,3.248,0.647,4.533c-0.376,0.316-0.981,0.18-1.511,0.107
	c-0.45,1.823,0.316,3.349,0.863,4.533c-0.599,0.333-1.271,0.12-2.051,0.108c0.221,1.939,0.823,3.128,1.835,4.425
	c-0.235,0.52-1.271,0.239-1.835,0.432c0.415,1.708,1.144,3.101,2.051,4.317c-0.413,0.27-1.061,0.305-1.727,0.324
	c0.429,1.622,1.271,2.83,2.159,3.993c-0.154,0.458-0.928,0.295-1.512,0.323c0.458,1.918,1.458,3.292,2.159,4.965
	c-0.143,0.289-0.684,0.179-0.971,0.323c0.397,1.653,1.634,2.467,1.834,4.317c-0.016,0.309-0.451,0.197-0.755,0.215
	c0.647,1.691,1.764,2.913,2.267,4.749c-0.119,0.348-0.344,0.592-0.864,0.539c2.6,3.438,3.011,8.479,3.777,13.814
	c-0.125-0.018-0.191,0.023-0.216,0.108c-1.56-1.291-2.772-3.092-4.1-4.857c-1.486-1.973-3.103-3.853-3.454-6.907
	c-1.81,0.355-1.503-2.298-2.05-3.561c-0.292-0.261-0.384,0.333-0.864,0.215c-0.4-1.075-0.733-2.217-1.079-3.345
	c-0.383,0.012-0.393,0.399-0.863,0.324c-0.384-1.379-0.78-2.746-1.403-3.885c-0.456,0.083-0.419,0.659-0.971,0.646
	c-0.297-1.142-0.562-2.316-0.972-3.345c-0.507,0.14-0.707,0.588-1.187,0.755c-0.313-1.234-0.539-2.555-1.295-3.345
	c-0.504,0.072-0.585,0.565-1.079,0.646c-0.438-1.18-0.7-2.538-1.511-3.345c-0.508,0.212-0.601,0.839-1.188,0.971
	c-0.514-1.177-0.913-2.468-2.158-2.913c-0.059,0.445-0.355,0.652-0.647,0.862c-0.569-1.121-1.254-2.127-2.158-2.913
	c-0.336,0.204-0.397,0.682-0.756,0.863c-1.036-0.728-1.602-1.923-2.698-2.59c-0.347,0.192-0.369,0.71-0.863,0.755
	c-1.03-0.913-2.073-1.813-3.345-2.482c-0.395,0.002-0.485,0.308-0.756,0.433c-2.304-1.078-4.094-2.669-6.367-3.777
	c0.841,2.181,2.051,3.993,3.237,5.827c-0.301,2.119,1.472,2.95,2.375,4.209c-0.097,0.443-0.529,0.551-0.755,0.863
	c0.644,1.046,1.672,1.709,2.482,2.591c-0.021,0.554-0.687,0.465-0.755,0.971c0.728,0.891,1.774,1.464,2.806,2.05
	c0.045,0.622-0.764,0.388-0.755,0.972c0.675,0.835,1.506,1.516,2.806,1.727c-0.021,0.698-0.562,0.877-0.971,1.187
	c0.741,1.118,2.086,0.98,3.13,1.727c0.132,0.496-0.473,0.815-0.325,0.971c0.759,0.715,1.831,1.118,3.238,1.187
	c0.009,0.657-0.53,0.764-0.647,1.295c1.008,0.395,1.972,0.833,3.346,0.863c0.021,0.597-0.496,0.656-0.648,1.08
	c1.093,0.561,2.15,1.159,3.669,1.295c0.243,0.416-0.127,0.499-0.108,0.972c1.039,0.436,2.206,0.744,3.345,1.078
	c0.067,0.456-0.587,0.547-0.324,0.864c1.384,0.379,2.925,0.6,3.886,1.403c0.115,0.403-0.268,0.307-0.215,0.647
	c5.139,1.371,8.379,4.643,11.763,7.771c-2.822-0.487-5.784-1.769-7.987-3.237c-0.215-0.36-0.594-0.558-0.863-0.864
	c-0.144,0.108-0.212,0.292-0.432,0.324c-0.906-0.461-1.602-1.131-2.266-1.834c-0.369-0.081-0.138,0.438-0.54,0.324
	c-0.772-0.379-1.248-1.054-1.943-1.511c-0.277,0.01-0.154,0.421-0.432,0.432c-0.868-0.571-1.558-1.32-2.482-1.835
	c-0.219,0.069-0.071,0.504-0.323,0.54c-0.956-0.161-1.169-1.062-1.944-1.403c-0.438-0.006-0.194,0.669-0.647,0.648
	c-0.755-0.431-1.193-1.18-2.158-1.403c0.003,0.362-0.148,0.571-0.324,0.755c-0.881-0.378-1.285-1.233-2.374-1.402
	c-0.17,0.225-0.075,0.716-0.216,0.971c-0.709-0.061-1.351-1.085-2.59-0.971c-0.013,0.311,0.059,0.706-0.108,0.863
	c-0.891-0.26-1.358-0.944-2.59-0.863c0.063,0.349-0.073,0.501-0.107,0.755c-1.027-0.088-1.722-0.508-2.806-0.54
	c0.062,0.422-0.093,0.627-0.216,0.864c-0.895-0.257-1.94-0.363-3.129-0.324c-0.156,0.168-0.227,0.421-0.325,0.647
	c-1.975,0.054-3.438-0.004-5.503,0c1.141,1.162,2.769,1.836,4.425,2.482c0.227,1.428,2.01,1.298,3.13,1.835
	c0.075,0.4-0.185,0.462-0.108,0.863c0.802,0.242,1.634,0.453,2.589,0.54c0.158,0.189-0.066,0.651-0.108,0.972
	c0.673,0.263,1.652,0.218,2.59,0.215c0.249,0.262-0.11,0.524-0.108,0.864c0.688,0.403,1.813,0.135,2.699,0.108
	c0.066,0.499-0.243,0.621-0.216,1.079c0.908,0.239,1.84-0.179,2.698-0.323c0.245,0.115,0.041,0.678,0.107,0.971
	c1.052,0.008,1.793-0.293,2.59-0.54c0.31,0.213-0.038,0.674,0,0.972c1.016-0.028,1.662-0.425,2.482-0.648
	c0.244,0.081,0.042,0.605,0.108,0.863c0.964,0.102,2.627-1.037,3.13,0c0.788-0.183,1.508-0.434,2.374-0.539
	c0.223,0.064,0.409,0.166,0.324,0.539c0.85-0.265,1.699-0.532,2.589-0.755c0.376,0.021,0.48,0.312,0.648,0.54
	c3.483-1.221,8.43-0.144,11.44,0.323c-1.562,1.178-3.324,2.051-5.612,2.051c0,0.144,0,0.288,0,0.432
	c-1.183-0.104-1.582,0.577-2.699,0.539c-0.14,0.616-1.144,0.368-1.619,0.648c-0.324-0.109-0.191,0.241-0.215,0.432
	c-0.325,0.144-0.827,0.109-1.296,0.107c-0.179,0.215,0.01,0.137,0,0.432c-0.412,0.347-1.751-0.04-1.295,0.864
	c-0.285,0.218-0.991,0.016-1.295,0.215c-0.236,0.226,0.054,0.308,0,0.647c-0.383,0.157-0.845,0.235-1.187,0.432
	c-0.202,0.206,0.063,0.196,0,0.54c-0.353,0.259-0.836,0.387-1.188,0.648c-0.079,0.294,0.214,0.217,0.216,0.431
	c-0.35,0.297-0.815,0.48-1.187,0.756c-0.201,0.191,0.047,0.315,0.107,0.54c-1.405,0.969-2.02,2.728-3.345,3.777
	c1.651-0.528,3.236-0.516,4.533-1.295c0.402-0.114,0.17,0.405,0.54,0.324c0.756-0.888,1.878-0.12,2.482-1.188
	c0.631,0.45,1.038-0.13,1.403-0.539c0.403-0.116,0.308,0.267,0.648,0.216c0.231-0.344,0.582-0.569,0.647-1.08
	c0.403-0.115,0.308,0.269,0.648,0.216c0.216-0.36,0.565-0.585,0.647-1.079c0.332-0.081,0.208,0.297,0.541,0.216
	c0.163-0.34,0.479-0.526,0.539-0.971c0.22-0.256,0.427,0.148,0.647-0.108c0.525-1.069,1.377-1.144,1.834-2.267
	c0.194-0.014,0.228,0.132,0.431,0.108c1.406-2.3,3.269-4.143,5.613-5.503c0.766,6.826,1.092,15.891,0.756,23.311
	c-0.093,2.04-0.349,4.231-1.62,5.503c-0.16,0.966-0.186,2.402,0.325,3.022c2.4-0.954,1.982-5.939,2.59-8.85
	c-0.053-4.417,0.022-10.718-0.324-16.295c-0.142-2.277-0.42-4.504-0.216-6.584c2.25,1.311,3.927,3.195,5.396,5.288
	c0.752-0.2,0.578,1.136,1.511,1.079c0.187,0.461,0.449,0.847,0.755,1.188c0.206,0.202,0.271,0.012,0.54,0
	c0.168,0.407,0.42,0.731,0.647,1.079c0.295,0.079,0.218-0.215,0.432-0.216c0.266,0.346,0.469,0.755,0.756,1.079
	c0.332,0.081,0.208-0.296,0.54-0.216c0.256,0.356,0.446,0.778,0.755,1.08c0.34,0.051,0.244-0.332,0.647-0.216
	c0.271,0.234,0.45,0.557,0.755,0.755c0.673-0.482,1.02,0.237,1.511,0.539c0.605-0.504,1.003,0.123,1.511,0.323
	c0.251,0.262,0.289-0.167,0.539-0.215c1.394,0.731,2.939,0.779,4.641,1.295c-1.349-0.989-1.842-2.833-3.345-3.669
	c-0.002-0.254,0.185-0.318,0.107-0.647c-0.399-0.211-0.693-0.529-1.187-0.647c-0.08-0.333,0.297-0.208,0.216-0.54
	c-0.391-0.186-0.671-0.48-1.188-0.54c-0.087-0.373,0.202-0.456,0-0.648c-0.402-0.101-0.599-0.407-1.187-0.323
	c-0.251-0.249,0.199-0.348,0.108-0.755c-0.395-0.074-0.786-0.15-1.295-0.109c-0.304-0.109,0.029-0.458,0-0.647
	c-0.632-0.126-1.623-0.089-1.403-0.755c-0.74,0.057-1.417,0.05-1.403-0.647c-0.566,0.063-0.817-0.191-1.403-0.108
	c-0.146-0.106-0.141-0.364-0.324-0.432c-1.135,0.057-1.487-0.671-2.698-0.539c-0.19-0.026-0.246-0.186-0.216-0.432
	c-1.826,0.064-3.933-0.979-5.396-1.943c2.987-0.67,7.91-1.608,11.332-0.431c0.324-0.072,0.304-0.488,0.647-0.54
	c0.97,0.182,1.809,0.494,2.698,0.755c-0.092-0.344,0.094-0.41,0.216-0.539c0.901,0.07,1.62,0.322,2.374,0.539
	c0.603-1.009,2.194,0.081,3.238,0c0-0.288,0-0.576,0-0.863c0.916,0.163,1.521,0.636,2.59,0.648
	c-0.005-0.355-0.182-0.538-0.108-0.972c0.897,0.183,1.586,0.572,2.698,0.54c0-0.323,0-0.648,0-0.971
	c0.957,0.077,1.818,0.612,2.806,0.323c0.034-0.429-0.249-0.542-0.216-0.971c0.688-0.251,2.043,0.279,2.698-0.216
	c-0.019-0.306-0.198-0.45-0.215-0.755c0.759-0.248,2.039,0.024,2.698-0.324c-0.113-0.247-0.069-0.651-0.216-0.863
	c0.837-0.278,1.894-0.337,2.698-0.648c0.087-0.374-0.161-0.414-0.107-0.755c0.853-0.764,2.878-0.359,3.021-1.834
	c1.609-0.766,3.381-1.368,4.533-2.59C307.123,386.666,306.099,386.742,303.976,386.67z"/>
<path style="fill:#D3E1E2;" d="M183.213,80.256c8.575,13.935,38.588,19.294,38.588,19.294
	C196.076,68.466,183.213,80.256,183.213,80.256z"/>
<ellipse transform="matrix(-0.7792 -0.6267 0.6267 -0.7792 362.6952 748.1686)" style="fill:#909191;" cx="313.117" cy="310.205" rx="17.708" ry="11.65"/>
<path style="fill:#9FA3A3;" d="M362.113,242.424c-3.146-2.217-7.493-1.463-9.708,1.681l-41.995,59.104c0,0-1.048,4.266,2.733,6.992
	c5.664,4.084,9.772-0.204,9.772-0.204l40.878-57.865C366.011,248.988,365.258,244.641,362.113,242.424z"/>
<path style="fill:#6B9913;" d="M272.715,192.668c-1.234,0.387-1.784,0.605-2.959,0.934c-0.154,0.012-0.202-0.182-0.29-0.299
	c-0.646,0.192-1.25,0.405-1.66,0.72c-0.175-0.013-0.27-0.179-0.327-0.417c-0.564,0.202-0.891,0.526-1.387,0.763
	c-0.119-0.057-0.198-0.191-0.25-0.376c-0.625,0.185-0.889,0.559-1.212,0.903c-0.188,0.045-0.193-0.264-0.268-0.437
	c-0.643,0.21-0.879,0.631-1.174,1.022c-0.177-0.073-0.218-0.405-0.365-0.536c-0.528,0.286-0.679,0.767-1,1.161
	c-0.196,0.026-0.283-0.153-0.368-0.339c-0.451,0.292-0.627,0.729-0.881,1.125c-0.264,0.125-0.291-0.202-0.468-0.243
	c-0.425,0.29-0.387,0.82-0.822,1.105c-0.164,0.061-0.217-0.092-0.271-0.24c-0.461,0.42-0.737,0.936-1.044,1.436
	c-0.176,0.086-0.214-0.096-0.311-0.162c-0.35,0.395-0.617,0.834-0.827,1.302c-0.129-0.005-0.208-0.108-0.27-0.24
	c-0.402,0.433-0.586,0.981-0.985,1.417c-0.121,0.011-0.262,0.06-0.292-0.103c-0.825,1.549-2.467,2.674-4.067,3.822
	c-0.014-0.597,0.42-1.109,0.732-1.598c1.057-1.658,2.225-3.5,4.238-4.722c-0.013-0.196-0.199-0.063-0.212-0.259
	c0.279-0.68,1.191-1.029,1.87-1.501c0.089-0.199-0.24-0.171-0.308-0.358c0.438-0.465,1.164-0.78,1.63-1.23
	c-0.027-0.245-0.316-0.238-0.209-0.455c0.675-0.424,1.304-0.873,1.77-1.404c-0.133-0.221-0.415-0.155-0.524-0.422
	c0.602-0.346,1.226-0.681,1.667-1.111c-0.149-0.252-0.433-0.247-0.56-0.54c0.671-0.343,1.195-0.763,1.629-1.23
	c-0.116-0.286-0.402-0.243-0.542-0.48c0.385-0.409,0.886-0.759,1.489-1.056c-0.124-0.213,0.019-0.287,0.065-0.412
	c-0.226-0.2-0.592-0.13-0.738-0.482c0.554-0.421,1.033-0.881,1.222-1.493c-0.104-0.309-0.474-0.104-0.584-0.402
	c0.465-0.5,0.94-0.995,1.185-1.61c-0.122-0.242-0.425-0.133-0.563-0.343c0.22-0.66,0.681-1.197,0.914-1.851
	c-0.13-0.225-0.414-0.156-0.564-0.342c0.178-0.832,1.127-1.733,0.534-2.642c0.251-0.991,0.545-1.959,0.677-3.012
	c0.098-0.247,0.278-0.449,0.053-0.863c-0.975,1.009-1.714,2.143-2.721,3.136c-0.228,0.06-0.302-0.178-0.548-0.087
	c-0.549,0.588-1.034,1.209-1.346,1.921c-0.294,0.09-0.435-0.115-0.604-0.265c-0.531,0.532-0.681,1.262-1.032,1.888
	c-0.215-0.061-0.428-0.128-0.563-0.343c-0.427,0.553-0.649,1.213-0.679,1.971c-0.323,0.081-0.403-0.303-0.682-0.305
	c-0.372,0.532-0.595,1.142-0.502,1.916c-0.398,0.101-0.542-0.29-0.878-0.31c-0.254,0.594-0.301,1.295-0.19,2.078
	c-0.324,0.115-0.441-0.166-0.704-0.168c-0.335,0.535-0.299,1.262-0.132,2.059c-0.36,0.089-0.505-0.234-0.841-0.19
	c0,0.643-0.08,1.244,0.105,1.984c-0.356,0.179-0.402-0.239-0.704-0.168c-0.102,0.739-0.204,1.476-0.038,2.355
	c-0.25,0.102-0.375-0.039-0.588-0.01c0.055,0.689-0.077,1.279,0.046,2.003c-0.273,0.183-0.447-0.14-0.57,0.05
	c0.083,0.785,0.129,1.551-0.016,2.217c-0.195,0.09-0.339,0.082-0.492,0.09c0.361,3.141-1.154,5.304-2.03,7.8
	c-0.377-0.161-0.251-0.653-0.317-1.006c-0.51-2.742-0.988-5.542-0.328-7.642c-0.281,0.159-0.399,0.006-0.549-0.087
	c-0.021-1.1,0.21-2.067,0.48-3.015c-0.173-0.046-0.413,0.033-0.629,0.068c-0.046-0.997,0.447-1.714,0.3-2.763
	c-0.204,0.043-0.393,0.057-0.529-0.028c0.107-1.034,0.453-1.941,0.325-3.097c-0.292,0.084-0.614,0.229-0.848,0.203
	c0.161-0.889,0.544-1.663,0.456-2.682c-0.358,0.149-0.638,0.149-0.925,0.162c0.092-0.877,0.518-1.839,0.241-2.745
	c-0.372,0.143-0.651,0.11-0.985,0.181c0.174-0.851,0.512-1.875,0.145-2.844c-0.31,0.162-0.716,0.333-1.065,0.336
	c0.098-0.76,0.247-1.749-0.33-2.694c-0.258,0.146-0.478,0.312-0.851,0.398c0.021-0.79,0.07-2.006-0.485-2.776
	c-0.139,0.143-0.325,0.259-0.615,0.324c-0.072-0.02-0.104-0.117-0.214-0.063c-0.149-0.9-0.427-1.655-0.744-2.564
	c-0.276,0.087-0.553,0.174-0.829,0.261c-0.574-1.388-0.766-2.066-1.463-2.987c-0.219,0.125-0.281,0.146-0.533,0.168
	c-0.755-1.749-1.722-3.093-2.737-4.343c-0.101,0.014-0.084,0.088-0.159,0.115c0.232,1.853,0.477,3.712,0.403,5.405
	c-0.162,0.138-0.239,0.051-0.514,0.227c-0.027,0.959,0.132,2.015,0.557,3.209c-0.292,0.084-0.614,0.229-0.848,0.202
	c0.107,0.887,0.452,1.78,0.822,2.605c-0.141,0.288-0.598,0.245-0.888,0.28c0.124,0.954,0.691,1.741,1.14,2.375
	c-0.152,0.238-0.508,0.268-0.81,0.32c0.068,1.077,0.752,1.782,1.258,2.337c-0.271,0.286-0.678,0.285-1.107,0.414
	c0.457,1.026,0.993,1.574,1.772,2.11c-0.039,0.327-0.656,0.351-0.932,0.554c0.523,0.866,1.164,1.502,1.872,2.013
	c-0.18,0.219-0.529,0.351-0.891,0.476c0.517,0.816,1.188,1.332,1.875,1.816c-0.005,0.278-0.458,0.323-0.773,0.44
	c0.583,0.972,1.369,1.553,2.043,2.35c-0.028,0.183-0.344,0.216-0.477,0.345c0.504,0.838,1.323,1.07,1.753,2.05
	c0.045,0.172-0.213,0.186-0.377,0.25c0.648,0.815,1.472,1.292,2.065,2.211c-0.005,0.212-0.086,0.386-0.38,0.446
	c2.021,1.436,3.119,4.13,4.462,6.923c-0.071,0.012-0.101,0.046-0.1,0.097c-1.079-0.438-2.056-1.216-3.089-1.954
	c-1.157-0.826-2.369-1.577-3.09-3.191c-0.932,0.508-1.222-1-1.741-1.598c-0.206-0.093-0.153,0.25-0.437,0.268
	c-0.405-0.52-0.786-1.089-1.17-1.648c-0.208,0.073-0.146,0.287-0.418,0.327c-0.449-0.69-0.902-1.371-1.442-1.889
	c-0.236,0.125-0.116,0.435-0.42,0.523c-0.361-0.575-0.709-1.173-1.112-1.667c-0.253,0.165-0.286,0.445-0.521,0.619
	c-0.385-0.623-0.738-1.308-1.289-1.61c-0.264,0.127-0.224,0.412-0.48,0.542c-0.445-0.571-0.823-1.271-1.408-1.573
	c-0.241,0.205-0.184,0.564-0.483,0.738c-0.485-0.557-0.928-1.196-1.688-1.225c0.045,0.255-0.083,0.419-0.207,0.586
	c-0.506-0.517-1.056-0.951-1.688-1.225c-0.149,0.17-0.1,0.443-0.265,0.604c-0.694-0.22-1.212-0.778-1.928-0.954
	c-0.157,0.166-0.079,0.453-0.343,0.563c-0.723-0.322-1.45-0.636-2.265-0.782c-0.216,0.069-0.213,0.253-0.339,0.368
	c-1.451-0.192-2.708-0.755-4.147-0.97c0.839,1.051,1.817,1.836,2.785,2.637c0.202,1.214,1.318,1.363,2.031,1.897
	c0.024,0.26-0.195,0.394-0.265,0.604c0.535,0.462,1.213,0.648,1.81,0.991c0.084,0.308-0.296,0.374-0.247,0.663
	c0.554,0.362,1.227,0.496,1.894,0.639c0.133,0.333-0.352,0.345-0.247,0.664c0.516,0.341,1.089,0.57,1.838,0.461
	c0.109,0.387-0.156,0.579-0.328,0.82c0.6,0.484,1.314,0.176,2.016,0.406c0.158,0.249-0.118,0.529-0.01,0.588
	c0.54,0.261,1.198,0.296,1.98,0.091c0.119,0.358-0.158,0.511-0.13,0.822c0.621,0.042,1.226,0.116,1.984-0.106
	c0.115,0.324-0.158,0.446-0.169,0.705c0.697,0.119,1.381,0.264,2.237,0.075c0.206,0.187,0.017,0.295,0.109,0.552
	c0.646,0.06,1.339,0.026,2.022,0.013c0.115,0.238-0.228,0.4-0.028,0.529c0.825-0.031,1.708-0.177,2.375,0.097
	c0.133,0.202-0.094,0.215-0.007,0.393c3.057-0.138,5.4,1.096,7.797,2.226c-1.632,0.221-3.479,0.031-4.941-0.394
	c-0.18-0.16-0.422-0.203-0.623-0.324c-0.06,0.084-0.065,0.196-0.18,0.252c-0.577-0.096-1.075-0.344-1.561-0.614
	c-0.216,0.02,0,0.264-0.24,0.271c-0.489-0.075-0.867-0.362-1.327-0.493c-0.151,0.053-0.012,0.257-0.163,0.312
	c-0.575-0.164-1.083-0.455-1.679-0.577c-0.108,0.076,0.048,0.289-0.083,0.352c-0.552,0.078-0.825-0.38-1.309-0.433
	c-0.242,0.072,0.009,0.4-0.243,0.468c-0.489-0.106-0.859-0.441-1.427-0.397c0.064,0.199,0.018,0.339-0.047,0.47
	c-0.548-0.055-0.918-0.453-1.544-0.358c-0.055,0.153,0.083,0.406,0.049,0.57c-0.399,0.09-0.929-0.362-1.589-0.084
	c0.047,0.173,0.154,0.377,0.09,0.492c-0.534,0.013-0.908-0.282-1.57-0.025c0.095,0.181,0.047,0.288,0.072,0.433
	c-0.579,0.129-1.032,0.019-1.633,0.19c0.107,0.22,0.058,0.36,0.031,0.511c-0.535,0.014-1.127,0.137-1.772,0.364
	c-0.057,0.119-0.052,0.27-0.065,0.411c-1.074,0.371-1.887,0.593-3.02,0.953c0.827,0.44,1.837,0.528,2.857,0.595
	c0.371,0.745,1.328,0.364,2.034,0.465c0.111,0.207-0.021,0.286,0.09,0.492c0.481-0.006,0.975-0.035,1.514-0.152
	c0.119,0.077,0.076,0.369,0.109,0.552c0.414,0.028,0.944-0.165,1.458-0.33c0.182,0.101,0.031,0.307,0.09,0.492
	c0.447,0.103,1.017-0.239,1.499-0.408c0.123,0.262-0.025,0.382,0.068,0.629c0.539-0.026,0.979-0.417,1.424-0.645
	c0.154,0.021,0.141,0.365,0.227,0.515c0.579-0.177,0.933-0.472,1.327-0.744c0.208,0.063,0.097,0.376,0.168,0.533
	c0.553-0.191,0.838-0.521,1.25-0.785c0.146,0.002,0.127,0.325,0.208,0.455c0.547-0.111,1.262-1.024,1.717-0.542
	c0.4-0.237,0.751-0.5,1.208-0.707c0.134-0.003,0.253,0.02,0.271,0.239c0.42-0.292,0.839-0.585,1.29-0.862
	c0.209-0.055,0.317,0.088,0.449,0.184c1.699-1.273,4.598-1.538,6.331-1.803c-0.653,0.917-1.468,1.7-2.724,2.096
	c0.025,0.079,0.05,0.158,0.075,0.237c-0.667,0.147-0.768,0.59-1.387,0.763c0.03,0.362-0.563,0.399-0.776,0.636
	c-0.196-0.004-0.063,0.165-0.043,0.273c-0.153,0.135-0.434,0.204-0.692,0.283c-0.061,0.149,0.03,0.074,0.075,0.237
	c-0.166,0.261-0.967,0.282-0.561,0.698c-0.119,0.169-0.541,0.18-0.673,0.343c-0.091,0.164,0.082,0.159,0.111,0.355
	c-0.183,0.152-0.422,0.274-0.576,0.442c-0.075,0.147,0.069,0.096,0.093,0.296c-0.148,0.203-0.392,0.357-0.539,0.561
	c0.007,0.175,0.155,0.082,0.192,0.199c-0.14,0.224-0.364,0.404-0.52,0.62c-0.078,0.14,0.08,0.165,0.152,0.278
	c-0.604,0.774-0.637,1.846-1.181,2.65c0.814-0.575,1.685-0.843,2.261-1.494c0.202-0.133,0.164,0.192,0.352,0.084
	c0.261-0.618,1.009-0.391,1.156-1.081c0.424,0.137,0.546-0.251,0.676-0.538c0.201-0.134,0.215,0.093,0.393,0.006
	c0.067-0.229,0.222-0.413,0.168-0.705c0.201-0.132,0.216,0.095,0.393,0.006c0.055-0.234,0.208-0.419,0.168-0.704
	c0.168-0.102,0.166,0.126,0.334,0.025c0.03-0.215,0.172-0.372,0.127-0.626c0.077-0.178,0.26,0.007,0.336-0.171
	c0.103-0.677,0.558-0.865,0.614-1.561c0.104-0.041,0.148,0.033,0.256-0.015c0.373-1.505,1.075-2.838,2.125-3.991
	c1.602,3.612,3.349,8.528,4.449,12.656c0.302,1.135,0.542,2.381,0.064,3.299c0.079,0.557,0.314,1.349,0.701,1.601
	c1.152-0.938,0.06-3.601-0.111-5.303c-0.793-2.413-1.842-5.883-2.997-8.882c-0.472-1.225-1.01-2.398-1.258-3.573
	c1.461,0.329,2.708,1.072,3.875,1.966c0.378-0.24,0.514,0.523,1.016,0.331c0.182,0.221,0.393,0.387,0.62,0.521
	c0.147,0.076,0.15-0.041,0.296-0.094c0.163,0.195,0.357,0.328,0.542,0.481c0.175-0.009,0.082-0.155,0.199-0.193
	c0.206,0.144,0.387,0.333,0.601,0.461c0.196-0.014,0.063-0.199,0.259-0.212c0.202,0.151,0.378,0.349,0.601,0.462
	c0.195-0.031,0.077-0.225,0.318-0.23c0.189,0.081,0.343,0.227,0.545,0.283c0.286-0.381,0.6-0.046,0.922,0.035
	c0.245-0.381,0.572-0.107,0.884-0.084c0.183,0.1,0.129-0.142,0.259-0.212c0.89,0.16,1.747-0.081,2.77-0.092
	c-0.911-0.31-1.501-1.236-2.47-1.435c-0.045-0.138,0.047-0.206-0.053-0.374c-0.255-0.047-0.471-0.17-0.763-0.149
	c-0.101-0.169,0.127-0.165,0.025-0.334c-0.246-0.033-0.451-0.147-0.744-0.09c-0.113-0.189,0.031-0.284-0.113-0.355
	c-0.238,0.015-0.399-0.119-0.707,0.028c-0.181-0.093,0.049-0.226-0.071-0.433c-0.229,0.028-0.456,0.053-0.729,0.165
	c-0.186-0.007-0.063-0.257-0.112-0.355c-0.369,0.04-0.905,0.231-0.901-0.172c-0.396,0.159-0.768,0.273-0.881-0.112
	c-0.3,0.132-0.481,0.037-0.789,0.183c-0.098-0.033-0.14-0.175-0.252-0.181c-0.613,0.228-0.931-0.111-1.573,0.172
	c-0.109,0.019-0.167-0.06-0.193-0.199c-0.991,0.351-2.326,0.144-3.296-0.132c1.522-0.885,4.061-2.251,6.141-2.198
	c0.165-0.095,0.083-0.32,0.262-0.408c0.563-0.068,1.078-0.043,1.61-0.053c-0.11-0.173-0.02-0.241,0.026-0.333
	c0.506-0.118,0.944-0.104,1.395-0.115c0.156-0.658,1.218-0.336,1.776-0.561c-0.05-0.158-0.1-0.315-0.149-0.473
	c0.531-0.069,0.944,0.086,1.533-0.093c-0.064-0.193-0.193-0.263-0.228-0.514c0.523-0.056,0.969,0.039,1.573-0.17
	c-0.056-0.178-0.112-0.356-0.167-0.533c0.538-0.123,1.103,0.021,1.594-0.309c-0.055-0.241-0.229-0.254-0.286-0.495
	c0.334-0.256,1.169-0.2,1.443-0.585c-0.063-0.165-0.186-0.213-0.249-0.377c0.374-0.268,1.123-0.34,1.424-0.645
	c-0.105-0.115-0.15-0.345-0.268-0.436c0.411-0.298,0.979-0.513,1.367-0.823c-0.017-0.22-0.16-0.2-0.189-0.395
	c0.335-0.568,1.517-0.695,1.34-1.53C271.428,194.175,272.294,193.537,272.715,192.668z"/>
</svg>