<?xml version="1.0" encoding="iso-8859-1"?>
<!-- Uploaded to: SVG Repo, www.svgrepo.com, Generator: SVG Repo Mixer Tools -->
<svg height="800px" width="800px" version="1.1" id="Layer_1" xmlns="http://www.w3.org/2000/svg" xmlns:xlink="http://www.w3.org/1999/xlink" 
	 viewBox="0 0 496.159 496.159" xml:space="preserve">
<path style="fill:#D61E1E;" d="M248.083,0.003C111.071,0.003,0,111.063,0,248.085c0,137.001,111.07,248.07,248.083,248.07
	c137.006,0,248.076-111.069,248.076-248.07C496.159,111.062,385.089,0.003,248.083,0.003z"/>
<path style="fill:#F4EDED;" d="M248.082,39.002C132.609,39.002,39,132.602,39,248.084c0,115.463,93.609,209.072,209.082,209.072
	c115.468,0,209.077-93.609,209.077-209.072C457.159,132.602,363.55,39.002,248.082,39.002z"/>
<path style="fill:#5B5147;" d="M379.817,282.926c-0.88-0.21-0.808-1.371-1.089-2.177c-3.939-0.068-7.687,0.055-10.524,1.088
	c-0.949-0.381-1.187-1.474-1.088-2.903c-3.496,0.134-5.89,1.368-9.073,1.815c-0.562-0.528-0.762-1.416-0.726-2.541
	c-3.817-0.066-5.942,1.559-8.347,2.903c-1.128-0.081-0.613-1.806-0.727-2.903c-3.955,0.036-6.015,1.97-8.347,3.629
	c-0.855-0.716-0.503-2.641-1.088-3.629c-3.448,0.666-5.141,3.086-7.622,4.718c-1.136-0.194-1.308-1.354-1.452-2.541
	c-3.026,0.844-4.782,2.959-6.894,4.718c-1.688,0.237-1.267-1.637-2.178-2.177c-2.881,0.869-3.605,3.894-6.532,4.718
	c-1.021,0.052-1.047-0.89-1.089-1.815c-3.309,1.53-5.754,3.923-8.347,6.17c-1.137,0.169-1.023-0.913-1.452-1.452
	c-2.646,1.588-4.905,3.563-6.896,5.806c-0.716-0.25-0.967-0.968-1.088-1.814c-3.005,1.713-4.993,4.443-7.984,6.17
	c-0.693-0.153-1.562-0.132-1.451-1.089c-7.329,7.188-18.462,10.571-29.396,14.154c0.969-3.351,4.296-5.441,6.896-7.622
	c8.804-7.386,18.558-15.597,31.936-18.872c0.271-1.117-0.997-0.697-0.726-1.814c2.749-3.299,8.453-3.644,13.064-5.081
	c0.849-0.955-1.038-1.375-1.089-2.541c3.262-1.82,7.863-2.298,11.25-3.992c0.281-1.414-1.341-1.882-0.363-2.903
	c4.511-1.174,8.802-2.569,12.338-4.717c-0.352-1.462-2.039-1.589-2.177-3.267c3.964-0.875,8.034-1.644,11.251-3.266
	c-0.39-1.667-1.98-2.133-2.178-3.992c4.349-0.731,8.008-2.153,11.25-3.992c-0.143-1.792-1.809-2.062-2.177-3.629
	c2.872-1.604,6.28-2.672,10.162-3.267c-0.315-1.403,0.606-1.57,1.088-2.177c-0.908-1.512-3.071-1.768-3.267-3.992
	c3.827-1.375,7.31-3.093,9.437-6.17c-0.031-1.904-2.454-1.417-2.542-3.265c3.472-1.973,6.988-3.901,9.436-6.896
	c-0.252-1.563-2.137-1.492-2.541-2.904c2.391-3.294,5.899-5.472,8.347-8.709c-0.328-1.486-2.03-1.598-2.54-2.903
	c2.453-4.326,9.333-7.673,7.622-13.791c3.144-5.081,6.485-9.966,9.072-15.604c0.974-1.204,2.343-2.012,1.814-4.718
	c-7.217,3.912-13.326,8.933-20.686,12.702c-1.379-0.072-1.377-1.526-2.903-1.452c-4.096,2.315-7.894,4.929-10.887,8.347
	c-1.801-0.014-2.222-1.408-2.904-2.54c-3.896,2.032-6.017,5.838-9.072,8.709c-1.095-0.72-2.165-1.464-2.541-2.903
	c-3.354,2.331-5.755,5.616-7.258,9.798c-1.938-0.119-1.712-2.401-3.267-2.903c-3.007,2.315-5.324,5.321-6.169,9.798
	c-2.4-0.14-2.513-2.569-4.354-3.267c-2.461,2.861-3.959,6.687-4.717,11.25c-2.01,0.074-2.168-1.704-3.63-2.178
	c-2.807,2.394-3.889,6.514-4.354,11.25c-2.166-0.133-2.404-2.193-4.355-2.54c-1.133,3.584-2.637,6.799-2.903,11.25
	c-2.301,0.365-1.826-2.045-3.629-2.177c-1.869,3.937-3.739,7.874-4.354,13.064c-1.577,0.125-2.025-0.878-3.267-1.089
	c-0.905,3.934-2.679,6.998-3.267,11.25c-1.84,0.535-2.244-1.565-3.266-0.726c-0.915,4.529-2.009,8.879-3.992,12.339
	c-1.247,0.159-2.034-0.144-2.903-0.363c-3.509,18.144-15.763,27.544-25.041,39.919c-1.818-1.557-0.255-4.083,0-6.169
	c1.98-16.186,4.241-32.641,11.613-43.187c-1.843,0.391-2.232-0.67-2.903-1.451c1.814-6.17,4.81-11.158,7.984-15.968
	c-0.889-0.563-2.362-0.542-3.629-0.727c1.498-5.639,5.505-8.771,6.533-14.879c-1.216-0.115-2.288-0.374-2.904-1.088
	c2.417-5.569,5.94-10.028,7.258-16.694c-1.772-0.042-3.824,0.195-5.081-0.363c2.462-4.674,5.958-8.317,7.258-14.153
	c-2.261,0.204-3.824-0.29-5.444-0.727c2.054-4.732,6.124-9.344,6.17-14.879c-2.321,0.143-3.823-0.532-5.807-0.725
	c2.468-4.44,6.154-9.556,5.807-15.606c-2.011,0.356-4.581,0.6-6.533,0c1.882-4.061,4.453-9.317,2.903-15.604
	c-1.695,0.362-3.214,0.899-5.444,0.726c1.505-4.367,3.919-11.063,2.178-16.331c-1.023,0.549-2.269,0.876-3.992,0.726
	c-0.37-0.236-0.375-0.834-1.089-0.726c0.752-5.279,0.529-9.981,0.364-15.605h-5.081c-0.762-8.756-0.639-12.869-2.903-19.234
	c-1.443,0.316-1.823,0.316-3.266,0c-1.137-11.082-4.16-20.276-7.622-29.033c-0.586-0.102-0.625,0.343-1.088,0.363
	c-1.961,10.74-3.871,21.533-7.258,30.847c-1.146,0.489-1.425-0.136-3.266,0.363c-1.839,5.297-2.809,11.465-2.541,18.871
	c-1.772-0.042-3.824,0.196-5.081-0.363c-0.961,5.136-0.608,10.719,0,15.968c-1.288,1.361-3.762,0.319-5.444,0
	c-0.984,5.537,0.791,10.922,2.177,15.242c-1.265,1.063-3.302,0.606-5.081,0.363c-1.512,6.13,1.063,11.258,2.903,15.242
	c-2.015,1.122-4.277,0.404-6.896,0.363c0.741,6.522,2.766,10.52,6.17,14.879c-0.792,1.748-4.279,0.802-6.17,1.452
	c1.392,5.745,3.847,10.428,6.896,14.516c-1.389,0.91-3.569,1.027-5.807,1.089c1.442,5.453,4.275,9.516,7.258,13.428
	c-0.517,1.54-3.119,0.994-5.081,1.089c1.536,6.449,4.898,11.07,7.258,16.694c-0.479,0.973-2.301,0.603-3.266,1.088
	c1.335,5.559,5.493,8.297,6.169,14.517c-0.051,1.038-1.514,0.664-2.54,0.726c2.178,5.685,5.932,9.794,7.621,15.968
	c-0.401,1.172-1.155,1.991-2.903,1.814c8.742,11.562,10.125,28.507,12.701,46.453c-0.421-0.059-0.646,0.08-0.726,0.363
	c-5.247-4.337-9.323-10.397-13.79-16.331c-4.996-6.636-10.434-12.958-11.614-23.226c-6.089,1.194-5.054-7.727-6.895-11.977
	c-0.983-0.876-1.291,1.123-2.904,0.726c-1.345-3.615-2.466-7.454-3.629-11.25c-1.289,0.041-1.319,1.342-2.903,1.089
	c-1.292-4.635-2.622-9.233-4.718-13.064c-1.534,0.28-1.41,2.219-3.267,2.177c-0.996-3.842-1.885-7.792-3.266-11.25
	c-1.704,0.473-2.377,1.977-3.992,2.54c-1.051-4.15-1.813-8.59-4.354-11.25c-1.695,0.241-1.97,1.902-3.63,2.178
	c-1.475-3.97-2.352-8.536-5.08-11.25c-1.707,0.712-2.019,2.821-3.992,3.267c-1.728-3.958-3.07-8.301-7.258-9.798
	c-0.198,1.496-1.193,2.193-2.177,2.903c-1.915-3.77-4.216-7.156-7.258-9.798c-1.129,0.686-1.334,2.295-2.541,2.903
	c-3.48-2.447-5.388-6.466-9.073-8.709c-1.167,0.647-1.241,2.388-2.903,2.54c-3.462-3.07-6.968-6.096-11.25-8.347
	c-1.326,0.006-1.63,1.032-2.541,1.452c-7.748-3.624-13.768-8.975-21.412-12.702c2.827,7.334,6.896,13.428,10.888,19.597
	c-1.01,7.124,4.948,9.918,7.984,14.154c-0.324,1.491-1.778,1.851-2.54,2.903c2.165,3.52,5.623,5.749,8.347,8.71
	c-0.071,1.865-2.307,1.564-2.541,3.267c2.449,2.995,5.964,4.923,9.436,6.896c0.154,2.09-2.569,1.301-2.541,3.265
	c2.274,2.808,5.066,5.095,9.436,5.807c-0.071,2.348-1.888,2.95-3.267,3.992c2.49,3.76,7.016,3.295,10.525,5.807
	c0.442,1.67-1.588,2.743-1.089,3.267c2.553,2.406,6.157,3.761,10.887,3.991c0.029,2.207-1.784,2.57-2.177,4.355
	c3.392,1.327,6.632,2.803,11.25,2.903c0.073,2.008-1.667,2.204-2.178,3.629c3.677,1.888,7.232,3.897,12.339,4.354
	c0.817,1.4-0.428,1.677-0.363,3.266c3.493,1.468,7.418,2.501,11.25,3.629c0.226,1.53-1.975,1.836-1.088,2.903
	c4.653,1.274,9.835,2.02,13.065,4.718c0.388,1.355-0.901,1.034-0.726,2.177c17.284,4.612,28.178,15.612,39.557,26.13
	c-9.49-1.639-19.452-5.951-26.855-10.887c-0.725-1.211-1.996-1.876-2.903-2.903c-0.485,0.362-0.713,0.981-1.452,1.089
	c-3.045-1.552-5.389-3.805-7.621-6.17c-1.241-0.272-0.462,1.474-1.814,1.089c-2.596-1.275-4.198-3.545-6.533-5.081
	c-0.933,0.035-0.519,1.417-1.451,1.452c-2.92-1.919-5.24-4.438-8.347-6.17c-0.736,0.232-0.239,1.696-1.089,1.815
	c-3.211-0.54-3.93-3.571-6.532-4.718c-1.473-0.022-0.654,2.249-2.178,2.177c-2.543-1.449-4.015-3.968-7.258-4.718
	c0.01,1.219-0.5,1.92-1.088,2.541c-2.961-1.273-4.322-4.147-7.984-4.718c-0.573,0.758-0.252,2.41-0.727,3.266
	c-2.385-0.202-4.542-3.648-8.71-3.266c-0.042,1.046,0.198,2.376-0.363,2.903c-2.999-0.872-4.568-3.174-8.71-2.903
	c0.211,1.178-0.247,1.688-0.362,2.541c-3.451-0.3-5.791-1.71-9.436-1.815c0.211,1.42-0.312,2.107-0.726,2.903
	c-3.009-0.862-6.523-1.219-10.525-1.088c-0.524,0.564-0.763,1.414-1.089,2.177c-6.644,0.181-11.562-0.016-18.508,0
	c3.836,3.906,9.311,6.174,14.88,8.347c0.762,4.802,6.761,4.367,10.524,6.17c0.257,1.345-0.62,1.557-0.363,2.903
	c2.698,0.811,5.496,1.52,8.71,1.814c0.53,0.637-0.224,2.189-0.363,3.267c2.262,0.884,5.555,0.736,8.71,0.725
	c0.836,0.879-0.369,1.763-0.363,2.904c2.308,1.36,6.095,0.456,9.073,0.362c0.224,1.675-0.815,2.089-0.726,3.629
	c3.055,0.805,6.188-0.604,9.073-1.088c0.823,0.386,0.138,2.281,0.363,3.267c3.537,0.028,6.03-0.987,8.709-1.815
	c1.042,0.718-0.126,2.266,0,3.266c3.415-0.093,5.59-1.427,8.347-2.177c0.819,0.27,0.142,2.035,0.363,2.902
	c3.241,0.341,8.835-3.488,10.525,0c2.651-0.615,5.072-1.46,7.984-1.813c0.75,0.218,1.374,0.561,1.088,1.813
	c2.86-0.891,5.713-1.788,8.71-2.54c1.263,0.068,1.613,1.048,2.178,1.814c11.714-4.104,28.347-0.481,38.469,1.089
	c-5.252,3.963-11.174,6.896-18.872,6.895v1.452c-3.978-0.349-5.317,1.941-9.073,1.814c-0.471,2.07-3.847,1.234-5.444,2.178
	c-1.091-0.367-0.643,0.808-0.726,1.451c-1.09,0.483-2.776,0.369-4.354,0.363c-0.604,0.721,0.033,0.462,0,1.452
	c-1.385,1.165-5.887-0.131-4.355,2.904c-0.959,0.734-3.332,0.055-4.355,0.726c-0.791,0.758,0.182,1.036,0,2.177
	c-1.289,0.525-2.84,0.789-3.992,1.452c-0.681,0.692,0.215,0.657,0,1.815c-1.185,0.872-2.811,1.302-3.992,2.177
	c-0.265,0.991,0.721,0.731,0.725,1.452c-1.178,1-2.742,1.613-3.992,2.541c-0.674,0.642,0.158,1.059,0.363,1.815
	c-4.726,3.257-6.795,9.172-11.25,12.702c5.553-1.777,10.884-1.737,15.242-4.355c1.354-0.386,0.575,1.361,1.815,1.088
	c2.541-2.986,6.314-0.401,8.347-3.992c2.124,1.511,3.488-0.437,4.718-1.814c1.355-0.388,1.034,0.9,2.178,0.726
	c0.781-1.154,1.959-1.912,2.177-3.63c1.355-0.387,1.034,0.902,2.178,0.726c0.725-1.21,1.903-1.968,2.177-3.629
	c1.117-0.27,0.698,0.997,1.815,0.726c0.55-1.143,1.615-1.771,1.814-3.267c0.741-0.861,1.436,0.499,2.178-0.363
	c1.764-3.594,4.632-3.845,6.169-7.622c0.651-0.045,0.766,0.445,1.452,0.364c4.725-7.735,10.989-13.932,18.872-18.508
	c2.575,22.958,3.673,53.438,2.54,78.389c-0.312,6.862-1.172,14.232-5.444,18.509c-0.54,3.25-0.625,8.076,1.089,10.161
	c8.073-3.205,6.668-19.968,8.71-29.759c-0.178-14.851,0.076-36.043-1.089-54.799c-0.476-7.658-1.415-15.143-0.726-22.138
	c7.568,4.408,13.208,10.743,18.145,17.782c2.53-0.674,1.945,3.819,5.081,3.63c0.628,1.549,1.507,2.848,2.541,3.992
	c0.691,0.68,0.912,0.04,1.815,0c0.566,1.369,1.414,2.458,2.177,3.629c0.99,0.264,0.731-0.721,1.452-0.726
	c0.892,1.165,1.574,2.539,2.54,3.629c1.117,0.271,0.698-0.996,1.815-0.726c0.86,1.196,1.499,2.614,2.54,3.63
	c1.144,0.175,0.822-1.114,2.178-0.726c0.908,0.786,1.516,1.871,2.541,2.54c2.26-1.619,3.429,0.796,5.081,1.814
	c2.034-1.694,3.375,0.413,5.081,1.088c0.843,0.877,0.972-0.567,1.814-0.725c4.685,2.457,9.883,2.621,15.605,4.355
	c-4.537-3.327-6.199-9.527-11.25-12.339c-0.009-0.855,0.624-1.068,0.362-2.178c-1.346-0.711-2.333-1.78-3.992-2.178
	c-0.27-1.118,0.997-0.698,0.726-1.815c-1.314-0.621-2.256-1.614-3.992-1.813c-0.294-1.255,0.678-1.533,0-2.178
	c-1.353-0.341-2.016-1.371-3.992-1.088c-0.842-0.837,0.672-1.17,0.363-2.54c-1.327-0.247-2.639-0.506-4.355-0.363
	c-1.021-0.367,0.1-1.542,0-2.178c-2.124-0.426-5.455-0.299-4.718-2.541c-2.489,0.191-4.766,0.169-4.717-2.177
	c-1.906,0.212-2.748-0.64-4.718-0.363c-0.491-0.355-0.471-1.224-1.089-1.452c-3.817,0.188-4.999-2.258-9.073-1.814
	c-0.639-0.087-0.827-0.625-0.726-1.452c-6.14,0.216-13.225-3.29-18.146-6.532c10.044-2.252,26.6-5.407,38.105-1.452
	c1.09-0.241,1.023-1.638,2.178-1.814c3.261,0.61,6.083,1.659,9.073,2.54c-0.311-1.156,0.316-1.377,0.726-1.813
	c3.03,0.235,5.446,1.085,7.984,1.813c2.029-3.394,7.376,0.271,10.887,0V314.5c3.083,0.545,5.118,2.139,8.709,2.177
	c-0.015-1.194-0.612-1.806-0.362-3.266c3.016,0.614,5.335,1.924,9.073,1.815v-3.267c3.217,0.26,6.111,2.06,9.435,1.088
	c0.113-1.443-0.837-1.823-0.726-3.267c2.313-0.843,6.873,0.939,9.073-0.725c-0.061-1.028-0.666-1.513-0.727-2.541
	c2.555-0.833,6.857,0.082,9.074-1.088c-0.38-0.831-0.231-2.189-0.727-2.903c2.816-0.934,6.367-1.133,9.073-2.178
	c0.291-1.259-0.541-1.395-0.363-2.541c2.871-2.572,9.681-1.206,10.161-6.169c5.411-2.574,11.367-4.601,15.243-8.71
	C390.399,282.911,386.952,283.166,379.817,282.926z"/>
<path style="fill:#D61E1E;" d="M85.851,60.394c-9.086,7.86-17.596,16.37-25.457,25.456l349.914,349.914
	c9.086-7.861,17.596-16.37,25.456-25.456L85.851,60.394z"/>
</svg>