<?xml version="1.0" encoding="iso-8859-1"?>
<!-- Uploaded to: SVG Repo, www.svgrepo.com, Generator: SVG Repo Mixer Tools -->
<svg fill="#000000" height="800px" width="800px" version="1.1" id="Layer_1" xmlns="http://www.w3.org/2000/svg" xmlns:xlink="http://www.w3.org/1999/xlink" 
	 viewBox="0 0 512 512" xml:space="preserve">
<g>
	<g>
		<g>
			<path d="M255.999,0.001C114.841,0.001,0,114.841,0,255.999s114.841,256,255.999,256c141.16,0,256.001-114.841,256.001-256
				S397.159,0.001,255.999,0.001z M255.999,490.662c-129.392,0-234.662-105.269-234.662-234.663S126.607,21.337,255.999,21.337
				c129.393,0,234.664,105.268,234.664,234.662C490.663,385.393,385.392,490.662,255.999,490.662z"/>
			<path d="M255.999,64.004c5.892,0,10.669-4.776,10.669-10.669c0-5.892-4.776-10.669-10.669-10.669
				c-117.634,0-213.337,95.701-213.337,213.332c0,8.085,0.468,16.256,1.39,24.287c0.625,5.441,5.238,9.453,10.586,9.453
				c0.406,0,0.818-0.023,1.231-0.07c5.853-0.672,10.054-5.962,9.381-11.816c-0.829-7.226-1.25-14.579-1.25-21.853
				C63.999,150.133,150.131,64.004,255.999,64.004z"/>
			<path d="M467.944,231.713c-0.671-5.854-5.955-10.053-11.815-9.382c-5.854,0.671-10.055,5.962-9.383,11.816
				c0.827,7.216,1.248,14.568,1.248,21.853c0,105.868-86.129,191.998-191.995,191.998c-5.892,0-10.669,4.776-10.669,10.669
				s4.776,10.669,10.669,10.669c117.632,0,213.333-95.703,213.333-213.336C469.332,247.905,468.865,239.734,467.944,231.713z"/>
			<path d="M70.466,305.4c-1.537-5.689-7.401-9.061-13.087-7.52c-5.688,1.539-9.052,7.389-7.514,13.077l0.069,0.268
				c1.281,4.763,5.59,7.903,10.299,7.903c0.915,0,1.849-0.12,2.777-0.369c5.69-1.531,9.062-7.38,7.532-13.07L70.466,305.4z"/>
			<path d="M441.527,206.585c1.28,4.76,5.584,7.891,10.288,7.891c0.919,0,1.853-0.12,2.782-0.369
				c5.691-1.531,9.059-7.394,7.529-13.084l-0.068-0.261c-1.538-5.688-7.398-9.043-13.084-7.505
				c-5.686,1.539-9.049,7.404-7.51,13.092L441.527,206.585z"/>
			<path d="M245.333,388.55h-0.003c0,5.892,4.776,10.669,10.669,10.669c5.892,0,10.669-4.776,10.669-10.669v-40.122
				c14.961,8.143,33.909,12.724,54.137,12.724c29.945,0,57.1-10.024,72.637-26.815c3.784-4.089,3.784-10.402,0.001-14.491
				c-11.321-12.236-28.817-20.872-49.064-24.661c26.751-26.792,42.056-59.91,40.941-88.611c-0.216-5.567-4.68-10.031-10.245-10.247
				c-0.955-0.037-1.917-0.055-2.886-0.055c-22.509,0-47.648,9.928-70.007,27.181c0.204-38.838-10.942-81.928-38.935-107.831
				c-4.089-3.783-10.401-3.785-14.491,0c-27.997,25.905-39.145,68.994-38.941,107.83c-22.359-17.251-47.497-27.179-70.005-27.179
				c-0.969,0-1.932,0.018-2.885,0.055c-5.567,0.217-10.03,4.68-10.246,10.247c-1.115,28.702,14.19,61.819,40.943,88.611
				c-20.248,3.788-37.745,12.425-49.065,24.661c-3.784,4.089-3.784,10.402,0,14.491c15.537,16.788,42.679,26.809,72.61,26.809
				c0.017,0,0.029,0,0.046,0c20.22,0,39.164-4.579,54.121-12.72V388.55z M369.101,327.089
				c-12.162,7.999-29.638,12.724-48.296,12.724c-13.72,0-26.797-2.558-37.596-7.093c12.793-3.628,25.793-9.876,38.146-18.344
				C339.807,314.468,357.06,319.17,369.101,327.089z M363.398,218.262c-2.885,20.23-15.329,43.057-34.199,61.925
				c-18.718,18.719-41.693,31.261-61.937,34.184c2.882-20.227,15.327-43.054,34.199-61.925
				C320.179,233.727,343.153,221.185,363.398,218.262z M191.206,339.809c-0.013,0-0.023,0-0.037,0
				c-18.647,0-36.116-4.722-48.272-12.718c12.04-7.919,29.293-12.621,47.747-12.713c12.353,8.468,25.352,14.715,38.144,18.343
				C217.992,337.251,204.92,339.809,191.206,339.809z M182.798,280.188c-18.87-18.869-31.314-41.695-34.199-61.925
				c20.246,2.924,43.22,15.466,61.937,34.185c18.871,18.87,31.317,41.697,34.201,61.923
				C224.491,311.448,201.516,298.906,182.798,280.188z M245.33,243.034v18.094c-3.795-5.601-8.054-11.081-12.74-16.368
				c-4.482-33.688,1.196-78.262,23.408-105.712c22.208,27.447,27.885,72.022,23.404,105.714
				c-4.685,5.285-8.941,10.763-12.735,16.362v-18.09c0-5.892-4.776-10.669-10.669-10.669S245.33,237.141,245.33,243.034z"/>
			<path d="M266.663,212.39v-0.254c0-5.892-4.776-10.669-10.669-10.669s-10.669,4.776-10.669,10.669v0.254
				c0,5.892,4.776,10.669,10.669,10.669S266.663,218.282,266.663,212.39z"/>
		</g>
	</g>
</g>
</svg>