<?xml version="1.0" encoding="iso-8859-1"?>
<!-- Uploaded to: SVG Repo, www.svgrepo.com, Generator: SVG Repo Mixer Tools -->
<!DOCTYPE svg PUBLIC "-//W3C//DTD SVG 1.1//EN" "http://www.w3.org/Graphics/SVG/1.1/DTD/svg11.dtd">
<svg fill="#000000" version="1.1" id="Capa_1" xmlns="http://www.w3.org/2000/svg" xmlns:xlink="http://www.w3.org/1999/xlink" 
	 width="800px" height="800px" viewBox="0 0 44.438 44.438"
	 xml:space="preserve">
<g>
	<g>
		<path d="M39.898,0H4.538C3.166,0,2.055,1.112,2.055,2.484v3.307c0,1.372,1.111,2.483,2.483,2.483h35.36
			c1.372,0,2.484-1.112,2.484-2.483V2.484C42.383,1.112,41.27,0,39.898,0z"/>
		<path d="M7.26,38.856c0,3.082,2.514,5.581,5.596,5.581h18.809c3.082,0,5.567-2.499,5.567-5.581V11.342H7.26V38.856z
			 M12.903,20.821c0-1.226,1.024-2.246,2.25-2.246h14.165c1.226,0,2.216,1.02,2.216,2.246v13.13c0,1.227-0.99,2.212-2.216,2.212
			H15.153c-1.226,0-2.25-0.985-2.25-2.212V20.821z"/>
		<path d="M28.025,28.378c-0.151-0.345-1.959,0.105-3.478,0.7c0.062-0.1,0.125-0.203,0.189-0.312
			c1.209-2.041,2.422-5.008,1.924-5.303c-0.427-0.253-1.968,1.534-3.16,3.334c-0.047-2.858-0.604-6.425-1.282-6.425
			c-0.681,0-1.236,3.566-1.283,6.425c-1.193-1.801-2.733-3.587-3.159-3.334c-0.498,0.295,0.714,3.262,1.923,5.303
			c0.064,0.108,0.127,0.213,0.189,0.312c-1.519-0.595-3.325-1.045-3.477-0.7c-0.171,0.388,1.818,1.636,3.41,2.333
			c0.148,0.065,0.288,0.123,0.419,0.174c-0.821,0.291-1.621,0.691-1.567,0.883c0.067,0.236,1.419,0.062,2.39-0.211
			c0.314-0.088,0.548-0.176,0.724-0.264v1.592c0,0.239,0.194,0.433,0.433,0.433c0.239,0,0.434-0.193,0.434-0.433v-1.592
			c0.176,0.088,0.407,0.176,0.721,0.264c0.973,0.273,2.322,0.447,2.39,0.211c0.054-0.191-0.747-0.592-1.567-0.883
			c0.131-0.051,0.271-0.108,0.418-0.174C26.208,30.014,28.196,28.766,28.025,28.378z"/>
	</g>
</g>
</svg>