<?xml version="1.0" encoding="iso-8859-1"?>
<!-- Uploaded to: SVG Repo, www.svgrepo.com, Generator: SVG Repo Mixer Tools -->
<svg height="800px" width="800px" version="1.1" id="Layer_1" xmlns="http://www.w3.org/2000/svg" xmlns:xlink="http://www.w3.org/1999/xlink" 
	 viewBox="0 0 512 512" xml:space="preserve">
<g>
	<path style="fill:#A9C4DA;" d="M255.999,327.089c-12.94,13.981-37.118,23.392-64.81,23.387
		c-27.689,0.004-51.866-9.406-64.804-23.387c12.938-13.983,37.115-23.39,64.806-23.39l2.856,0.037
		c-6.467-4.646-12.782-9.993-18.795-16.005c-25.35-25.353-38.871-56.099-37.914-80.745c24.647-0.957,55.393,12.565,80.745,37.917
		c1.513,1.512,2.984,3.044,4.411,4.596c-6.401-41.356,1.862-96.771,33.506-126.049c31.643,29.279,39.901,84.696,33.502,126.051
		c1.429-1.55,2.9-3.083,4.415-4.598c25.352-25.352,56.097-38.874,80.744-37.917c0.956,24.647-12.565,55.392-37.913,80.745
		c-6.014,6.012-12.33,11.357-18.793,16.003l2.853-0.035c27.693,0,51.868,9.406,64.806,23.39
		c-12.938,13.981-37.113,23.392-64.806,23.392C293.114,350.482,268.937,341.072,255.999,327.089L255.999,327.089z M501.329,255.999
		c0-135.492-109.839-245.331-245.33-245.331c-135.493,0-245.332,109.839-245.332,245.33c0,135.494,109.84,245.331,245.332,245.331
		C391.491,501.331,501.329,391.493,501.329,255.999z"/>
	<path style="fill:#EFBD54;" d="M191.189,350.477c27.693,0.004,51.87-9.406,64.81-23.387c12.938,13.981,37.115,23.392,64.806,23.392
		c27.693,0,51.868-9.41,64.806-23.392c-12.938-13.983-37.113-23.39-64.806-23.39l-2.851,0.035
		c6.464-4.646,12.778-9.991,18.791-16.003c25.349-25.353,38.87-56.099,37.913-80.745c-24.647-0.957-55.392,12.565-80.744,37.917
		c-1.515,1.515-2.986,3.048-4.415,4.598c6.399-41.356-1.858-96.773-33.502-126.051c-31.644,29.279-39.907,84.693-33.506,126.049
		c-1.427-1.552-2.899-3.084-4.411-4.596c-25.352-25.352-56.098-38.874-80.745-37.917c-0.956,24.647,12.565,55.392,37.914,80.745
		c6.013,6.012,12.329,11.359,18.795,16.005l-2.856-0.037c-27.691,0-51.868,9.406-64.806,23.39
		C139.323,341.072,163.5,350.482,191.189,350.477L191.189,350.477z M255.999,320.659c0.063,1.689,0.063,3.351,0,4.988
		C255.937,324.01,255.937,322.348,255.999,320.659z"/>
</g>
<g>
	<path style="fill:#000003;" d="M255.999,0.001C114.841,0.001,0,114.841,0,255.999s114.841,256,255.999,256
		c141.16,0,256.001-114.841,256.001-256S397.159,0.001,255.999,0.001z M255.999,490.662c-129.392,0-234.662-105.269-234.662-234.663
		S126.607,21.337,255.999,21.337c129.393,0,234.664,105.268,234.664,234.662C490.663,385.393,385.392,490.662,255.999,490.662z"/>
	<path style="fill:#000003;" d="M255.999,64.004c5.892,0,10.669-4.776,10.669-10.669s-4.776-10.669-10.669-10.669
		c-117.634,0-213.337,95.7-213.337,213.332c0,8.085,0.468,16.256,1.39,24.287c0.625,5.441,5.238,9.452,10.585,9.452
		c0.406,0,0.818-0.023,1.231-0.07c5.853-0.672,10.054-5.962,9.381-11.816c-0.829-7.226-1.25-14.579-1.25-21.853
		C63.999,150.133,150.131,64.004,255.999,64.004z"/>
	<path style="fill:#000003;" d="M467.944,231.713c-0.671-5.854-5.955-10.053-11.815-9.382c-5.854,0.671-10.055,5.962-9.383,11.816
		c0.827,7.216,1.248,14.568,1.248,21.853c0,105.868-86.129,191.998-191.995,191.998c-5.892,0-10.669,4.776-10.669,10.669
		s4.776,10.669,10.669,10.669c117.632,0,213.333-95.703,213.333-213.336C469.332,247.905,468.865,239.734,467.944,231.713z"/>
	<path style="fill:#000003;" d="M70.466,305.4c-1.537-5.689-7.401-9.061-13.087-7.52c-5.687,1.539-9.052,7.389-7.514,13.077
		l0.069,0.268c1.281,4.763,5.59,7.903,10.299,7.903c0.915,0,1.849-0.119,2.777-0.369c5.69-1.531,9.062-7.38,7.532-13.07
		L70.466,305.4z"/>
	<path style="fill:#000003;" d="M441.527,206.585c1.28,4.76,5.584,7.891,10.288,7.891c0.919,0,1.853-0.119,2.782-0.369
		c5.691-1.531,9.059-7.394,7.529-13.084l-0.068-0.261c-1.538-5.687-7.398-9.043-13.084-7.505c-5.686,1.539-9.049,7.404-7.51,13.092
		L441.527,206.585z"/>
	<path style="fill:#000003;" d="M245.33,388.55c0,5.892,4.776,10.669,10.669,10.669c5.892,0,10.669-4.776,10.669-10.669v-40.122
		c14.961,8.143,33.909,12.724,54.137,12.724c29.945,0,57.1-10.024,72.637-26.815c3.784-4.089,3.784-10.402,0.001-14.491
		c-11.321-12.236-28.817-20.872-49.064-24.661c26.751-26.792,42.056-59.91,40.941-88.611c-0.216-5.567-4.68-10.031-10.245-10.247
		c-0.955-0.037-1.917-0.055-2.886-0.055c-22.509,0-47.648,9.928-70.007,27.181c0.204-38.838-10.942-81.928-38.935-107.831
		c-4.089-3.783-10.401-3.785-14.491,0c-27.997,25.905-39.145,68.993-38.941,107.83c-22.359-17.251-47.497-27.179-70.005-27.179
		c-0.969,0-1.932,0.018-2.885,0.055c-5.567,0.217-10.03,4.68-10.246,10.247c-1.115,28.702,14.19,61.819,40.943,88.611
		c-20.248,3.788-37.745,12.425-49.065,24.661c-3.784,4.089-3.784,10.402,0,14.491c15.537,16.788,42.679,26.809,72.61,26.809
		c0.017,0,0.029,0,0.046,0c20.22,0,39.164-4.579,54.121-12.72v40.123H245.33z M320.805,339.813c-13.72,0-26.797-2.558-37.597-7.093
		c12.793-3.628,25.793-9.876,38.146-18.344c18.453,0.092,35.706,4.793,47.747,12.713
		C356.939,335.089,339.463,339.813,320.805,339.813z M329.199,280.188c-18.718,18.719-41.693,31.261-61.937,34.184
		c2.882-20.227,15.327-43.054,34.199-61.925c18.718-18.718,41.692-31.26,61.937-34.184
		C360.513,238.492,348.069,261.319,329.199,280.188z M255.999,139.048c22.208,27.447,27.885,72.022,23.404,105.714
		c-4.685,5.285-8.941,10.763-12.735,16.362v-18.09c0-5.892-4.776-10.669-10.669-10.669c-5.892,0-10.669,4.776-10.669,10.669v18.094
		c-3.795-5.601-8.054-11.081-12.74-16.368C228.109,211.072,233.787,166.498,255.999,139.048z M210.536,252.447
		c18.871,18.87,31.317,41.697,34.201,61.923c-20.246-2.922-43.221-15.464-61.939-34.183c-18.87-18.869-31.314-41.695-34.199-61.925
		C168.845,221.186,191.819,233.729,210.536,252.447z M191.206,339.809c-0.013,0-0.023,0-0.037,0
		c-18.647,0-36.116-4.722-48.272-12.718c12.04-7.919,29.293-12.621,47.747-12.713c12.353,8.468,25.352,14.715,38.144,18.343
		C217.992,337.251,204.92,339.809,191.206,339.809z"/>
	<path style="fill:#000003;" d="M255.995,223.059c5.892,0,10.669-4.776,10.669-10.669v-0.254c0-5.892-4.776-10.669-10.669-10.669
		s-10.669,4.776-10.669,10.669v0.254C245.326,218.282,250.102,223.059,255.995,223.059z"/>
</g>
</svg>