<?xml version="1.0" encoding="utf-8"?>
<!-- Uploaded to: SVG Repo, www.svgrepo.com, Generator: SVG Repo Mixer Tools -->
<svg fill="#000000" width="800px" height="800px" viewBox="0 0 32 32" version="1.1" xmlns="http://www.w3.org/2000/svg">
<title>myspace</title>
<path d="M25.736 17.425c-2.91 0.082-5.238 2.461-5.238 5.383 0 0.004 0 0.008 0 0.013v-0.001 1.843c0.001 0.263 0.214 0.475 0.477 0.475h9.522c0.263-0 0.476-0.213 0.478-0.475v-1.843c0-0.003 0-0.007 0-0.010 0-2.923-2.328-5.302-5.231-5.385l-0.008-0zM15.002 18.195c-2.621 0.074-4.717 2.217-4.717 4.849 0 0.002 0 0.005 0 0.007v-0 1.661c0.002 0.237 0.194 0.428 0.43 0.429h8.573c0.236-0.001 0.427-0.193 0.427-0.429 0 0 0-0 0-0v0-1.661c0-0.003 0-0.006 0-0.009 0-2.63-2.095-4.771-4.707-4.846l-0.007-0zM5.268 18.894c-2.357 0.064-4.243 1.99-4.243 4.356 0 0.002 0 0.004 0 0.005v-0 1.492c0 0.214 0.173 0.387 0.387 0.387h7.712c0.213-0.001 0.386-0.174 0.386-0.387v0-1.493c0-0.003 0-0.006 0-0.010 0-2.366-1.885-4.291-4.234-4.358l-0.006-0zM5.268 18.014c0.822-0.5 1.363-1.392 1.363-2.409 0-1.552-1.258-2.811-2.811-2.811s-2.811 1.258-2.811 2.811c0 1.552 1.258 2.811 2.811 2.811 0.532 0 1.030-0.148 1.454-0.405l-0.013 0.007zM15.002 17.222c-0.007-0.972-0.797-1.757-1.77-1.757-0.978 0-1.77 0.792-1.77 1.77s0.792 1.77 1.77 1.77c0.973 0 1.763-0.785 1.77-1.756v-0.001zM25.736 16.342c-0.008-1.080-0.885-1.952-1.965-1.952-1.085 0-1.965 0.88-1.965 1.965s0.88 1.965 1.965 1.965c1.081 0 1.958-0.872 1.965-1.951v-0.001z"></path>
</svg>