<?xml version="1.0" encoding="utf-8"?>
<!-- Uploaded to: SVG Repo, www.svgrepo.com, Generator: SVG Repo Mixer Tools -->
<svg fill="#000000" width="800px" height="800px" viewBox="0 0 32 32" version="1.1" xmlns="http://www.w3.org/2000/svg">
<title>onlyfans</title>
<path d="M16.165 17.236h0.038c0.007-0 0.016-0 0.025-0 0.95 0 1.721 0.77 1.721 1.721 0 0.726-0.449 1.347-1.085 1.599l-0.012 0.004h-0.107v1.445c0 0.001 0 0.002 0 0.003 0 0.221-0.115 0.416-0.288 0.527l-0.002 0.002h-0.639c-0.18-0.116-0.298-0.315-0.3-0.542v-1.434c-0.647-0.257-1.096-0.878-1.096-1.603 0-0.95 0.77-1.721 1.721-1.721 0.009 0 0.018 0 0.027 0l-0.001-0zM15.585 10.743h1.006c0.853 0.003 1.626 0.348 2.187 0.905l-0-0c0.561 0.546 0.91 1.308 0.912 2.151v0l0.004 1.262h-7.21v-1.262c0.002-0.844 0.351-1.606 0.912-2.151l0.001-0.001c0.562-0.557 1.334-0.903 2.188-0.906h0.001zM15.585 8.281c-0.001 0-0.002 0-0.004 0-1.54 0-2.936 0.62-3.951 1.624l0.001-0.001c-1.016 0.986-1.646 2.365-1.646 3.89 0 0.002 0 0.003 0 0.005v-0 1.223l-0.695 1.253v1.804c0.003 1.696 0.703 3.228 1.829 4.325l0.001 0.001c1.133 1.113 2.688 1.799 4.403 1.799 0.003 0 0.006 0 0.008 0h1.119c1.714-0 3.267-0.687 4.4-1.8l-0.001 0.001c1.129-1.097 1.831-2.63 1.833-4.326v-1.806l-0.687-1.253v-1.225c-0.002-1.527-0.633-2.906-1.648-3.893l-0.001-0.001c-1.014-1.003-2.41-1.623-3.95-1.623-0.002 0-0.004 0-0.006 0h0zM15.985 2.574c0.001 0 0.002 0 0.003 0 7.415 0 13.427 6.011 13.427 13.427s-6.011 13.427-13.427 13.427c-7.415 0-13.427-6.011-13.427-13.427 0-0.002 0-0.003 0-0.005v0c0-0.001 0-0.001 0-0.002 0-7.412 6.009-13.421 13.421-13.421 0.001 0 0.002 0 0.003 0h-0zM16 1.004c0 0 0 0-0 0-8.282 0-14.996 6.714-14.996 14.996s6.714 14.996 14.996 14.996c8.282 0 14.996-6.714 14.996-14.996v0c-0-8.282-6.714-14.995-14.996-14.996h-0z"></path>
</svg>