<?xml version="1.0" encoding="utf-8"?>
<!-- Uploaded to: SVG Repo, www.svgrepo.com, Generator: SVG Repo Mixer Tools -->
<svg fill="#000000" width="800px" height="800px" viewBox="0 0 32 32" version="1.1" xmlns="http://www.w3.org/2000/svg">
<title>openssl</title>
<path d="M27.609 12.763h1.021v4.183h2.366v0.852h-3.387zM24.957 17.912c-0.048 0.003-0.103 0.005-0.159 0.005-0.533 0-1.029-0.164-1.438-0.444l0.009 0.006c-0.359-0.284-0.588-0.72-0.588-1.209 0-0.009 0-0.019 0-0.028l-0 0.001h1c0.011 0.262 0.134 0.494 0.322 0.65l0.001 0.001c0.203 0.124 0.449 0.197 0.713 0.197 0.034 0 0.068-0.001 0.102-0.004l-0.005 0c0.003 0 0.008 0 0.012 0 0.128 0 0.253-0.013 0.374-0.037l-0.012 0.002c0.117-0.022 0.22-0.061 0.315-0.115l-0.005 0.003c0.088-0.050 0.16-0.118 0.213-0.199l0.001-0.002c0.051-0.081 0.081-0.179 0.081-0.285 0-0.005-0-0.011-0-0.016l0 0.001c0-0.005 0-0.012 0-0.018 0-0.106-0.033-0.205-0.089-0.286l0.001 0.002c-0.066-0.085-0.15-0.153-0.246-0.199l-0.004-0.002c-0.111-0.055-0.241-0.103-0.377-0.138l-0.014-0.003q-0.229-0.060-0.517-0.124-0.337-0.077-0.651-0.172c-0.209-0.062-0.392-0.15-0.557-0.262l0.007 0.004c-0.157-0.108-0.284-0.247-0.377-0.409l-0.003-0.006c-0.092-0.173-0.146-0.379-0.146-0.597 0-0.018 0-0.035 0.001-0.052l-0 0.002c-0-0.010-0-0.022-0-0.033 0-0.226 0.054-0.44 0.149-0.63l-0.004 0.008c0.098-0.19 0.234-0.348 0.398-0.47l0.004-0.003c0.173-0.126 0.376-0.225 0.596-0.282l0.013-0.003c0.223-0.060 0.479-0.095 0.743-0.095 0.011 0 0.022 0 0.033 0h-0.002c0.032-0.002 0.069-0.003 0.107-0.003 0.474 0 0.912 0.151 1.269 0.408l-0.006-0.004c0.343 0.278 0.564 0.697 0.574 1.167l0 0.002h-0.978c-0.014-0.234-0.132-0.438-0.308-0.568l-0.002-0.001c-0.175-0.119-0.391-0.191-0.624-0.191-0.013 0-0.027 0-0.040 0.001l0.002-0c-0.018-0.001-0.039-0.002-0.060-0.002-0.222 0-0.43 0.061-0.607 0.167l0.005-0.003c-0.148 0.086-0.246 0.245-0.246 0.426 0 0.001 0 0.003 0 0.004v-0c-0 0.005-0 0.011-0 0.017 0 0.089 0.025 0.172 0.069 0.242l-0.001-0.002c0.053 0.075 0.121 0.136 0.201 0.178l0.003 0.002c0.098 0.054 0.211 0.1 0.33 0.131l0.011 0.002c0.136 0.037 0.297 0.077 0.486 0.12q0.388 0.084 0.729 0.186c0.228 0.067 0.426 0.159 0.608 0.277l-0.009-0.005c0.168 0.11 0.304 0.254 0.402 0.424l0.003 0.006c0.094 0.179 0.149 0.39 0.149 0.614 0 0.019-0 0.038-0.001 0.057l0-0.003c0 0.008 0 0.018 0 0.028 0 0.237-0.055 0.461-0.152 0.661l0.004-0.009c-0.099 0.2-0.237 0.367-0.405 0.497l-0.003 0.002c-0.176 0.134-0.383 0.239-0.607 0.303l-0.013 0.003c-0.228 0.068-0.49 0.106-0.76 0.106-0.007 0-0.014-0-0.022-0h0.001zM20.26 17.912c-0.048 0.003-0.103 0.005-0.159 0.005-0.533 0-1.029-0.164-1.438-0.444l0.009 0.006c-0.359-0.284-0.588-0.72-0.588-1.21 0-0.009 0-0.019 0-0.028l-0 0.001h1c0.011 0.262 0.134 0.494 0.322 0.65l0.001 0.001c0.203 0.124 0.449 0.197 0.713 0.197 0.034 0 0.068-0.001 0.102-0.004l-0.005 0c0.003 0 0.008 0 0.012 0 0.128 0 0.253-0.013 0.374-0.037l-0.012 0.002c0.117-0.022 0.22-0.061 0.315-0.115l-0.005 0.003c0.088-0.050 0.16-0.118 0.213-0.199l0.001-0.002c0.051-0.081 0.081-0.179 0.081-0.285 0-0.005-0-0.011-0-0.016l0 0.001c0-0.005 0-0.012 0-0.018 0-0.106-0.033-0.205-0.089-0.286l0.001 0.002c-0.066-0.085-0.15-0.153-0.246-0.199l-0.004-0.002c-0.111-0.055-0.241-0.103-0.377-0.138l-0.014-0.003q-0.229-0.060-0.517-0.124-0.337-0.077-0.651-0.172c-0.209-0.062-0.392-0.15-0.557-0.262l0.007 0.004c-0.157-0.108-0.284-0.247-0.377-0.409l-0.003-0.006c-0.092-0.173-0.146-0.379-0.146-0.597 0-0.018 0-0.035 0.001-0.052l-0 0.002c-0-0.010-0-0.022-0-0.033 0-0.226 0.054-0.44 0.149-0.63l-0.004 0.008c0.098-0.19 0.234-0.348 0.398-0.47l0.004-0.003c0.173-0.126 0.376-0.224 0.596-0.282l0.013-0.003c0.223-0.060 0.479-0.095 0.743-0.095 0.011 0 0.022 0 0.033 0h-0.002c0.032-0.002 0.069-0.003 0.107-0.003 0.474 0 0.912 0.151 1.269 0.408l-0.006-0.004c0.343 0.278 0.564 0.697 0.574 1.167l0 0.002h-0.978c-0.014-0.234-0.132-0.438-0.308-0.568l-0.002-0.001c-0.175-0.119-0.391-0.191-0.624-0.191-0.013 0-0.027 0-0.040 0.001l0.002-0c-0.018-0.001-0.039-0.002-0.060-0.002-0.222 0-0.43 0.061-0.607 0.167l0.005-0.003c-0.148 0.086-0.246 0.245-0.246 0.426 0 0.001 0 0.003 0 0.004v-0c-0 0.005-0 0.011-0 0.017 0 0.089 0.025 0.172 0.069 0.242l-0.001-0.002c0.053 0.075 0.121 0.136 0.201 0.178l0.003 0.002c0.098 0.054 0.211 0.1 0.33 0.131l0.011 0.002c0.136 0.037 0.297 0.077 0.486 0.12q0.388 0.084 0.729 0.186c0.228 0.067 0.426 0.159 0.608 0.277l-0.009-0.005c0.168 0.11 0.304 0.254 0.402 0.424l0.003 0.006c0.094 0.179 0.149 0.39 0.149 0.614 0 0.019-0 0.038-0.001 0.057l0-0.003c0 0.008 0 0.018 0 0.028 0 0.237-0.055 0.461-0.152 0.661l0.004-0.009c-0.099 0.2-0.237 0.367-0.405 0.497l-0.003 0.002c-0.176 0.134-0.383 0.239-0.607 0.303l-0.013 0.003c-0.227 0.067-0.489 0.106-0.759 0.106-0.008 0-0.015-0-0.023-0h0.001zM14.9 14.665h0.014c0.127-0.168 0.284-0.305 0.465-0.406l0.008-0.004c0.184-0.095 0.402-0.151 0.633-0.151 0.015 0 0.030 0 0.045 0.001l-0.002-0c0.022-0.001 0.048-0.002 0.074-0.002 0.313 0 0.599 0.113 0.82 0.301l-0.002-0.002c0.203 0.201 0.329 0.481 0.329 0.789 0 0.027-0.001 0.053-0.003 0.079l0-0.004v2.542h-0.567v-2.493c0.001-0.013 0.001-0.029 0.001-0.045 0-0.198-0.084-0.376-0.219-0.501l-0-0c-0.149-0.119-0.34-0.19-0.548-0.19-0.019 0-0.038 0.001-0.056 0.002l0.003-0c-0.003-0-0.007-0-0.011-0-0.14 0-0.273 0.027-0.395 0.076l0.007-0.003c-0.122 0.049-0.227 0.118-0.315 0.204l0-0c-0.088 0.087-0.158 0.192-0.204 0.309l-0.002 0.006c-0.047 0.118-0.074 0.255-0.074 0.398 0 0.004 0 0.009 0 0.013v-0.001 2.227h-0.567v-3.62h0.567zM12.012 14.547c-0.006-0-0.013-0-0.021-0-0.155 0-0.302 0.032-0.435 0.090l0.007-0.003c-0.131 0.059-0.242 0.142-0.331 0.244l-0.001 0.001c-0.091 0.106-0.167 0.229-0.221 0.362l-0.003 0.009c-0.057 0.134-0.097 0.289-0.114 0.451l-0.001 0.007h2.178c0-0.001 0-0.002 0-0.003 0-0.323-0.112-0.62-0.3-0.855l0.002 0.003c-0.176-0.19-0.428-0.309-0.707-0.309-0.019 0-0.038 0.001-0.057 0.002l0.003-0zM12.047 17.907c-0.009 0-0.019 0-0.029 0-0.257 0-0.501-0.055-0.72-0.155l0.011 0.004c-0.217-0.1-0.4-0.238-0.548-0.408l-0.002-0.002c-0.147-0.171-0.264-0.372-0.34-0.593l-0.004-0.013c-0.075-0.215-0.119-0.462-0.119-0.72 0-0.006 0-0.013 0-0.019v0.001c-0-0.004-0-0.008-0-0.012 0-0.26 0.045-0.51 0.127-0.742l-0.005 0.015c0.082-0.234 0.201-0.435 0.352-0.608l-0.002 0.002c0.149-0.169 0.329-0.307 0.532-0.406l0.010-0.004c0.199-0.095 0.432-0.15 0.678-0.15 0.008 0 0.015 0 0.022 0h-0.001c0.010-0 0.021-0 0.033-0 0.248 0 0.483 0.055 0.694 0.155l-0.010-0.004c0.209 0.101 0.383 0.243 0.519 0.417l0.002 0.003c0.14 0.183 0.25 0.398 0.315 0.631l0.003 0.013c0.069 0.238 0.109 0.511 0.109 0.793 0 0.010-0 0.021-0 0.031v-0.002h-2.799c0.009 0.186 0.044 0.36 0.101 0.524l-0.004-0.013c0.055 0.159 0.134 0.296 0.233 0.416l-0.002-0.002c0.097 0.114 0.216 0.207 0.351 0.271l0.006 0.003c0.136 0.062 0.294 0.098 0.461 0.098 0.008 0 0.016-0 0.024-0l-0.001 0c0.014 0.001 0.031 0.001 0.049 0.001 0.225 0 0.434-0.070 0.606-0.188l-0.004 0.002c0.174-0.137 0.299-0.329 0.349-0.55l0.001-0.006h0.554c-0.066 0.367-0.258 0.681-0.53 0.901l-0.003 0.002c-0.266 0.197-0.6 0.315-0.962 0.315-0.021 0-0.042-0-0.063-0.001l0.003 0zM8.252 17.438c0.006 0 0.013 0 0.020 0 0.159 0 0.309-0.040 0.439-0.111l-0.005 0.002c0.132-0.074 0.242-0.174 0.324-0.294l0.002-0.003c0.086-0.128 0.153-0.278 0.191-0.439l0.002-0.009c0.040-0.163 0.063-0.349 0.063-0.541 0-0.009-0-0.018-0-0.027v0.001c0-0.004 0-0.009 0-0.014 0-0.195-0.023-0.385-0.066-0.566l0.003 0.017c-0.040-0.172-0.106-0.325-0.196-0.46l0.003 0.005c-0.083-0.125-0.191-0.226-0.318-0.299l-0.005-0.002c-0.124-0.069-0.272-0.109-0.43-0.109-0.007 0-0.015 0-0.022 0l0.001-0c-0.007-0-0.016-0-0.025-0-0.178 0-0.347 0.042-0.496 0.116l0.007-0.003c-0.146 0.074-0.268 0.179-0.359 0.306l-0.002 0.003c-0.092 0.13-0.165 0.282-0.208 0.445l-0.002 0.010c-0.044 0.163-0.070 0.349-0.070 0.542 0 0.004 0 0.008 0 0.012v-0.001c-0 0.004-0 0.008-0 0.012 0 0.192 0.023 0.379 0.066 0.558l-0.003-0.016c0.040 0.172 0.109 0.323 0.203 0.455l-0.003-0.004c0.092 0.128 0.21 0.231 0.348 0.302l0.005 0.003c0.146 0.070 0.317 0.112 0.498 0.112 0.012 0 0.024-0 0.037-0.001l-0.002 0zM6.571 14.189h0.567v0.511h0.014c0.128-0.179 0.29-0.326 0.476-0.434l0.007-0.004c0.185-0.1 0.405-0.158 0.638-0.158 0.015 0 0.029 0 0.044 0.001l-0.002-0c0.005-0 0.010-0 0.016-0 0.222 0 0.433 0.048 0.624 0.134l-0.010-0.004c0.195 0.088 0.358 0.214 0.488 0.369l0.002 0.002c0.138 0.169 0.247 0.369 0.315 0.586l0.003 0.013c0.073 0.229 0.115 0.492 0.115 0.765 0 0.014-0 0.028-0 0.042l0-0.002c0 0.010 0 0.022 0 0.033 0 0.269-0.040 0.528-0.114 0.773l0.005-0.019c-0.069 0.231-0.175 0.432-0.314 0.606l0.003-0.004c-0.132 0.162-0.299 0.291-0.489 0.378l-0.008 0.003c-0.187 0.084-0.405 0.133-0.634 0.133-0.009 0-0.017-0-0.026-0l0.001 0c-0.011 0-0.023 0-0.035 0-0.22 0-0.429-0.044-0.62-0.123l0.011 0.004c-0.202-0.096-0.37-0.237-0.495-0.41l-0.003-0.004h-0.013v1.946h-0.567zM3.455 17.361c0.011 0 0.024 0 0.037 0 0.268 0 0.523-0.058 0.751-0.162l-0.011 0.005c0.224-0.105 0.414-0.25 0.565-0.429l0.002-0.002c0.153-0.183 0.272-0.4 0.343-0.638l0.003-0.013c0.073-0.237 0.115-0.509 0.115-0.791 0-0.010-0-0.020-0-0.030v0.002c0-0.006 0-0.014 0-0.022 0-0.284-0.042-0.559-0.12-0.818l0.005 0.020c-0.076-0.252-0.194-0.47-0.349-0.658l0.003 0.003c-0.153-0.182-0.342-0.329-0.557-0.429l-0.010-0.004c-0.217-0.099-0.47-0.157-0.737-0.157-0.014 0-0.029 0-0.043 0.001l0.002-0c-0.011-0-0.024-0-0.037-0-0.268 0-0.522 0.058-0.751 0.162l0.011-0.005c-0.225 0.105-0.414 0.252-0.565 0.431l-0.002 0.002c-0.153 0.184-0.271 0.403-0.343 0.642l-0.003 0.013c-0.073 0.237-0.115 0.509-0.115 0.791 0 0.010 0 0.020 0 0.030v-0.002c-0 0.006-0 0.014-0 0.022 0 0.284 0.042 0.559 0.12 0.818l-0.005-0.020c0.075 0.251 0.194 0.468 0.349 0.654l-0.002-0.003c0.154 0.181 0.343 0.326 0.557 0.427l0.010 0.004c0.218 0.099 0.473 0.157 0.742 0.157 0.012 0 0.025-0 0.037-0l-0.002 0zM3.455 17.914c-0.012 0-0.026 0-0.041 0-0.354 0-0.692-0.072-0.998-0.203l0.017 0.006c-0.303-0.13-0.56-0.315-0.768-0.544l-0.002-0.002c-0.208-0.233-0.373-0.509-0.481-0.813l-0.005-0.017c-0.109-0.311-0.172-0.669-0.172-1.042 0-0.371 0.063-0.728 0.178-1.061l-0.007 0.023c0.113-0.321 0.278-0.597 0.488-0.832l-0.002 0.002c0.211-0.232 0.468-0.417 0.757-0.542l0.014-0.005c0.29-0.124 0.628-0.197 0.982-0.197 0.014 0 0.028 0 0.042 0l-0.002-0c0.012-0 0.026-0 0.041-0 0.354 0 0.692 0.072 0.998 0.203l-0.017-0.006c0.303 0.13 0.56 0.315 0.768 0.544l0.002 0.002c0.208 0.233 0.373 0.509 0.481 0.813l0.005 0.017c0.109 0.31 0.171 0.668 0.171 1.040s-0.063 0.73-0.178 1.062l0.007-0.023c-0.113 0.321-0.279 0.597-0.488 0.832l0.002-0.003c-0.21 0.232-0.467 0.416-0.756 0.541l-0.014 0.005c-0.291 0.125-0.629 0.198-0.985 0.198-0.013 0-0.026-0-0.040-0l0.002 0z"></path>
</svg>