<?xml version="1.0" encoding="utf-8"?>
<!-- Uploaded to: SVG Repo, www.svgrepo.com, Generator: SVG Repo Mixer Tools -->
<svg width="800px" height="800px" viewBox="0 0 1024 1024" class="icon"  version="1.1" xmlns="http://www.w3.org/2000/svg"><path d="M188.050286 0h611.328c74.971429 0 135.826286 60.781714 135.826285 135.826286v679.204571A135.826286 135.826286 0 0 1 799.378286 950.857143H187.977143a135.826286 135.826286 0 0 1-135.826286-135.826286V135.826286C52.224 60.781714 113.078857 0 188.050286 0z m4.242285 63.488c-42.496 0-77.019429 34.523429-77.019428 77.019429v669.842285c0 42.496 34.523429 77.019429 77.019428 77.019429h602.843429c42.496 0 77.019429-34.523429 77.019429-77.019429V140.434286c0-42.496-34.523429-77.019429-77.019429-77.019429H192.292571z m212.406858 173.641143h281.892571a28.891429 28.891429 0 1 1 0 57.782857H404.699429a28.891429 28.891429 0 1 1 0-57.782857z m0 205.531428h281.892571a28.891429 28.891429 0 0 1 0 57.782858H404.699429a28.891429 28.891429 0 1 1 0-57.782858z m0 203.117715h281.892571a28.891429 28.891429 0 1 1 0 57.782857H404.699429a28.891429 28.891429 0 1 1 0-57.782857zM288.109714 294.838857a28.891429 28.891429 0 1 1 0-57.709714 28.891429 28.891429 0 0 1 0 57.782857z m0 205.531429a28.891429 28.891429 0 1 1 0-57.709715 28.891429 28.891429 0 0 1 0 57.782858z m0 203.190857a28.891429 28.891429 0 1 1 0-57.782857 28.891429 28.891429 0 0 1 0 57.782857z" fill="#000000" /></svg>