<?xml version="1.0" encoding="utf-8"?>
<!-- Uploaded to: SVG Repo, www.svgrepo.com, Generator: SVG Repo Mixer Tools -->
<svg width="800px" height="800px" viewBox="0 0 1024 1024" class="icon"  version="1.1" xmlns="http://www.w3.org/2000/svg"><path d="M67.949714 370.102857A40.813714 40.813714 0 0 0 62.171429 445.44l305.590857 152.868571-2.779429 193.389715a41.252571 41.252571 0 0 0 58.733714 37.522285l195.072-91.428571 313.563429 148.333714a41.398857 41.398857 0 0 0 38.838857-1.755428 40.813714 40.813714 0 0 0 19.968-33.133715l22.674286-747.666285a40.667429 40.667429 0 0 0-16.091429-34.523429 41.398857 41.398857 0 0 0-37.814857-6.290286m-32.109714 756.809143L638.537143 679.570286a40.009143 40.009143 0 0 0-34.084572 0l-171.446857 83.821714 3.218286-177.005714a39.497143 39.497143 0 0 0-21.869714-35.693715L134.290286 417.28l815.542857-281.234286-21.942857 683.52zM595.163429 577.316571l269.531428-269.385142c10.752-10.605714 10.752-32.329143 0-43.008a28.306286 28.306286 0 0 0-39.350857 0L551.643429 535.771429a29.257143 29.257143 0 0 0 0 40.009142c14.848 15.945143 38.180571 6.875429 43.52 1.536z" fill="#000000" /></svg>