<?xml version="1.0" encoding="utf-8"?>
<!-- Uploaded to: SVG Repo, www.svgrepo.com, Generator: SVG Repo Mixer Tools -->
<svg fill="#000000" width="800px" height="800px" viewBox="0 0 32 32" version="1.1" xmlns="http://www.w3.org/2000/svg">
<title>pastebin</title>
<path d="M11.812 22.352l-1.505 1.106 0.234 0.65 0.655-0.396 1.003 2.792-0.871 0.312c0.056 0.181 0.27 0.802 0.297 0.83l2.707-0.974-0.297-0.828-0.858 0.31zM16.205 21.582c0.275 0.013 0.515 0.147 0.673 0.348l0.002 0.002c0.229 0.279 0.415 0.605 0.539 0.96l0.007 0.022c0.437 1.247 0.205 2.109-0.519 1.932-0.75-0.175-1.555-2.589-1.043-3.105 0.086-0.092 0.206-0.151 0.34-0.159l0.001-0zM16.444 20.742c-0.001 0-0.002 0-0.003 0-0.369 0-0.713 0.104-1.006 0.283l0.008-0.005c-0.913 0.56-1.062 1.727-0.415 3.197 0.248 0.821 0.956 1.425 1.818 1.517l0.009 0.001c1.681-0.009 2.324-1.748 1.357-3.686-0.285-0.732-0.96-1.252-1.763-1.307l-0.006-0zM20.915 19.080l-1.502 1.106 0.234 0.65 0.653-0.396 1.003 2.793-0.87 0.312c0.056 0.18 0.27 0.801 0.297 0.829l2.707-0.973-0.297-0.827-0.858 0.309-1.366-3.801zM28.95 17.236c0.042 0 0.061 0.059 0.080 0.169-0.024 0.435-0.111 0.843-0.253 1.225l0.009-0.029c-1.016 2.578-2.312 4.805-3.891 6.798l0.042-0.055-0.509 0.587 0.062-0.834c0.004-0.068 0.006-0.148 0.006-0.229 0-0.698-0.176-1.356-0.487-1.93l0.011 0.021c-0.62-1.578-0.666-2.162-0.197-2.887 0.788-0.863 1.838-1.474 3.024-1.706l0.035-0.006c0.661-0.175 1.239-0.461 1.744-0.839l-0.013 0.009c0.088-0.116 0.192-0.214 0.311-0.291l0.005-0.003 0.019-0.004zM9.376 15.574l-1.503 1.105 0.234 0.65 0.655-0.395 1.002 2.79-0.87 0.312c0.056 0.181 0.27 0.801 0.297 0.828l2.707-0.972-0.297-0.829-0.859 0.309zM13.768 14.804c0.274 0.012 0.515 0.145 0.673 0.345l0.001 0.002c0.23 0.279 0.416 0.606 0.539 0.961l0.007 0.022c0.437 1.248 0.205 2.111-0.517 1.933-0.751-0.176-1.555-2.589-1.043-3.105 0.086-0.091 0.206-0.151 0.339-0.159l0.001-0zM14.008 13.964c-0.003 0-0.006-0-0.009-0-0.366 0-0.709 0.104-0.999 0.283l0.008-0.005c-0.915 0.56-1.062 1.727-0.415 3.195 0.248 0.821 0.956 1.426 1.818 1.518l0.009 0.001c1.681-0.009 2.324-1.747 1.356-3.686-0.285-0.731-0.96-1.251-1.762-1.306l-0.006-0zM18.689 13.035c0.274 0.015 0.514 0.148 0.672 0.348l0.001 0.002c0.23 0.279 0.416 0.606 0.539 0.961l0.007 0.022c0.437 1.247 0.205 2.109-0.519 1.933-0.75-0.177-1.555-2.589-1.043-3.105 0.086-0.092 0.206-0.152 0.34-0.16l0.001-0zM18.927 12.197c-0.002 0-0.005 0-0.007 0-0.367 0-0.71 0.103-1.001 0.282l0.008-0.005c-0.912 0.56-1.060 1.728-0.414 3.197 0.248 0.821 0.956 1.425 1.818 1.518l0.009 0.001c1.68-0.009 2.324-1.747 1.356-3.686-0.285-0.732-0.96-1.251-1.763-1.306l-0.006-0zM23.633 11.26c0.274 0.013 0.514 0.145 0.672 0.345l0.001 0.002c0.23 0.279 0.416 0.606 0.539 0.961l0.007 0.022c0.437 1.248 0.205 2.111-0.517 1.933-0.751-0.176-1.555-2.589-1.043-3.105 0.087-0.092 0.206-0.151 0.34-0.159l0.001-0zM23.871 10.42c-0.002 0-0.004 0-0.006 0-0.367 0-0.711 0.104-1.002 0.283l0.008-0.005c-0.915 0.56-1.062 1.727-0.415 3.197 0.248 0.821 0.956 1.425 1.818 1.518l0.009 0.001c1.681-0.009 2.324-1.749 1.356-3.686-0.285-0.731-0.959-1.251-1.762-1.307l-0.006-0zM7.174 9.602c0.274 0.013 0.515 0.145 0.673 0.345l0.001 0.002c0.23 0.279 0.416 0.606 0.539 0.961l0.007 0.022c0.437 1.248 0.205 2.111-0.519 1.933-0.75-0.176-1.553-2.589-1.042-3.105 0.086-0.091 0.205-0.151 0.339-0.159l0.001-0zM7.414 8.762c-0.002 0-0.004 0-0.006 0-0.367 0-0.711 0.104-1.002 0.283l0.008-0.005c-0.915 0.56-1.062 1.727-0.415 3.195 0.248 0.821 0.956 1.426 1.818 1.518l0.009 0.001c1.68-0.009 2.324-1.747 1.356-3.686-0.285-0.731-0.959-1.251-1.762-1.306l-0.006-0zM12.119 7.825c0.274 0.013 0.515 0.146 0.672 0.347l0.002 0.002c0.23 0.279 0.416 0.606 0.539 0.961l0.007 0.022c0.437 1.247 0.205 2.109-0.517 1.932-0.751-0.175-1.557-2.587-1.045-3.105 0.086-0.092 0.206-0.151 0.34-0.159l0.001-0zM12.357 6.985c-0.002 0-0.004 0-0.006 0-0.367 0-0.711 0.104-1.002 0.283l0.008-0.005c-0.915 0.56-1.062 1.728-0.415 3.197 0.248 0.821 0.956 1.425 1.818 1.518l0.009 0.001c1.681-0.009 2.324-1.749 1.356-3.686-0.285-0.731-0.959-1.251-1.762-1.307l-0.006-0zM16.762 5.293l-1.503 1.106 0.232 0.649 0.655-0.395 1.003 2.793-0.871 0.312c0.057 0.18 0.27 0.8 0.297 0.829l2.708-0.972-0.297-0.829-0.858 0.309zM20.874 3.816l-1.503 1.106 0.234 0.649 0.654-0.395 1.003 2.793-0.87 0.311c0.056 0.181 0.27 0.802 0.297 0.83l2.707-0.975-0.297-0.827-0.858 0.31zM22.169 1.522c0.027-0.001 0.058-0.002 0.089-0.002 0.91 0 1.684 0.578 1.977 1.387l0.005 0.015 4.599 12.943c0.003 0.038 0.004 0.082 0.004 0.126 0 0.669-0.369 1.252-0.915 1.556l-0.009 0.005c-0.379 0.176-0.852 0.358-1.337 0.512l-0.090 0.025c-1.265 0.251-2.336 0.949-3.062 1.92l-0.009 0.013c-0.454 0.739-0.394 1.475 0.2 2.97 0.577 1.427 0.666 2.329 0.281 2.999-0.141 0.235-0.376 0.402-1.692 0.916l-0.003-0.006-9.68 3.455c-0.213 0.079-0.459 0.126-0.715 0.126-0.91 0-1.684-0.579-1.976-1.388l-0.005-0.015-6.653-18.638c-0.079-0.213-0.126-0.459-0.126-0.715 0-0.91 0.579-1.684 1.388-1.976l0.015-0.005 17.089-6.098c0.185-0.069 0.398-0.114 0.62-0.124l0.004-0zM22.273 1.004c-0.005-0-0.012-0-0.018-0-0.317 0-0.621 0.056-0.902 0.16l0.018-0.006-17.088 6.098c-1.026 0.372-1.746 1.338-1.746 2.473 0 0.317 0.056 0.622 0.16 0.903l-0.006-0.018 6.653 18.638c0.374 1.024 1.339 1.742 2.473 1.742 0.317 0 0.62-0.056 0.901-0.159l-0.018 0.006 9.68-3.455c0.99-0.384 1.681-0.667 1.829-0.76 0.679-0.392 1.202-1.021 2.454-2.917 1.043-1.539 1.93-3.309 2.574-5.191l0.047-0.158c0.3-1.212 0.299-1.849-0.627-4.591l-3.931-11.022c-0.371-1.018-1.326-1.735-2.451-1.744h-0.001z"></path>
</svg>