<?xml version="1.0" encoding="utf-8"?>
<!-- Uploaded to: SVG Repo, www.svgrepo.com, Generator: SVG Repo Mixer Tools -->
<svg width="800px" height="800px" viewBox="0 0 1024 1024" class="icon"  version="1.1" xmlns="http://www.w3.org/2000/svg"><path d="M338.358857 510.317714a124.635429 124.635429 0 0 0-115.2 95.085715c-2.779429 11.044571-15.067429 15.798857-25.746286 14.116571-11.629714-1.828571-17.554286-17.188571-13.165714-30.354286 15.579429-47.616 47.323429-84.114286 88.795429-103.862857a112.932571 112.932571 0 0 1 70.948571-200.996571c62.464 0 113.152 50.761143 113.152 113.078857 0 34.523429-15.579429 65.462857-40.009143 86.308571 42.715429 19.090286 75.190857 56.027429 92.672 103.643429 4.827429 13.165714 1.682286 26.258286-9.289143 32.182857a23.332571 23.332571 0 0 1-30.500571-16.091429c-14.628571-56.173714-59.977143-91.209143-117.394286-93.257142a114.029714 114.029714 0 0 1-14.262857 0.146285z m586.313143 134.070857V537.453714c0-16.384 15.067429-29.403429 32.548571-29.403428a29.257143 29.257143 0 0 1 30.208 29.403428v133.193143a109.714286 109.714286 0 0 1-109.714285 109.714286H172.690286c-75.044571 0-136.118857-55.588571-136.118857-124.342857V170.569143A109.714286 109.714286 0 0 1 146.285714 60.854857L851.236571 60.708571c75.117714 0 136.192 55.588571 136.192 124.416l-0.146285 213.577143c-0.512 15.872-13.165714 27.282286-30.061715 27.282286-17.042286 0-31.963429-11.410286-32.548571-27.428571l-0.219429-213.430858c0-36.132571-32.914286-61.366857-73.142857-61.366857H172.617143a73.142857 73.142857 0 0 0-73.142857 73.142857V656.091429c0 36.059429 32.914286 61.513143 73.142857 61.513142h678.838857a73.142857 73.142857 0 0 0 73.142857-73.142857zM344.064 333.750857a63.707429 63.707429 0 0 0 0 127.268572 63.707429 63.707429 0 0 0 0-127.268572z m440.32 283.209143H618.057143c-19.529143 0-35.84-12.434286-35.84-28.525714s16.310857-28.452571 35.84-28.452572h166.180571c19.602286 0 35.84 12.361143 35.84 28.525715 0 16.091429-16.310857 28.452571-35.84 28.452571z m0-275.748571H618.057143c-19.529143 0-35.84-12.361143-35.84-28.452572s16.310857-28.452571 35.84-28.452571h166.180571c19.602286 0 35.84 12.361143 35.84 28.525714 0 16.091429-16.310857 28.379429-35.84 28.379429z m0 126.537142H618.057143c-19.529143 0-35.84-12.288-35.84-28.452571 0-16.091429 16.310857-28.452571 35.84-28.452571h166.180571c19.529143 0 35.84 12.361143 35.84 28.525714 0 16.091429-16.237714 28.379429-35.84 28.379428z" fill="#000000" /></svg>