<?xml version="1.0" encoding="utf-8"?>
<!-- Uploaded to: SVG Repo, www.svgrepo.com, Generator: SVG Repo Mixer Tools -->
<svg width="800px" height="800px" viewBox="0 0 1024 1024" class="icon"  version="1.1" xmlns="http://www.w3.org/2000/svg"><path d="M998.936064 240.238415L521.756297 4.775434a19.34316 19.34316 0 0 0-25.451526 0L19.125004 240.238415c-12.798482 0-19.125004 12.725763-19.125004 25.451527s6.326522 25.451527 19.125004 25.451526l477.179767 235.390263c6.399241 0 6.399241 6.399241 12.725763 6.399241s6.326522 0 12.725763-6.399241l375.37366-184.487209v267.24103c0 19.052286 12.798482 31.778049 31.850768 31.778049 19.125004 0 31.778049-12.725763 31.778049-31.778049V310.193754l38.17729-19.052286c12.798482 0 19.125004-12.725763 19.125004-25.451526s-6.326522-25.451527-19.125004-25.451527zM509.030534 462.902914L101.806107 265.689942 509.030534 68.40425l407.224427 197.285692L509.030534 462.902914z m279.966794-28.869303c19.052286 0 31.850768 12.725763 31.850767 31.778049v293.274306c0 6.326522-6.399241 19.052286-19.125004 25.451527A706.970693 706.970693 0 0 1 509.030534 848.16631c-108.132629 0-210.011455-19.125004-292.692557-63.628817-12.725763 0-19.125004-12.725763-19.125004-25.451527V465.81166c0-19.052286 12.798482-31.778049 31.850767-31.778049 19.125004 0 31.778049 12.725763 31.778049 31.778049v274.149302c140.056116 63.628817 356.321374 63.628817 496.37749 0v-274.149302c0-19.052286 12.653045-31.778049 31.778049-31.778049z" fill="#000000" /></svg>