<?xml version="1.0" encoding="utf-8"?>
<!-- Uploaded to: SVG Repo, www.svgrepo.com, Generator: SVG Repo Mixer Tools -->
<svg width="800px" height="800px" viewBox="0 0 1024 1024" class="icon"  version="1.1" xmlns="http://www.w3.org/2000/svg"><path d="M162.889143 102.838857h-4.973714c-42.422857 0-76.8 34.377143-76.8 76.8v628.150857c0 42.422857 34.377143 76.8 76.8 76.8h635.026285c42.422857 0 76.8-34.377143 76.8-76.8V179.638857c0-42.422857-34.377143-76.8-76.8-76.8h-8.850285V404.48c0 55.954286-45.348571 101.229714-101.229715 101.229714H264.118857c-55.954286 0-101.229714-45.348571-101.229714-101.229714V102.838857z m62.829714 0V404.48c0 21.211429 17.188571 38.4 38.4 38.4h418.742857c21.211429 0 38.4-17.188571 38.4-38.4V102.838857H225.718857zM157.915429 40.009143h635.026285c77.092571 0 139.629714 62.537143 139.629715 139.629714v628.150857a139.629714 139.629714 0 0 1-139.629715 139.629715H157.988571A139.629714 139.629714 0 0 1 18.285714 807.789714V179.638857c0-77.092571 62.464-139.629714 139.629715-139.629714z m420.278857 114.468571c19.236571 0 34.889143 15.579429 34.889143 34.889143V365.714286a34.889143 34.889143 0 1 1-69.778286 0V189.44c0-19.309714 15.579429-34.889143 34.889143-34.889143z" fill="#000000" /></svg>