<?xml version="1.0" encoding="utf-8"?>
<!-- Uploaded to: SVG Repo, www.svgrepo.com, Generator: SVG Repo Mixer Tools -->
<svg width="800px" height="800px" viewBox="0 0 1024 1024" class="icon"  version="1.1" xmlns="http://www.w3.org/2000/svg"><path d="M880.201143 36.717714a89.234286 89.234286 0 0 1 88.941714 88.868572v81.846857a89.234286 89.234286 0 0 1-88.941714 88.941714H143.798857A89.234286 89.234286 0 0 1 54.857143 207.433143V125.586286A89.234286 89.234286 0 0 1 143.798857 36.717714h736.402286z m28.891428 88.868572c0-7.826286-5.339429-14.848-14.701714-20.918857-6.144-3.876571-12.361143-6.509714-14.189714-7.314286H143.798857a28.233143 28.233143 0 0 0-28.745143 28.233143v84.114285c0 16.676571 9.654857 26.624 28.745143 26.624h736.402286c20.626286 0 28.891429-8.338286 28.891428-28.891428V125.586286z m-28.891428 565.467428a89.234286 89.234286 0 0 1 88.941714 88.941715v81.846857a89.234286 89.234286 0 0 1-88.941714 88.868571H143.798857A89.234286 89.234286 0 0 1 54.857143 861.842286v-81.846857a89.234286 89.234286 0 0 1 88.941714-88.941715h736.402286z m29.696 88.941715c0-22.820571-5.12-27.794286-29.696-27.794286H146.066286c-22.162286 0-32.402286 8.557714-32.402286 27.794286v81.846857c0 20.48 7.533714 28.013714 28.233143 28.013714h738.304c21.211429 0 29.696-7.972571 29.696-28.013714v-81.846857z m0-327.168c0-18.870857-9.069714-26.331429-29.696-26.331429H143.798857c-18.285714 0-28.818286 11.995429-28.818286 29.403429v80.018285c0 14.774857 10.898286 26.697143 28.818286 26.697143h736.402286c22.893714 0 29.622857-5.12 29.622857-23.698286V452.754286z m-29.696-88.941715a89.234286 89.234286 0 0 1 88.941714 88.941715v81.773714a89.234286 89.234286 0 0 1-88.941714 88.941714H143.798857A89.234286 89.234286 0 0 1 54.857143 534.601143V452.827429a89.234286 89.234286 0 0 1 88.941714-88.941715h736.402286zM726.308571 172.982857a35.84 35.84 0 1 1 71.68 0 35.84 35.84 0 0 1-71.68 0z m0 320.731429a35.84 35.84 0 1 1 71.68 0 35.84 35.84 0 0 1-71.68 0z m0 327.168a35.84 35.84 0 1 1 71.68 0 35.84 35.84 0 0 1-71.68 0z" fill="#000000" /></svg>