<?xml version="1.0" encoding="utf-8"?>
<!-- Uploaded to: SVG Repo, www.svgrepo.com, Generator: SVG Repo Mixer Tools -->
<svg fill="#000000" width="800px" height="800px" viewBox="0 0 32 32" version="1.1" xmlns="http://www.w3.org/2000/svg">
<title>playstation3</title>
<path d="M30.412 15.914c-0.009-0.009-0.014-0.021-0.014-0.035s0.005-0.026 0.014-0.035v0c0.346-0.307 0.563-0.753 0.563-1.25 0-0.027-0.001-0.053-0.002-0.079l0 0.004c0.002-0.030 0.003-0.064 0.003-0.099 0-0.901-0.731-1.632-1.632-1.632-0.062 0-0.123 0.003-0.183 0.010l0.007-0.001h-7.559c-0.025 0.001-0.045 0.022-0.045 0.047 0 0 0 0 0 0.001v-0 0.593c0.002 0.027 0.023 0.048 0.050 0.050h7.113c0.599 0 0.892 0.437 0.892 1.036s-0.287 1.036-0.889 1.036h-7.113c-0.025 0.002-0.045 0.023-0.045 0.049 0 0 0 0.001 0 0.001v-0 0.599c0 0.023 0.019 0.041 0.042 0.041 0.001 0 0.003-0 0.004-0h7.113c0.786 0.009 0.886 0.774 0.886 1.161v0.075c0 0.605-0.287 1.040-0.886 1.040h-7.113c-0-0-0.001-0-0.001-0-0.024 0-0.043 0.019-0.043 0.042v0.595c0 0 0 0.001 0 0.001 0 0.025 0.020 0.045 0.045 0.045v0h7.55c0.044 0.004 0.096 0.007 0.148 0.007 0.915 0 1.658-0.742 1.658-1.658 0-0.025-0.001-0.050-0.002-0.075l0 0.004v-0.071c0.001-0.028 0.002-0.060 0.002-0.092 0-0.541-0.215-1.033-0.564-1.393l0 0.001zM8.632 12.797h-7.56c-0 0-0.001-0-0.001-0-0.025 0-0.045 0.019-0.046 0.044v0.595c0 0.025 0.020 0.045 0.045 0.045 0.001 0 0.001-0 0.002-0h7.106c0.599 0 0.886 0.433 0.886 1.036s-0.285 1.036-0.886 1.036h-5.621c-0.854 0.029-1.536 0.728-1.536 1.587 0 0.041 0.002 0.082 0.005 0.122l-0-0.005v1.888c0.002 0.026 0.024 0.046 0.050 0.046v0h1.285c0 0 0 0 0.001 0 0.026 0 0.048-0.020 0.049-0.046v-1.888c-0.005-0.035-0.007-0.075-0.007-0.116 0-0.483 0.377-0.879 0.853-0.907l0.003-0h5.377c0.054 0.006 0.117 0.010 0.18 0.010 0.897 0 1.625-0.728 1.625-1.625 0-0.035-0.001-0.070-0.003-0.104l0 0.005c0.002-0.030 0.003-0.066 0.003-0.101 0-0.9-0.73-1.63-1.63-1.63-0.061 0-0.121 0.003-0.18 0.010l0.007-0.001zM20.196 12.797h-3.928c-0.053-0.006-0.113-0.009-0.175-0.009-0.902 0-1.632 0.731-1.632 1.632 0 0.035 0.001 0.070 0.003 0.104l-0-0.005v2.951c0 0.603-0.285 1.036-0.886 1.036h-3.437c0 0 0 0-0 0-0.024 0-0.044 0.020-0.044 0.044 0 0 0 0 0 0v0 0.587c-0 0.002-0 0.003-0 0.005 0 0.019 0.016 0.035 0.035 0.035 0.001 0 0.002-0 0.003-0h3.881c0.054 0.006 0.116 0.010 0.179 0.010 0.902 0 1.634-0.731 1.634-1.634 0-0.033-0.001-0.066-0.003-0.099l0 0.005v-2.949c0-0.604 0.28-1.038 0.886-1.038h3.471c0.001 0 0.002 0 0.003 0 0.024 0 0.044-0.018 0.047-0.041l0-0v-0.593c-0.002-0.025-0.023-0.044-0.048-0.044-0.001 0-0.001 0-0.002 0h0z"></path>
</svg>