<?xml version="1.0" encoding="utf-8"?>
<!-- Uploaded to: SVG Repo, www.svgrepo.com, Generator: SVG Repo Mixer Tools -->
<svg fill="#000000" width="800px" height="800px" viewBox="0 0 32 32" version="1.1" xmlns="http://www.w3.org/2000/svg">
<title>reddit</title>
<path d="M12.606 20.986c-0.225 0.001-0.407 0.183-0.407 0.408 0 0.112 0.045 0.214 0.118 0.288l-0-0c0.952 0.716 2.155 1.146 3.457 1.146 0.085 0 0.17-0.002 0.255-0.006l-0.012 0c0.081 0.004 0.175 0.006 0.27 0.006 1.294 0 2.488-0.431 3.445-1.158l-0.014 0.010c0.077-0.081 0.124-0.19 0.124-0.311 0-0.101-0.033-0.194-0.089-0.269l0.001 0.001c-0.074-0.074-0.177-0.119-0.29-0.119s-0.215 0.045-0.29 0.119l0-0c-0.799 0.575-1.798 0.919-2.877 0.919-0.092 0-0.184-0.003-0.275-0.007l0.013 0.001c-0.082 0.005-0.178 0.008-0.274 0.008-1.075 0-2.070-0.345-2.88-0.93l0.014 0.010c-0.074-0.073-0.175-0.119-0.287-0.119-0.001 0-0.002 0-0.003 0h0zM19.436 16c-0.861 0.001-1.56 0.699-1.56 1.561s0.699 1.561 1.561 1.561 1.561-0.699 1.561-1.561v0c-0.002-0.862-0.7-1.56-1.562-1.561h-0zM12.563 16c0.861 0 1.56 0.699 1.56 1.56s-0.699 1.56-1.56 1.56-1.56-0.699-1.56-1.56c0-0.861 0.698-1.56 1.56-1.56h0zM22.261 6.933c0.852 0.006 1.54 0.698 1.54 1.551 0 0.857-0.694 1.551-1.551 1.551-0.828 0-1.505-0.65-1.549-1.467l-0-0.004-3.245-0.684-1 4.682c2.185 0.049 4.201 0.737 5.878 1.884l-0.037-0.024c0.38-0.379 0.905-0.614 1.485-0.614 0.008 0 0.017 0 0.025 0h-0.001c1.21 0.001 2.191 0.982 2.192 2.192v0c-0.007 0.88-0.513 1.64-1.249 2.011l-0.013 0.006c0.033 0.191 0.052 0.412 0.052 0.637 0 0.005 0 0.009-0 0.014v-0.001c0 3.367-3.911 6.086-8.752 6.086s-8.752-2.719-8.752-6.086c0-0.001 0-0.003 0-0.005 0-0.234 0.020-0.463 0.057-0.687l-0.003 0.024c-0.771-0.35-1.298-1.114-1.298-2.001 0-1.21 0.981-2.191 2.191-2.191 0 0 0.001 0 0.001 0h-0c0.586 0.006 1.116 0.238 1.509 0.613l-0.001-0.001c1.66-1.148 3.711-1.841 5.924-1.858l0.004-0 1.106-5.226c0.028-0.103 0.090-0.189 0.173-0.245l0.002-0.001c0.063-0.037 0.139-0.059 0.22-0.059 0.027 0 0.054 0.003 0.080 0.007l-0.003-0 3.631 0.771c0.247-0.522 0.77-0.876 1.375-0.876 0.003 0 0.007 0 0.010 0h-0.001zM16 1.004c0 0 0 0-0 0-8.282 0-14.996 6.714-14.996 14.996s6.714 14.996 14.996 14.996c8.282 0 14.996-6.714 14.996-14.996 0-4.141-1.678-7.89-4.392-10.604v0c-2.714-2.714-6.463-4.392-10.604-4.392v0z"></path>
</svg>