<?xml version="1.0" encoding="utf-8"?>
<!-- Uploaded to: SVG Repo, www.svgrepo.com, Generator: SVG Repo Mixer Tools -->
<svg fill="#000000" width="800px" height="800px" viewBox="0 0 32 32" version="1.1" xmlns="http://www.w3.org/2000/svg">
<title>shazam</title>
<path d="M23.85 21.795c-1.428 1.577-3.985 4.030-4.094 4.135-0.312 0.298-0.735 0.481-1.201 0.481-0.961 0-1.74-0.779-1.74-1.74 0-0.495 0.207-0.942 0.539-1.259l0.001-0.001c0.026-0.025 2.578-2.471 3.92-3.956 0.561-0.611 0.905-1.43 0.905-2.328 0-0.072-0.002-0.144-0.007-0.214l0 0.010c-0.079-1.050-0.58-1.97-1.331-2.599l-0.006-0.005c-0.596-0.47-1.357-0.754-2.185-0.754-0.859 0-1.646 0.306-2.259 0.814l0.006-0.005c-0.776 0.695-1.716 1.72-1.724 1.73-0.319 0.35-0.777 0.569-1.287 0.569-0.961 0-1.74-0.779-1.74-1.74 0-0.459 0.178-0.877 0.468-1.188l-0.001 0.001c0.042-0.046 1.062-1.157 1.963-1.966 1.22-1.054 2.822-1.695 4.573-1.695 1.699 0 3.256 0.604 4.47 1.608l-0.012-0.009c1.448 1.231 2.399 3.007 2.533 5.008l0.001 0.022c0.008 0.128 0.013 0.277 0.013 0.428 0 1.796-0.686 3.433-1.81 4.661l0.005-0.005zM13.341 21.918c-0.020 0-0.044 0-0.067 0-1.675 0-3.208-0.605-4.393-1.609l0.010 0.008c-1.447-1.23-2.399-3.007-2.534-5.006l-0.001-0.022c-0.008-0.127-0.013-0.275-0.013-0.424 0-1.798 0.687-3.435 1.812-4.664l-0.005 0.005c1.427-1.578 3.985-4.030 4.093-4.135 0.312-0.298 0.735-0.481 1.201-0.481 0.961 0 1.74 0.779 1.74 1.74 0 0.495-0.207 0.942-0.539 1.259l-0.001 0.001c-0.026 0.025-2.576 2.469-3.92 3.954-0.561 0.611-0.905 1.43-0.905 2.329 0 0.072 0.002 0.143 0.007 0.214l-0-0.010c0.080 1.050 0.58 1.97 1.331 2.602l0.006 0.005c0.596 0.47 1.358 0.753 2.186 0.753 0.858 0 1.646-0.305 2.26-0.812l-0.006 0.005c0.774-0.699 1.715-1.721 1.724-1.732 0.319-0.344 0.773-0.558 1.277-0.558 0.961 0 1.74 0.779 1.74 1.74 0 0.455-0.174 0.868-0.46 1.178l0.001-0.001c-0.044 0.044-1.065 1.155-1.964 1.964-1.2 1.053-2.784 1.696-4.517 1.696-0.022 0-0.045-0-0.067-0l0.003 0zM16 1.004c0 0 0 0-0 0-8.282 0-14.996 6.714-14.996 14.996s6.714 14.996 14.996 14.996c8.282 0 14.996-6.714 14.996-14.996v0c-0-8.282-6.714-14.996-14.996-14.996v0z"></path>
</svg>