<?xml version="1.0" encoding="utf-8"?>
<!-- Uploaded to: SVG Repo, www.svgrepo.com, Generator: SVG Repo Mixer Tools -->
<svg fill="#000000" width="800px" height="800px" viewBox="0 0 32 32" version="1.1" xmlns="http://www.w3.org/2000/svg">
<title>shopify</title>
<path d="M20.919 4.546c-0.025 0-0.075 0.026-0.097 0.026s-0.361 0.094-0.892 0.262c-0.529-1.541-1.47-2.962-3.134-2.962h-0.144c-0.356-0.5-0.921-0.832-1.564-0.868l-0.005-0c-3.881 0-5.736 4.845-6.317 7.305-1.492 0.456-2.578 0.795-2.699 0.842-0.844 0.266-0.867 0.29-0.965 1.087-0.094 0.577-2.287 17.574-2.287 17.574l16.946 3.183zM17.18 2.935c0.867 0.092 1.426 1.083 1.786 2.193-0.436 0.142-0.919 0.289-1.447 0.457v-0.315c0.001-0.049 0.002-0.107 0.002-0.165 0-0.777-0.125-1.524-0.355-2.224l0.014 0.050zM16.506 5.727v0.169c-0.942 0.29-1.978 0.605-2.992 0.92 0.264-1.607 1.237-2.944 2.58-3.699l0.026-0.013c0.248 0.705 0.391 1.518 0.391 2.365 0 0.091-0.002 0.182-0.005 0.273l0-0.013zM14.963 2.042c0 0 0.001 0 0.001 0 0.19 0 0.366 0.063 0.507 0.17l-0.002-0.002c-1.749 1.048-2.947 2.861-3.132 4.964l-0.002 0.024c-0.82 0.266-1.616 0.506-2.361 0.722 0.648-2.231 2.216-5.867 4.988-5.867zM15.638 15.132c-0.648-0.32-1.408-0.514-2.211-0.53l-0.005-0c-1.808 0-1.879 1.132-1.879 1.426 0 1.54 4.049 2.143 4.049 5.785 0.014 0.128 0.021 0.277 0.021 0.427 0 2.359-1.912 4.271-4.271 4.271-0.002 0-0.005 0-0.007 0h0c-0.050 0.002-0.108 0.002-0.166 0.002-1.676 0-3.187-0.703-4.255-1.83l-0.003-0.003 0.807-2.607c0.774 0.68 1.745 1.154 2.817 1.328l0.033 0.004c0.012 0 0.025 0.001 0.039 0.001 0.646 0 1.171-0.52 1.18-1.165v-0.001c0-2.023-3.317-2.117-3.317-5.447-0-0.020-0-0.044-0-0.068 0-3.026 2.453-5.478 5.478-5.478 0.195 0 0.388 0.010 0.578 0.030l-0.024-0.002c0.077-0.004 0.167-0.007 0.258-0.007 0.756 0 1.474 0.169 2.116 0.471l-0.030-0.013-1.181 3.393zM20.17 30.97l9.017-1.951s-3.254-22.010-3.28-22.156c-0.018-0.133-0.128-0.235-0.263-0.24h-0c-0.121 0-2.411-0.17-2.411-0.17s-1.593-1.592-1.798-1.763c-0.043-0.039-0.093-0.070-0.148-0.091l-0.003-0.001-1.142 26.372z"></path>
</svg>