<?xml version="1.0" encoding="utf-8"?>
<!-- Uploaded to: SVG Repo, www.svgrepo.com, Generator: SVG Repo Mixer Tools -->
<svg fill="#000000" width="800px" height="800px" viewBox="0 0 32 32" version="1.1" xmlns="http://www.w3.org/2000/svg">
<title>skypeforbusiness</title>
<path d="M22.598 28.846c-1.137-0.011-2.203-0.306-3.134-0.817l0.034 0.017-0.65-0.4-0.75 0.15c-0.623 0.114-1.348 0.187-2.087 0.2l-0.012 0c0 0 0 0-0 0-6.598 0-11.947-5.349-11.947-11.947 0-0 0-0 0-0v0c-0-0.033-0.001-0.072-0.001-0.111 0-0.704 0.073-1.391 0.212-2.054l-0.011 0.065 0.15-0.75-0.4-0.65c-0.503-0.868-0.8-1.909-0.8-3.020 0-0.028 0-0.056 0.001-0.083l-0 0.004c0.001-3.45 2.798-6.247 6.248-6.248h0c1.137 0.011 2.203 0.306 3.134 0.817l-0.034-0.017 0.65 0.4 0.75-0.15c0.619-0.109 1.343-0.181 2.081-0.2l0.019-0c6.598 0 11.946 5.349 11.946 11.947 0 0 0 0 0 0v0c0 0.033 0.001 0.072 0.001 0.111 0 0.704-0.073 1.391-0.212 2.054l0.011-0.065-0.15 0.75 0.4 0.65c0.503 0.868 0.8 1.909 0.8 3.020 0 0.028-0 0.055-0.001 0.083l0-0.004c-0.001 3.45-2.798 6.247-6.248 6.248h-0zM29.896 18.449c0.128-0.688 0.201-1.48 0.201-2.289 0-0.056-0-0.113-0.001-0.169l0 0.009c0-0.005 0-0.011 0-0.016 0-7.776-6.304-14.080-14.080-14.080-0.006 0-0.012 0-0.017 0h0.001c-0.048-0.001-0.104-0.001-0.16-0.001-0.809 0-1.601 0.073-2.37 0.213l0.080-0.012c-1.193-0.692-2.626-1.1-4.153-1.1-4.635 0-8.393 3.758-8.393 8.393 0 0.002 0 0.003 0 0.005v-0c-0 0.007-0 0.015-0 0.023 0 1.518 0.408 2.942 1.121 4.166l-0.021-0.040c-0.128 0.688-0.201 1.48-0.201 2.289 0 0.056 0 0.112 0.001 0.169l-0-0.009c0 0.005 0 0.011 0 0.016 0 7.776 6.304 14.080 14.080 14.080 0.006 0 0.012 0 0.017 0h-0.001c0.048 0.001 0.104 0.001 0.16 0.001 0.809 0 1.601-0.073 2.37-0.213l-0.080 0.012c1.193 0.692 2.626 1.1 4.153 1.1 4.635 0 8.393-3.758 8.393-8.393 0-0.002 0-0.003 0-0.005v0c0-0.007 0-0.015 0-0.023 0-1.518-0.408-2.942-1.121-4.165l0.021 0.040zM18.549 14.65l-3.149-0.7c-1.2-0.3-2.549-0.65-2.549-1.799s0.95-1.949 2.699-1.949c3.549 0 3.249 2.449 4.999 2.449 0.055 0.007 0.119 0.011 0.183 0.011 0.818 0 1.485-0.647 1.516-1.458l0-0.003c0-2.199-3.499-3.849-6.498-3.849-3.199 0-6.598 1.35-6.598 4.999-0 1.749 0.6 3.649 4.049 4.549l4.299 1.1c1.3 0.3 1.7 1.050 1.7 1.7 0 1.1-1.15 2.299-3.099 2.299-3.849 0-3.299-3.049-5.348-3.049-0.021-0.001-0.045-0.002-0.069-0.002-0.863 0-1.564 0.691-1.58 1.549l-0 0.002c0 1.799 2.199 4.249 6.998 4.249 4.599 0 6.898-2.299 6.898-5.298-0.050-1.999-0.95-3.999-4.449-4.799z"></path>
</svg>