<?xml version="1.0" encoding="utf-8"?>
<!-- Uploaded to: SVG Repo, www.svgrepo.com, Generator: SVG Repo Mixer Tools -->
<svg fill="#000000" width="800px" height="800px" viewBox="0 0 32 32" version="1.1" xmlns="http://www.w3.org/2000/svg">
<title>teamspeak</title>
<path d="M1.004 16.665c-0.003-0.105-0.004-0.228-0.004-0.352 0-0.425 0.019-0.846 0.056-1.261l-0.004 0.054c0.121-0.887 0.677-1.621 1.442-1.99l0.015-0.007c0.197-0.075 0.342-0.248 0.374-0.458l0-0.003c0.385-2.046 1.195-3.855 2.337-5.404l-0.025 0.036c0.134-0.185 0.24-0.312 0.069-0.555-0.219-0.306-0.062-0.587 0.165-0.844 1.563-1.799 3.584-3.161 5.883-3.907l0.093-0.026c1.386-0.505 2.985-0.796 4.653-0.796 3.986 0 7.583 1.667 10.131 4.342l0.005 0.006c0.39 0.379 0.911 0.76 0.412 1.425-0.082 0.11 0.065 0.207 0.129 0.294 1.157 1.545 1.989 3.401 2.356 5.419l0.012 0.080c0.039 0.225 0.177 0.295 0.34 0.376 0.906 0.425 1.522 1.33 1.522 2.378 0 0.036-0.001 0.072-0.002 0.108l0-0.005c0.023 0.339 0.036 0.734 0.036 1.132 0 0.666-0.037 1.323-0.108 1.97l0.007-0.080c-0.239 1.258-1.33 2.197-2.64 2.197-0.173 0-0.341-0.016-0.505-0.047l0.017 0.003c-0.431-0.090-0.545-0.421-0.542-0.825 0.008-1.655 0.040-3.308 0-4.961 0.001-0.046 0.001-0.101 0.001-0.156 0-4.242-2.411-7.92-5.938-9.74l-0.061-0.029c-1.523-0.82-3.332-1.303-5.254-1.303-5.408 0-9.924 3.816-11.003 8.903l-0.013 0.074c-0.138 0.853-0.217 1.836-0.217 2.837 0 0.344 0.009 0.686 0.028 1.026l-0.002-0.047c0.013 1.187 0 2.376-0.030 3.563 0 0.009 0.001 0.020 0.001 0.030 0 0.357-0.289 0.645-0.645 0.645-0.019 0-0.039-0.001-0.058-0.003l0.002 0c-0.097 0.012-0.209 0.019-0.323 0.019-1.501 0-2.717-1.217-2.717-2.717 0-0.064 0.002-0.127 0.006-0.19l-0 0.008zM19.365 22.819c0.757 0.1 1.513 0.222 2.277 0.266 0.089 0.010 0.192 0.016 0.297 0.016 0.819 0 1.557-0.347 2.076-0.901l0.002-0.002c0.619-0.636 1-1.505 1-2.464 0-0.078-0.003-0.156-0.008-0.233l0.001 0.011c-0.056-1.017-0.948-1.618-2.156-1.408-1.142 0.25-2.145 0.592-3.093 1.031l0.091-0.038c-0.88 0.322-1.638 0.775-2.293 1.342l0.009-0.008c-0.884 0.82-0.382 1.906 1.027 2.247 0.252 0.061 0.512 0.095 0.77 0.141zM15.155 20.701c-0.091-0.257-0.218-0.478-0.378-0.672l0.003 0.004c-0.603-0.886-1.302-1.646-2.098-2.294l-0.019-0.015c-0.387-0.335-0.812-0.66-1.256-0.959l-0.048-0.030c-0.508-0.359-1.096-0.724-1.706-1.053l-0.094-0.046h-0.002c-0.249-0.15-0.55-0.238-0.872-0.238-0.905 0-1.646 0.7-1.711 1.588l-0 0.006c-0.087 0.376-0.137 0.807-0.137 1.25 0 1.151 0.338 2.222 0.92 3.122l-0.014-0.023c0.542 0.848 1.461 1.413 2.515 1.458l0.006 0c0.662 0.062 1.328 0.099 1.993 0.146 0.134 0.014 0.289 0.022 0.446 0.022 0.413 0 0.813-0.055 1.193-0.158l-0.032 0.007c0.686-0.164 1.211-0.708 1.345-1.392l0.002-0.011c0.013-0.073 0.020-0.156 0.020-0.241 0-0.168-0.028-0.329-0.079-0.479l0.003 0.010zM28.002 24.24c-0.001-0.719-0.255-1.378-0.678-1.893l0.004 0.005c-0.052-0.042-0.119-0.067-0.192-0.067-0.137 0-0.252 0.089-0.292 0.212l-0.001 0.002c-0.14 0.436-0.287 0.797-0.456 1.146l0.023-0.053c-0.47 1.085-1.133 2.005-1.953 2.755l-0.006 0.006c-0.996 0.894-2.163 1.623-3.442 2.128l-0.078 0.027c-0.305 0.124-0.606 0.234-0.902 0.332l-0.008 0.003c-0.197 0.066-0.392 0.126-0.584 0.182l-0.004 0.001-0.275 0.079-0.015 0.004c-0.185 0.050-0.365 0.097-0.541 0.14l-0.281 0.066c-0.169 0.038-0.33 0.072-0.487 0.104l-0.031 0.006q-0.324 0.062-0.65 0.116l-0.035 0.005-0.17 0.025-0.021 0.005q-0.175 0.025-0.35 0.047l-0.175 0.021q-0.338 0.042-0.679 0.062h-0.005c-5.111 0.536 1.297 1.656 6.117 0.809l0.032-0.006q0.429-0.078 0.854-0.177c0.045-0.012 0.092-0.023 0.137-0.034 0.66-0.161 1.238-0.377 1.781-0.65l-0.048 0.022c1.644-0.678 2.865-2.090 3.263-3.817l0.007-0.037c0.090-0.414 0.142-0.89 0.142-1.378 0-0.070-0.001-0.14-0.003-0.209l0 0.010z"></path>
</svg>