<svg version="1.1" xmlns="http://www.w3.org/2000/svg" xmlns:xlink="http://www.w3.org/1999/xlink" x="0px" y="0px" viewBox="0 0 800 800" style="enable-background:new 0 0 800 800;" xml:space="preserve">
<rect fill="none" width="800" height="800"/>
<circle fill="#FFFFFF" cx="400" cy="400" r="380"/>
<path d="M66.7,400c0-46.8,9.8-93.1,28.7-136l159.3,436C139.7,644.3,66.7,527.8,66.7,400 M625,383.3c-3.6,36.8-12,73-25,107.7
	l-33.3,111L446,244.7l38-4c7.6-1.6,12.4-9,10.8-16.6c-1.3-6.1-6.5-10.7-12.8-11.1c0,0-54,4.3-89,4.3l-87.7-4.3
	c-7.7,0.4-13.7,6.9-13.3,14.6c0.3,6.3,4.8,11.7,11,13l35.3,4l52,141.3l-73,218.7l-121.7-360l37.7-4c7.6-1.2,12.9-8.3,11.7-16
	c-0.9-6-5.7-10.7-11.7-11.7c0,0-54,4.3-89,4.3h-23c100.9-154,307.5-197,461.5-96.1c14.9,9.8,29,20.7,42.2,32.7h-4.3
	c-31.7,0.9-56.7,27.3-56,59c3.7,28.7,15.2,55.8,33.3,78.3c17.8,27.4,27.4,59.3,27.7,92 M406.3,429L509,709.7l2.3,4.7
	c-65.9,23.4-137.6,25.2-204.7,5.3l100-290.7 M692.7,240c86.4,158.8,30.5,357.5-126,448l102-294.3c16.2-37.6,24.9-78,25.7-119
	l-2.3-33.3"/>
</svg>
