<?xml version="1.0" encoding="utf-8"?>
<!-- Uploaded to: SVG Repo, www.svgrepo.com, Generator: SVG Repo Mixer Tools -->
<svg width="800px" height="800px" viewBox="0 0 1024 1024" class="icon"  version="1.1" xmlns="http://www.w3.org/2000/svg"><path d="M786.358857 809.325714a88.356571 88.356571 0 0 1 176.566857 0 88.283429 88.283429 0 0 1-176.566857 0z m-274.797714 89.234286c-48.64 0-88.210286-39.497143-88.210286-88.064a88.210286 88.210286 0 0 1 176.420572 0c0 48.566857-39.570286 88.064-88.210286 88.064zM512.512 59.538286c48.566857 0 88.137143 39.497143 88.137143 87.917714a88.137143 88.137143 0 0 1-176.201143 0c0-48.493714 39.497143-87.917714 88.064-87.917714zM145.334857 896.731429c-48.64 0-88.210286-39.497143-88.210286-88.137143a88.283429 88.283429 0 0 1 176.493715 0c0 48.64-39.643429 88.137143-88.283429 88.137143zM905.069714 425.691429a29.549714 29.549714 0 0 0-8.265143-20.48 30.793143 30.793143 0 0 0-20.48-8.265143H541.257143V291.181714a147.309714 147.309714 0 0 0 117.906286-144.237714 147.163429 147.163429 0 0 0-294.253715 0c0 71.826286 49.883429 131.510857 118.125715 144.237714-0.146286 0.365714-1.974857 105.691429-1.974858 105.691429H147.675429a28.452571 28.452571 0 0 0-20.48 8.265143 30.134857 30.134857 0 0 0-8.923429 20.48l0.658286 241.590857c-59.245714 9.508571-118.345143 70.656-118.345143 143.725714 0 81.042286 65.974857 147.017143 147.090286 147.017143 81.188571 0 147.163429-65.974857 147.163428-147.017143 0-70.656-53.101714-131.437714-112.128-143.725714V464.969143h300.324572v191.488c0 3.730286 0.877714 7.094857 2.048 10.24a147.017143 147.017143 0 0 0-120.173715 144.237714 147.236571 147.236571 0 0 0 294.253715 0c0-71.899429-52.077714-131.657143-120.539429-144.237714a29.110857 29.110857 0 0 0 1.974857-10.24V464.969143h300.617143v202.24c-64.365714 14.116571-112.054857 73.142857-112.054857 143.725714a147.236571 147.236571 0 0 0 294.253714 0c0-72.996571-57.344-134.656-118.345143-144.530286 0.365714-1.097143 0-240.786286 0-240.786285z" fill="#000000" /></svg>