<svg width="548" height="247" fill="none" xmlns="http://www.w3.org/2000/svg"><path d="M537.394 75.81c-2.538 2.626-3.121 4.757-1.573 5.303 2.537.926 7.714-1.827 8.767-4.784.495-1.395-.418-2.664-2.36-3.096a25.536 25.536 0 0 1-2.537 1.51c-.729.43-1.498.787-2.297 1.066zm5.936-13.375a26.494 26.494 0 0 1-10.151 8.07c-2.537 3.68-.063 6.446 5.901 3.16 3.299-1.89 6.826-4.784 7.613-6.877.393-1.409-1.079-3.452-3.363-4.352z" fill="#FFE5D9"/><path d="M528.344 67.575a2.2 2.2 0 0 0 .597 2.08c3.527 3.338 22.015-12.396 12.688-15.72a12.28 12.28 0 0 0-4.656 0c-.14.507-.318 1.052-.508 1.61-1.446 4.036-4.936 10.152-8.121 12.03z" fill="#FFE5D9"/><path d="M535.248 76.279c-3.654.304-5.506-2.31-3.806-5.19-1.637.38-2.969.203-3.68-.761a3.211 3.211 0 0 1-.672-2.246 2.273 2.273 0 0 1-2.081-.533 3.54 3.54 0 0 1-1.358-2.043 13.026 13.026 0 0 1-3.071-1.472c-1.027-.634-1.878-1.358-2.981-2.17l.926-1.053a25.706 25.706 0 0 0 2.702 2.03c4.53 2.868 6.7 1.828 5.609-3.273a18.085 18.085 0 0 0-4.061-8.146 5.64 5.64 0 0 0-2.131-1.574c-4.923-1.75-8.464 3.502-11.902 8.096-.8 1.104-1.447 2.119-2.17 2.969l-.317.165a293.582 293.582 0 0 0-32.039 8.577 49.147 49.147 0 0 0-2.665 13.488c-.545 11.001 2.855 20.848 8.882 25.911a15.233 15.233 0 0 0 3.007 2.106 15.199 15.199 0 0 0 3.807-1.37c1.18-.584 2.462-1.269 3.807-2.17 9.554-6.053 22.294-17.764 24.197-21.57a11.424 11.424 0 0 1-5.456-8.883h1.396a9.668 9.668 0 0 0 5.646 8.324c.355.165.711.304 1.091.444 5 1.776 11.712-.127 16.496-4.264-.774-.99-1.218-2.69.824-5.392z" fill="#FFE5D9"/><path d="M525.238 65.773c.188.272.415.516.672.723 1.916 1.662 6.865-4.492 9.314-11.42 1.662-4.682 1.434-7.118-.787-7.918-2.537-.9-6.496.863-9.833 4.276a18.528 18.528 0 0 1 3.476 7.753c.787 4.29-.342 6.56-2.842 6.586z" fill="#FFE5D9"/><path d="M450.628 109.028l-17.764 12.689-33.854 24.185a6.06 6.06 0 0 1-3.375 3.882l-.152.089c1.624 2.538-.647 5.875-5.152 7.043a31.33 31.33 0 0 1-14.706-.292l-.076 5.989 12.003 7.613 70.613-50.438-2.83-3.997-4.707-6.763z" fill="#C1FF00"/><path d="M459.333 63.133c-2.119 1.054-5.875.787-9.199 1.447-2.729.546-5.152 1.726-6.142 4.784h.711c.863 3.806 4.72 5.418 8.882 5.367 4.162-.05 8.286-2.03 9.719-5.545.137-.334.247-.677.33-1.028.099-.379.167-.765.203-1.154.216-2.665-1.142-5.254-2.994-5.8a2.744 2.744 0 0 1-1.51 1.93z" fill="#FF5E07"/><path d="M451.835 76c-3.515-.28-6.776-1.751-8.007-4.746-1.345 3.147-5.151 4.898-9.174 5.558 5.545 12.6 13.26 9.732 17.181-.812z" fill="#fff"/><path d="M397.957 69.91a6.2 6.2 0 0 1-5.595 1.268c-10.672 27.497 23.563 52.265 47.646 35.833h-1.701c-21.19-.482-38.256-13.107-40.35-37.102z" fill="#FFE5D9"/><path d="M447.113 53.02c2.233 0 4.809 1.27 5.19 2.957l.786.14c4.682.837 6.814-2.005 6.865-6.433 0-2.893-.939-4.771-2.83-5.71l-.926 1.472 2.373.697a3.176 3.176 0 0 1-2.903 3.07 3.173 3.173 0 0 1-3.378-2.537c-.267-1.192.419-2.753 2.538-3.362a12.171 12.171 0 0 0-1.904-.127c-4.631.165-7.397 2.08-6.737 6.471.09 1.17.405 2.311.926 3.363z" fill="#fff"/><path d="M435.962 64.11c-8.35-.494-13.73 2.538-17.853-.228l.101.076a6.19 6.19 0 0 0-.761.761 4.385 4.385 0 0 0-1.028 3.249 6.734 6.734 0 0 0 1.269 3.49c2.639 3.565 8.717 4.758 13.653 4.326.927-.062 1.85-.172 2.766-.33 4.543-.748 8.26-2.474 9.098-6.128h.698a9.75 9.75 0 0 0-7.943-5.215z" fill="#FF5E07"/><path d="M453.547 74.706c-4.174 0-8.032-1.6-8.882-5.368h-1.408c-.838 3.655-4.555 5.38-9.098 6.129-.916.157-1.839.267-2.766.33-4.936.431-11.014-.762-13.653-4.327a6.734 6.734 0 0 1-1.269-3.49 4.377 4.377 0 0 1 1.028-3.248c.231-.275.486-.53.761-.761l-.101-.076-.724-.559a4.691 4.691 0 0 0-2.195 4.62 7.812 7.812 0 0 0 2.614 5.38c2.995 2.727 8.184 3.92 13.679 3.806.596 0 1.205 0 1.827-.127.451-.04.9-.103 1.345-.19 4.022-.66 7.829-2.411 9.174-5.558 1.269 2.994 4.491 4.466 8.006 4.746h1.536c4.504 0 9.288-1.916 10.81-5.393.102-.245.191-.495.267-.749a35.87 35.87 0 0 0-.787-1.713c-.083.35-.193.694-.33 1.028-1.51 3.515-5.646 5.494-9.834 5.52z" fill="#CC5A27"/><path d="M453.343 76.038h-.267c-4.212 11.521-13.767 15.468-19.769.964-.621.064-1.269.102-1.827.127-5.494.165-10.684-1.028-13.678-3.806v.418c-8.73-3.108-12.613-7.397-15.417-15.873a59.208 59.208 0 0 1-.837-2.411c-.14-.444-.28-.876-.406-1.269l-3.452.939.838 1.56-1.383.75.786 2.08a63.458 63.458 0 0 0-.114 8.743 1.884 1.884 0 0 0 0 .368c0 .418 0 .85.089 1.269 2.093 23.994 19.16 36.619 40.35 37.089h1.7c10.951-.216 20.201-5.19 24.68-13.349 3.578-6.344 3.02-14.046.977-20.441a32.116 32.116 0 0 0-1.269-3.312 7.372 7.372 0 0 1-.267.749c-1.446 3.489-6.23 5.342-10.734 5.405z" fill="#FF5E07"/><path d="M402.412 57.918c2.804 8.476 6.686 12.765 15.416 15.874v-.419a7.812 7.812 0 0 1-2.614-5.38 4.697 4.697 0 0 1 2.196-4.619l.723.559c4.124 2.791 9.504-.267 17.853.228a9.75 9.75 0 0 1 7.981 5.202c.99-3.058 3.413-4.238 6.141-4.783 3.325-.66 7.081-.394 9.2-1.447a14.601 14.601 0 0 0-.178-5.989 11.724 11.724 0 0 1-5.735 1.269h-.698a5.008 5.008 0 0 1-1.409 3.634 5.015 5.015 0 0 1-3.591 1.518c-1.228.1-2.464-.012-3.654-.33l.711-1.967c3.806 1.358 7.055-1.929 5.266-5.075-1.498-2.462-6.573-.254-8.971-4.429l1.713-.507a2.377 2.377 0 0 0 1.586.99 7.483 7.483 0 0 1-.533-2.411c-1.701-1.853-3.363-1.054-5.076.799-.507 4.542-4.149 6.979-11.052 7.309-6.623.266-11.305-2.919-11.952-7.715l-5.533 1.497-8.958 2.398c.127.444.267.876.406 1.27.178.9.457 1.7.762 2.524z" fill="#FFE5D9"/><path d="M266.097 136.436l-.216.203c-20.162 18.83-38.751 33.422-58.165 45.375-4.783 2.703-2.017 14.744 4.035 21.913a15.3 15.3 0 0 0 7.03 5.012 8.864 8.864 0 0 0 2.652.406c20.606 1.155 40.299-4.885 60.208-15.886a263.055 263.055 0 0 0 31.645-21.012c11.204-8.502 23.678 5.913 15.569 10.379-4.225 2.944-11.876 1.459-16.558.622-5.33-.635-13.273 22.839-5.951 24.502 14.883 3.362 28.828 6.23 46.313 5.798 21.762-1.662 31.392-5.709 39.094-27.293-22.839-4.34-40.35-22.434-52.594-39.119a125.933 125.933 0 0 1-32.179-10.9c-11.229-5.786-18.792-14.097-21.33-22.383a16.244 16.244 0 0 1-1.269-2.791c-1.75.649-3.601.988-5.468 1.002-4.962 5.05-10.507 16.457-12.816 24.172z" fill="#9AB8E8"/><path d="M427.001 55.432c6.154-.165 9.707-2.36 9.352-6.789a6.946 6.946 0 0 0-1.904-4.758 3.428 3.428 0 0 1 0 3.109c-1.599 2.893-6.103 1.154-6.953-1.51l4.365-.952-1.523-1.573-1.028-1.079a24.114 24.114 0 0 0-2.69-.165c-5.798-.114-8.73 2.246-8.565 6.611.008.301.033.602.077.9.596 4.797 3.705 6.307 8.869 6.206z" fill="#fff"/><path d="M394.266 51.955l.951.482 5.152-1.409c-3.654-17.079 5.393-27.47 23.499-26.925 5.901.152 10.621 1.7 16.788 5.405 2.537-2.537 6.623-3.045 9.757-2.537 2.221.38 3.807 1.776 4.682 5.075l1.269-.216c3.985-.66 4.885-6.344 4.835-10.05-.064-4.884-2.538-10.886-6.129-15.91-2.043-2.805-3.807-3.807-5.075-3.909a6.258 6.258 0 0 0-3.871 1.954c-2.994 2.538-5.202 3.693-8.958 3.743l-15.087.318c-8.679.24-13.272 2.22-14.414 6.23l-1.624-.457c-2.335-1.269-5.647 1.446-9.542-.076-.355 3.337 1.688 4.213 3.083 4.568-2.449.647-4.986-.394-7.258-.647.495 2.944 1.916 5.532 4.264 5.95l.85.724c-7.182 5.469-5.875 20.492-3.172 27.687z" fill="#FF5E07"/><path d="M450.449 27.021c-3.134-.558-7.194-.063-9.757 2.538-6.167-3.705-10.887-5.253-16.787-5.405-18.107-.546-27.154 9.846-23.5 26.925l15.227-4.212c.495-4.683 3.375-7.398 9.707-7.614h1.065c2.26-.053 4.513.256 6.675.914.66.222 1.294.516 1.89.875a8.4 8.4 0 0 1 3.807 6.51 3.943 3.943 0 0 1 4.809-.635c.761-4.86 6.255-7.067 12.6-5.773a22.145 22.145 0 0 0-1.155-8.882c-.774-3.464-2.398-4.86-4.581-5.24zM433.7 38.137c-1.89-2.069-6.344-2.284-8.412-.926l-1.066-2.45c3.604-1.916 8.793-1.268 11.331 1.675l-1.853 1.7zm20.556-3.096l-.533 2.296c-1.269-.736-4.644-.964-6.179.99l-2.322-1.269c.282-.377.61-.718.977-1.015a7.688 7.688 0 0 1 4.25-1.84 5.507 5.507 0 0 1 3.807.838z" fill="#FFE5D9"/><path d="M376.046 121.552v2.195c0 2.348 8.628 6.243 12.815 5.85l.077-5.291v-1.371l.253-19.033-12.967-.165-.127 10.951h.127v1.408h-.178l-.064 5.076.064.38z" fill="#C1FF00"/><path d="M359.866 148.262l.368.14a53.422 53.422 0 0 0 15.417 6.915 28.998 28.998 0 0 0 13.298.558c.342 0 .672-.139 1.002-.228 3.807-.99 5.634-3.527 4.327-5.278-.825.297-1.674.522-2.538.672a19.034 19.034 0 0 1-3.184.368h-.749v-1.421h.799a15.233 15.233 0 0 0 6.345-1.345c.328-.159.642-.346.939-.558 2.081-1.536 2.601-4.124 1.065-5.368a13.9 13.9 0 0 1-2.334 1.371 21.741 21.741 0 0 1-5.951 1.789c-.66.114-1.333.19-1.98.241v-1.409c.69-.014 1.377-.082 2.056-.203a27.317 27.317 0 0 0 5.545-1.662c4.834-1.903 5.938-5.393 3.197-7.245a38.334 38.334 0 0 1-8.653 2.804 3.083 3.083 0 0 1-1.269 0l.444-1.269c.279.067.571.067.85 0 2.424-.33 8.654-2.538 10.214-3.806a3.808 3.808 0 0 0 1.548-3.084c-.114-3.083-4.986-5.913-11.597-5.913l-.076 5.291v1.358c-3.807.343-10.151-2.144-12.866-4.745a4.783 4.783 0 0 1-.952-1.155 3.043 3.043 0 0 1 1.002-3.934l.064-5.075c-4.479.266-10.227 3.426-15.227 8.222l-.875.102c-14.986-12.981-28.931-22.104-40.604-26.99-14.618-6.09-25.758-5.582-31.087 2.297a15.99 15.99 0 0 0-2.069 10.494 21.676 21.676 0 0 0 2.221 6.979c3.324 6.687 9.986 13.171 19.249 17.98a123.48 123.48 0 0 0 32.635 11.014 103.928 103.928 0 0 0 19.426 2.093zm38.093-88.745l-.8-2.08c-1.586-3.35-4.225-5.254-6.953-5.381a4.301 4.301 0 0 0-4.987 3.59 12.503 12.503 0 0 0-.317 3.11c.089 5.545 3.616 10.417 7.969 11.153.351.065.708.1 1.065.102a4.377 4.377 0 0 0 3.744-1.523l.152-.228a63.301 63.301 0 0 1 .127-8.743zm-8.058-1.485c-.723.85-.482 2.88.597 4.518l-1.079.723c-1.446-2.183-1.675-4.619-.672-5.926 1.002-1.307 2.461-1.472 5.24-1.053l-.203 1.269c-2.347-.368-3.515-.229-3.883.47z" fill="#FFE5D9"/><path d="M345.996 103.128l-4.848 5.076 1.168.812 4.733-4.911-1.053-.977z" fill="#2B2B2B"/><path d="M284.483 210.158c4.936 1.624 11.763-3.807 17.599-10.151 0-.47.102-.952.165-1.434.888-5.888 3.807-12.486 7.004-15.227a16.75 16.75 0 0 0-5.075-2.537c-5.672 4.009-11.306 7.702-16.927 11.013-.431.241-.837.495-1.269.736-4.035 8.654-5.088 14.935-1.497 17.6z" fill="#3F5370"/><path d="M302.082 199.969c-5.837 6.344-12.688 11.813-17.599 10.15-3.591-2.613-2.538-8.882 1.447-17.637a151.99 151.99 0 0 1-2.855 1.624c-8.603 16.013-9.2 25.67-3.198 33.638 3.248 3.375 8.057 2.309 9.643-.596 4.771-8.54 9.022-15.227 13.958-19.655-1.32-1.688-1.688-4.454-1.396-7.524zm-91.104 5.113c-4.721 8.578-13.184 27.687-24.109 17.599-.393 10.887 1.84 19.249 9.986 22.155 5.659 1.192 6.471-1.853 9.682-11.242 2.905-8.578 5.24-16.585 11.356-23.449a17.009 17.009 0 0 1-6.915-5.063z" fill="#557293"/><path d="M249.741 97.025c.241 5.659 13.234 13.222 24.425 14.871.99.14 1.954.241 2.893.279h1.84a16.08 16.08 0 0 0 5.469-1.002c-.139-.419-.279-.825-.381-1.269a18.466 18.466 0 0 1-9.973.698c-10.367-1.662-22.345-8.781-22.992-13.755-.07-1.561.198-3.12.787-4.568a48.114 48.114 0 0 1 4.707-9.783c6.814-10.658 17.016-15.15 31.722-21.33l57.899-22.09c13.501-4.492 26.43 3.984 28.638 14.566l1.269.165c-2.17-11.306-15.455-20.898-30.453-16.026L287.87 60c-14.693 6.167-25.288 10.836-32.369 21.761a47.97 47.97 0 0 0-4.91 10.151 13.737 13.737 0 0 0-.85 5.114z" fill="#fff"/><path d="M210.975 205.082l-.305-.368c-4.796-5.735-7.613-14.262-6.509-19.566a79.16 79.16 0 0 0-3.464 1.446c-5.329 2.386-9.847 5.558-10.532 12.042a186.551 186.551 0 0 0-3.185 22.243c0 .622-.063 1.269-.076 1.802 10.887 10.088 19.351-9.022 24.071-17.599z" fill="#3F5370"/><path d="M32.294 237.946c-36.29-4.733-41.01-21.101-12.397-41.556 41.873-29.755 112.244-54.891 169.61-71.056 2.538 1.459 4.86 2.766 7.194 3.92-52.442 14.415-127.28 44.056-160.664 65.842-24.73 16.204-18.03 26.164 18.297 27.306 43.725-.495 95.762-17.015 139.424-33.219a28.703 28.703 0 0 1 7.346-4.225c-45.108 16.939-100.646 35.528-146.833 36.036-34.996-.952-40.985-9.453-17.498-24.807 33.663-22.002 109.25-51.82 161.743-65.981 13.666 6.345 25.441 6.966 39.157.368-.989 3.934-.672 8.502 1.269 11.547 8.362.99 22.916-7.613 30.453-17.574a79.011 79.011 0 0 1 4.022-7.334c.606-1.704.856-3.513.736-5.317-11.191-1.649-24.184-9.212-24.425-14.87-.039-1.731.249-3.453.85-5.076a47.97 47.97 0 0 1 4.91-10.151C238.65 71 221.812 74.756 212.347 85.16c2.982 5.634 7.169 7.119 11.775 7.385-13.361 3.325-29.057 15.036-35.288 31.823-57.479 16.052-127.75 41.239-169.698 71.057-29.666 21.089-24.49 38.878 12.955 43.865 55.665 4.238 106.915-7.613 153.533-17.358 0-.444 0-.876.064-1.269-46.822 9.796-97.843 21.634-153.394 17.282z" fill="#10D2FF"/><path d="M547.823 67.22c.762-2.107-1.027-4.797-3.73-5.901 2.195-3.49 2.347-6.928-2.081-8.501a11.419 11.419 0 0 0-4.733-.115c.8-3.68 0-5.875-2.411-6.712-2.982-1.066-7.448.723-11.178 4.428a7.024 7.024 0 0 0-2.627-1.852c-5.786-2.068-9.91 4.086-13.425 8.527-.761.964-1.357 1.865-1.966 2.766a278.894 278.894 0 0 0-31.722 8.45c-1.269-1.268-5.812-2.118-10.151-1.268-.037.39-.105.775-.203 1.154.266.546.533 1.117.787 1.713a49.95 49.95 0 0 1 1.268 3.312c2.043 6.344 2.602 14.034-.977 20.442-4.479 8.158-13.729 13.132-24.679 13.348-24.109 16.495-58.368-8.336-47.646-35.833a6.204 6.204 0 0 0 5.595-1.269c0-.431-.076-.863-.088-1.269a1.741 1.741 0 0 1 0-.368l-.153.229a4.367 4.367 0 0 1-3.743 1.522 6.08 6.08 0 0 1-1.066-.101c-4.352-.736-7.879-5.608-7.968-11.153-.025-1.046.081-2.09.317-3.11a4.292 4.292 0 0 1 1.739-2.842 4.302 4.302 0 0 1 3.248-.748c2.728.127 5.367 2.03 6.953 5.38l1.383-.749-.837-1.56 3.451-.94 8.958-2.398 5.533-1.497c.647 4.797 5.329 7.981 11.952 7.715 6.903-.33 10.545-2.766 11.052-7.309 1.764-1.852 3.426-2.652 5.076-.8.043.828.223 1.643.533 2.412a2.376 2.376 0 0 1-1.586-.99l-1.713.508c2.398 4.174 7.473 1.966 8.97 4.428 1.79 3.134-1.446 6.42-5.265 5.075l-.711 1.967c1.19.319 2.426.43 3.654.33a4.995 4.995 0 0 0 4.664-3.192c.242-.624.356-1.29.336-1.96h.698c1.988.071 3.962-.366 5.735-1.268.473 1.962.533 4.002.178 5.989a2.746 2.746 0 0 0 1.548-1.903 14.659 14.659 0 0 0-.571-5.076c1.015-.888 2.144-3.68 1.865-6.827-.216-4.187-1.662-6.864-4.53-8.133a15.318 15.318 0 0 0-.914-7.956c4.403-.66 6.154-5.989 6.066-11.572-.115-4.746-2.386-11.242-6.446-16.572-2.462-3.235-3.959-4.504-6.319-4.504a8.084 8.084 0 0 0-4.67 2.208 11.99 11.99 0 0 1-8.159 3.477l-15.036.19c-9.339.14-14.401 2.652-16.013 7.207l1.599.558c1.142-4.01 5.735-5.989 14.414-6.23l15.087-.317c3.807 0 5.964-1.269 8.958-3.743a6.258 6.258 0 0 1 3.871-1.954c1.357.076 3.083 1.104 5.075 3.908 3.616 5.075 6.065 11.026 6.129 15.912 0 3.806-.85 9.39-4.835 10.049l-1.269.216a22.145 22.145 0 0 1 1.155 8.882c-6.344-1.27-11.838.913-12.6 5.773a3.946 3.946 0 0 0-4.809.635 8.395 8.395 0 0 0-3.806-6.51 9.634 9.634 0 0 0-1.891-.875 21.204 21.204 0 0 0-6.674-.914h-1.066c-6.345.267-9.212 2.982-9.707 7.613l-15.227 4.213-5.151 1.408-.952-.482c-2.702-7.194-4.009-22.218 3.198-27.686l-.85-.724c-7.195 4.657-6.814 18.792-4.023 27.687a6.136 6.136 0 0 0-2.715-.558c-3.185 0-5.317 1.269-6.065 4.631a95.72 95.72 0 0 0-7.753-1.421l-1.269-.165c-36.924-4.758-78.353 10.608-89.773 42.685a23.482 23.482 0 0 0-1.04 13.577c.101.406.241.812.381 1.269.333.968.758 1.903 1.268 2.791 2.538 8.286 10.151 16.597 21.33 22.383a125.948 125.948 0 0 0 32.179 10.95c12.244 16.686 29.742 34.78 52.594 39.12v-.089l1.092.266c16.495 1.472 39.043-22.776 59.294-49.206 7.88-1.904 32.559-17.105 37.432-22.992 2.106-2.462 2.537-4.441 2.093-5.799 9.593-6.015 22.155-17.587 24.693-22.002.355.165.723.33 1.116.47 5.228 1.877 12.841-.128 18.044-4.67 3.349.99 8.882-2.018 10.227-5.647a3.518 3.518 0 0 0-2.246-4.517 13.132 13.132 0 0 0 4.25-5.025zm-94.835-24.033c.637-.008 1.273.035 1.903.127-2.169.609-2.855 2.17-2.537 3.362a3.17 3.17 0 0 0 3.378 2.536 3.171 3.171 0 0 0 2.903-3.069l-2.373-.697.926-1.472c1.891.939 2.88 2.817 2.83 5.71 0 4.428-2.183 7.27-6.865 6.433l-.787-.14c-.38-1.662-2.956-2.994-5.189-2.956a9.162 9.162 0 0 1-.876-3.363c-.723-4.39 2.043-6.306 6.687-6.471zm-26.367-1.472c.899.005 1.797.06 2.69.165l1.028 1.078 1.522 1.574-4.365.952c.851 2.664 5.355 4.402 6.954 1.51a3.428 3.428 0 0 0 0-3.11 6.94 6.94 0 0 1 1.903 4.759c.355 4.428-3.197 6.623-9.351 6.788-5.165.102-8.235-1.408-8.883-6.204a7.763 7.763 0 0 1-.076-.901c-.165-4.365 2.766-6.725 8.565-6.611h.013zM541.619 53.96c9.339 3.324-9.149 19.033-12.689 15.72a2.199 2.199 0 0 1-.596-2.08c3.184-1.878 6.674-7.994 8.108-12.016.19-.559.368-1.104.507-1.612a12.285 12.285 0 0 1 4.67-.012zm-7.182-6.725c2.22.799 2.449 3.235.787 7.917-2.449 6.878-7.398 13.032-9.314 11.42a3.427 3.427 0 0 1-.672-.723c2.537 0 3.629-2.297 2.842-6.535a18.53 18.53 0 0 0-3.477-7.753c3.337-3.489 7.296-5.215 9.834-4.352v.026zM341.15 108.14l4.847-5.075 1.053.926-4.733 4.911-1.167-.762zm-52.722 9.098a21.659 21.659 0 0 1-2.22-6.979 15.984 15.984 0 0 1 2.068-10.493c5.329-7.88 16.495-8.387 31.087-2.297 11.725 4.885 25.67 13.958 40.604 26.989l.876-.101c4.986-4.797 10.734-7.956 15.226-8.223h.178v-1.408h-.127l.127-10.951 12.968.165-.254 19.033v1.422c6.611 0 11.483 2.829 11.597 5.913a3.808 3.808 0 0 1-1.548 3.083c-1.56 1.345-7.791 3.489-10.214 3.807a1.85 1.85 0 0 1-.85 0l-.444 1.268c.418.089.85.089 1.269 0a38.334 38.334 0 0 0 8.653-2.804c2.741 1.853 1.637 5.342-3.197 7.245a27.383 27.383 0 0 1-5.545 1.663c-.679.121-1.366.189-2.056.203v1.408c.647 0 1.269-.127 1.98-.241a21.741 21.741 0 0 0 5.951-1.789c.82-.38 1.602-.839 2.334-1.37 1.536 1.268 1.015 3.806-1.066 5.367-.296.213-.61.399-.939.558a15.21 15.21 0 0 1-6.344 1.345h-.799v1.421h.748a19.046 19.046 0 0 0 3.185-.368 14.947 14.947 0 0 0 2.538-.672c1.269 1.751-.546 4.289-4.327 5.278-.33.089-.66.165-1.002.229a28.999 28.999 0 0 1-13.298-.559 53.395 53.395 0 0 1-15.417-6.915l-.368-.139a103.884 103.884 0 0 1-19.553-2.018 123.408 123.408 0 0 1-32.635-11.014c-9.2-4.872-15.861-11.356-19.186-18.043v-.013zm99.137 52.925l-12.003-7.613.076-5.99a31.304 31.304 0 0 0 14.706.292c4.504-1.167 6.776-4.517 5.152-7.042l.152-.089a6.065 6.065 0 0 0 3.375-3.882l33.853-24.185 17.765-12.689 4.72 6.712 2.829 3.997-70.625 50.489zm130.364-84.33c-.381-.139-.736-.278-1.091-.444a9.665 9.665 0 0 1-5.647-8.323h-1.396a11.426 11.426 0 0 0 5.457 8.882c-1.904 3.806-14.643 15.518-24.198 21.571-1.358.837-2.639 1.586-3.806 2.169a15.231 15.231 0 0 1-3.807 1.409 15.227 15.227 0 0 1-3.071-2.056c-5.976-5.075-9.377-14.909-8.882-25.91a49.169 49.169 0 0 1 2.652-13.59 293.619 293.619 0 0 1 32.141-8.514l.317-.165c.723-.85 1.37-1.865 2.17-2.969 3.438-4.593 6.978-9.846 11.902-8.095a5.65 5.65 0 0 1 2.106 1.624 18.082 18.082 0 0 1 4.073 8.248c1.091 5.075-1.078 6.14-5.608 3.273a25.662 25.662 0 0 1-2.728-2.08l-.927 1.052c1.104.813 1.954 1.536 2.982 2.17a13.03 13.03 0 0 0 3.071 1.472 3.538 3.538 0 0 0 1.357 2.043 2.273 2.273 0 0 0 2.081.533 3.212 3.212 0 0 0 .673 2.246c.711.964 2.043 1.142 3.68.761-1.675 2.88.177 5.494 3.806 5.19-2.043 2.703-1.599 4.403-.875 5.291-4.72 4.06-11.433 5.989-16.432 4.213zm26.646-9.503c-1.053 2.956-6.179 5.71-8.768 4.783-1.548-.545-.989-2.677 1.574-5.303a12.934 12.934 0 0 0 2.347-1.066 25.531 25.531 0 0 0 2.538-1.51c1.903.431 2.817 1.7 2.322 3.096h-.013zm-5.558-2.665c-5.963 3.286-8.387.52-5.9-3.16 4-1.807 7.488-4.58 10.151-8.07 2.233.901 3.807 2.983 3.274 4.353-.685 2.094-4.213 4.936-7.512 6.877h-.013z" fill="#000"/><path d="M453.078 76.038h-1.269c-3.985 10.544-11.636 13.412-17.181.812-.444.087-.893.15-1.345.19 6.027 14.465 15.582 10.52 19.795-1.002zm-7.906-38.954l2.322 1.268c1.535-1.954 4.91-1.725 6.179-.99l.533-2.296a5.506 5.506 0 0 0-3.806-.837 7.688 7.688 0 0 0-4.251 1.865 5.699 5.699 0 0 0-.977.99zm-20.949-2.323l1.066 2.45c2.017-1.358 6.522-1.143 8.412.926l1.853-1.7c-2.538-2.982-7.728-3.592-11.331-1.676zm-48.168 88.987v-2.538a3.043 3.043 0 0 0-1.002 3.933c.255.433.576.823.952 1.155 2.715 2.538 9.11 5.076 12.866 4.746v-1.358c-4.187.406-12.816-3.54-12.816-5.938zm17.931-67.454c-2.779-.418-4.39-.165-5.241 1.053-.85 1.218-.774 3.743.673 5.926l1.078-.723c-1.078-1.637-1.268-3.667-.596-4.517.368-.698 1.535-.838 3.883-.42l.203-1.319zm-2.234 130.161c-7.702 21.571-17.333 25.631-39.094 27.293-17.485.432-31.43-2.436-46.314-5.798-7.321-1.637.622-25.137 5.951-24.502 4.682.837 12.334 2.322 16.559-.622 8.108-4.466-4.365-18.881-15.569-10.379a263.036 263.036 0 0 1-31.595 21.012c-19.909 11.001-39.602 17.041-60.208 15.887a8.902 8.902 0 0 1-2.652-.407 15.3 15.3 0 0 1-7.03-5.012c-6.052-7.169-8.818-19.21-4.035-21.913 19.376-11.953 38.067-26.532 58.166-45.426l.215-.203c2.31-7.613 7.855-19.033 12.803-24.108h-1.84a41.956 41.956 0 0 0-3.629 5.075 79.011 79.011 0 0 0-4.022 7.334 79.929 79.929 0 0 0-4.492 11.281c-20.302 18.842-38.827 33.181-57.911 45.095a5.293 5.293 0 0 0-2.335 2.538c-1.167.444-2.36.914-3.527 1.421a28.666 28.666 0 0 0-7.347 4.226 13.311 13.311 0 0 0-4.911 9.262 185 185 0 0 0-3.134 22.168c0 .444 0 .875-.063 1.268-.508 11.661 1.802 20.937 10.798 24.109 6.991 1.37 8.146-2.639 11.42-12.042 2.994-8.818 5.304-16.799 11.534-23.499a9.312 9.312 0 0 0 2.144.228c20.416 1.015 39.982-4.872 59.637-15.531-7.968 15.379-8.552 25.149-2.22 33.448 4.238 4.428 9.846 2.677 11.787-.8 4.835-8.615 8.946-15.226 13.666-19.464a4.518 4.518 0 0 0 1.827.863c14.58 3.311 28.651 6.255 46.416 5.849 22.129-1.827 32.47-6.344 40.35-28.473H392.437l-.685-.178zm-185.179 47.139c-3.211 9.389-4.023 12.435-9.682 11.242-8.146-2.906-10.379-11.268-9.986-22.155 0-.583 0-1.18.076-1.801a186.512 186.512 0 0 1 3.185-22.269c.685-6.484 5.203-9.656 10.532-12.042a78.65 78.65 0 0 1 3.464-1.446c-1.104 5.304 1.713 13.83 6.509 19.566l.305.368a16.999 16.999 0 0 0 6.953 5.075c-6.116 6.877-8.451 14.884-11.356 23.462zm107.435-60.056c9.694-7.372 20.48 4.784 14.135 8.21-3.806 2.537-10.975 1.268-15.67.38a3.142 3.142 0 0 0-1.954.368 20.316 20.316 0 0 0-4.987-2.715 328.925 328.925 0 0 0 8.476-6.243zm-24.489 53.648c-1.586 2.906-6.345 3.971-9.644.596-6.001-7.968-5.405-17.624 3.198-33.638a151.99 151.99 0 0 0 2.855-1.624c.444-.241.85-.495 1.269-.736 5.621-3.311 11.255-7.004 16.927-11.013a16.76 16.76 0 0 1 5.075 2.537c-3.159 2.69-6.116 9.288-7.004 15.227 0 .482-.114.964-.165 1.434-.292 3.07.076 5.836 1.37 7.613-4.859 4.352-9.11 11.064-13.881 19.604z" fill="#000"/></svg>