<svg xmlns="http://www.w3.org/2000/svg" viewBox="0 0 518.6 406.73" width="240"><g data-name="Layer 2"><g data-name="Layer 5"><path d="M143.92 281.81c1.81 9.57 6.21 49.92 6.47 56.9s8.53 9.05 14.74 7.76 12-8.33 12.4-11.38-14.89-45.84-15.83-51.72-17.78-1.56-17.78-1.56z" fill="#ffd33d"/><path d="M161.7 283.37a2.85 2.85 0 00-1.25-1.89c-3.72 7.66 3.41 23.7 4.1 30.94.5 5.19 3.64 7.34 4.91 11.94 1 3.66-.55 6.28.94 10a31.71 31.71 0 003.88 6.26c1.86-2.07 3.09-4.19 3.25-5.54.36-3.08-14.89-45.83-15.83-51.71z" fill="#f9c513"/><path d="M153.38 344.41a11.86 11.86 0 005 2.12c-.48-4.14-1-8.27-1.35-12.43-.64-7.93-2.45-14.05-4.37-21.63-2.28-9.06 1.28-22.79-5.76-29.84a2.45 2.45 0 01-.72-1.33l-.92.2c4.21 20.67 5.63 41.88 8.12 62.91z" fill="#ffdf5d"/><path d="M159 293a19.71 19.71 0 004.63-2.76 69.71 69.71 0 01-1.91-6.91c-.95-5.89-17.78-1.56-17.78-1.56.45 2.37 1.06 6.62 1.72 11.77 4.34.05 8.92 1.32 13.34-.54z" fill="#dbab09"/><path d="M83.21 191.25c-1.41.23-10.64-3.83-14.89 12.37s19.51 51.52 43.93 66.81c24.66 15.43 40.79 19.51 46.48 15.73 5.1-8.31 4.88-14 4.88-14s-34-14.65-51.68-30.48c-18.41-16.47-28.72-50.43-28.72-50.43z" fill="#dbab09" stroke="#ffea7f" stroke-miterlimit="10" stroke-width="2.5"/><path d="M110.23 258.74c14.48 11.6 35.06 22.76 53.38 22.74 3.62-6.92 0-9.34 0-9.34s-34-14.65-51.68-30.48c-18.41-16.45-28.72-50.41-28.72-50.41-1 .17-6.12-1.9-10.47 3-1.92 26.01 18.63 49.37 37.49 64.49z" fill="#b08800"/><path d="M192.9 23.26s-57.09 34.68-50.3 91.31c6 49.64 36.15 66.44 46.89 77.58 3.08 6.49-.7 19.08 9.17 26.63s32.14 13.23 61.56.51 56.06-29.82 67.6-54.47" fill="none" stroke="#0366d6" stroke-miterlimit="10" stroke-width="3"/><path d="M202 52.3s-10.83-9.67-8.84-37.39a2.22 2.22 0 011.1-1.76c23.2-13.26 49-10.74 70.16 3.37" fill="none" stroke="#0366d6" stroke-miterlimit="10" stroke-width="3"/><path d="M236.06 5.22c26.53-9.22 73.17-3.34 101.3 41.12 24.65 39 14.43 77.55 8.32 98.32M203.93 19.65s16.43 0 26.13 6.68c11.74 8.09 16.16 20.8 16.16 20.8M148.76 74.46s-26.39 9.14-32.15 27.43c7 11.53 21.41 22 27.49 22.16" fill="none" stroke="#0366d6" stroke-miterlimit="10" stroke-width="3"/><path d="M142.48 113.44s3.61 19 22.59 17.05c28.31-7.16 29.24-57.72 68.06-56 37.09 1.62 42.8 51.75 47.11 65.77 3 9.78 16.49 8 22.51 11.73 10.11 6.35 10.11 29.3-8.74 49.35M332.09 156.9s15 82.09 14.35 93.44" fill="none" stroke="#0366d6" stroke-miterlimit="10" stroke-width="3"/><path d="M370.63 245.84s-29.95-4.67-38.54 22.2 15.19 42.07 27.64 48.29c6.55 3.28 25.37 10.51 28.26 7.79 5.43-7.16-3.68-24.71-.59-42.84.78-4.54 6-13.45 6-17-13.88-42.95-40.28-125.12-59.87-129.63-7.52-1.73-5.66 16.81-5.66 16.81" fill="none" stroke="#0366d6" stroke-miterlimit="10" stroke-width="3"/><path d="M317 181.44s3.88 25.34 13.06 42.32 16.43 26.58 16.43 26.58M321.17 176.08s7.46 25.2 13.42 34.37a145.35 145.35 0 019.29 16.36M320.14 196.63s-1.83 42.27 2.64 49.62M329.55 246.25s-26.16 1.83-27.53 26.61S317 301.31 317 301.31s-2.57 12.39 4.33 13.31 5.8-16.72 6.54-20.77a8.56 8.56 0 013.88-5.43M371.09 199.22s29.15 15.41 56 23.24 28.14 23.45 28.78 31.15-4.43 27.15-44.56 50.17M327.61 308s4.5 17.47 8 22.9M359.73 316.33s5 21.14 9.64 27M346.8 329.59a41.34 41.34 0 00-14.71 2.83s-16.35 6.6-19.23 27.95" fill="none" stroke="#0366d6" stroke-miterlimit="10" stroke-width="3"/><path d="M313.56 356.51s-13.67-2-14.45 3.86.47 8.93 22.17 10.1 28.29 0 28.29 0" fill="none" stroke="#0366d6" stroke-miterlimit="10" stroke-width="3"/><path d="M403.67 341.35a57.23 57.23 0 00-19.94-.39c-34.16 5.05-34.16 27.56-34.16 27.56s-5.69 7.77-.77 12.43a159 159 0 0061.33 3.88c33-4.66 38-9.45 37.65-13.85s-7.93-5.9-7.93-5.9-2.4-10.22-19.23-40.36-11.41-44.27-11.41-44.27" fill="none" stroke="#0366d6" stroke-miterlimit="10" stroke-width="3"/><path d="M353.51 382.15s2.8-12.65 11-12.65 29.87 17.38 40.49 15.95M309.49 189.18s-30.69 37.39-47.69 50.94c-15.05 12-60.2 33.28-84.27 32M187.77 285.77s.78-8.41-10.24-13.69" fill="none" stroke="#0366d6" stroke-miterlimit="10" stroke-width="3"/><path d="M191.91 315.31c7.18-4.25 15.13-11.53 13.18-18.83-3.16-11.8-23.24-13.83-30.65-10.71-9.22 3.89-10.83 10.72-28.8 7.81" fill="none" stroke="#0366d6" stroke-miterlimit="10" stroke-width="3"/><path d="M127.16 280.45s-9.9 30.5 5.92 45.45c16.14 15.27 61.21 20.63 61.2-27.57M175.32 198.57c5.76-.65 15.5-.65 15.5-.65M180.45 208.08l10.37-5.13M295.63 139.3c7.55-12.7 22.25-31.34 32-37.48M305.37 142.27c5.29-4.87 15.8-14.22 35.78-22.06M186.69 325.8c51.66-20.24 113.43-76.49 134.25-123.21" fill="none" stroke="#0366d6" stroke-miterlimit="10" stroke-width="3"/><ellipse transform="rotate(-36.37 237.808 275.522)" ry="8.66" rx="27.12" cy="275.53" cx="237.8" fill="none" stroke="#0366d6" stroke-miterlimit="10" stroke-width="3"/><ellipse transform="rotate(-50.24 287.032 234.249)" ry="5.51" rx="22.62" cy="234.24" cx="287" fill="none" stroke="#0366d6" stroke-miterlimit="10" stroke-width="3"/><ellipse transform="rotate(-8.48 211.196 196.312)" ry="3.48" rx="6.49" cy="196.36" cx="211.18" fill="none" stroke="#0366d6" stroke-miterlimit="10" stroke-width="3"/><path d="M81.8 191.48s-4.51 25.31 25.09 55.52c17.77 18.13 38.66 26.73 55.18 28.42 2.36-10.8 8.36-32.57-41.26-70-22.61-17.07-39.01-13.94-39.01-13.94z" fill="#79b8ff"/><path d="M113.34 233.44a126.89 126.89 0 01-17.09-39.58 50.66 50.66 0 00-5.58-1.08c1 25 18.7 45.33 32.52 66.28 2.2 1.39 4.4 2.63 6.61 3.8a243.42 243.42 0 00-16.46-29.42z" fill="#c8e1ff"/><path d="M87.23 191.32a24.34 24.34 0 00-5.43.16s-4.51 25.3 25.09 55.51c1.29 1.32 2.61 2.57 3.93 3.79-11.6-18.68-23.66-37.31-23.59-59.46z" fill="#2188ff"/><path d="M153.93 254.73c-5-8.36-5.32-18.19-10.2-26.44-7.84-13.25-22.34-20-29.67-33.46-1.32-.49-2.61-.93-3.83-1.28 6.64 16 24.93 23.35 31.59 39.39 3.86 9.29 5.26 19 10.11 28a119.75 119.75 0 007.1 11.4c.9.29 1.78.54 2.67.8a87.18 87.18 0 00-7.77-18.41z" fill="#daedff"/><path d="M68.32 203.62l2.8-13.2 25.18-19.87s36.38-3.91 65.6 30.76c25.47 30.22 24.58 44.25 25.64 58 0 0-18.72 24.65-29.89 28.26 7.4-22 10.3-34.8-22.44-66.09s-57.38-36.3-66.89-17.86z" fill="#ffea7f"/><path d="M178.75 225.08c.47 10.69 2.66 21.7-2.37 31.37-3.59 6.91-9.84 11.23-12.22 19-1.08 3.53-1.47 7.08-2.82 10.32 11.17-6.71 26.2-26.5 26.2-26.5-.73-9.49-.54-19.14-8.79-34.19z" fill="#ffdf5d"/><path d="M389.9 253.67s4.18-5.22 9.62-7.42" fill="none" stroke="#0366d6" stroke-miterlimit="10" stroke-width="3"/><path d="M159.4 221.29c-7.51-13-18.33-25.17-31.76-32.3s-29.35-9.27-44.5-8.05l-5.23 4.13a51.11 51.11 0 0117.74-.36c9.76 1.31 20.25 4.38 28.34 10.19 11.72 8.42 20.29 20.47 29.33 31.5 8.06 9.83 14.91 21 16.74 33.83a74.77 74.77 0 010 18.67c2-1.84 3.91-3.81 5.74-5.78-2.41-18.12-7.27-35.96-16.4-51.83z" fill="#fff5b1"/><path d="M320.08 108a48.4 48.4 0 017.53-6.17M330.79 124.79c3.38-1.68 6.85-3.2 10.36-4.58M175.32 198.57c1.86-.2 3.72-.32 5.59-.41M180.45 208.08l3.65-1.8" fill="none" stroke="#0366d6" stroke-linecap="round" stroke-miterlimit="10" stroke-width="3"/><ellipse ry="6.17" rx="11.22" cy="393.7" cx="18.39" fill="#0366d6"/><path d="M1 401.38c.45-3.84 5.43-5.54 9-5.53M21.25 398.3s4.54.9 4.2 7M26.67 395.36a10.33 10.33 0 015.14 1.7 7.12 7.12 0 013 4.74M28.26 392.65s1.13-1.69 5.47-1.41a7.41 7.41 0 016.05 4.12M2.93 393.7a9.52 9.52 0 014.24-3 13.51 13.51 0 015.8.2M18.27 388.53s-1.53-2.08-3.58-1.7c-1.5.28-1.72 4-1.72 4" fill="none" stroke="#0366d6" stroke-miterlimit="10" stroke-width="2"/></g></g></svg>
