<svg xmlns="http://www.w3.org/2000/svg" xmlns:xlink="http://www.w3.org/1999/xlink" width="512pt" height="512pt" viewBox="0 0 512 512" version="1.1">
<g id="surface1">
<path style=" stroke:none;fill-rule:nonzero;fill:rgb(99.607843%,72.156863%,1.568627%);fill-opacity:1;" d="M 278.71875 216.160156 C 278.71875 216.160156 394.601562 30.519531 397.238281 25.878906 C 399.878906 21.238281 400.441406 12.71875 393.160156 12.71875 C 385.878906 12.71875 205.359375 197 205.359375 197 L 77.160156 273 C 77.160156 273 68.558594 278.28125 69.878906 284.878906 C 71.199219 291.480469 76.960938 291.761719 79.601562 291.761719 C 82.238281 291.761719 219 291.039062 226.960938 290.800781 C 236.839844 290.519531 234.398438 304.558594 234.398438 304.558594 L 147.839844 440.640625 C 147.839844 440.640625 110.039062 492.960938 110.039062 496.519531 C 110.039062 501.761719 116.359375 504.359375 122.238281 500.839844 C 126.800781 498.121094 421.601562 248.320312 434.601562 231.160156 C 438.121094 226.480469 439.921875 214.160156 425.398438 214.160156 C 410.878906 214.160156 295.238281 247.839844 295.238281 247.839844 Z M 278.71875 216.160156 "/>
<path style=" stroke:none;fill-rule:nonzero;fill:rgb(100%,78.823529%,15.294118%);fill-opacity:1;" d="M 258.441406 201.398438 C 254.878906 206.28125 253.921875 214.441406 261.601562 214.921875 C 269.238281 215.359375 425.398438 214.199219 425.398438 214.199219 C 425.398438 214.199219 313.839844 316.71875 280.078125 347.320312 C 246.320312 377.921875 134.519531 477.039062 127 484.039062 C 119.640625 490.921875 112.960938 497.238281 110.238281 496.359375 C 109.800781 496.238281 109.238281 493.878906 119.761719 476.558594 C 129.359375 460.761719 221.519531 306.320312 225.121094 300.480469 C 228.71875 294.640625 231.878906 289.679688 233.679688 286.960938 C 235.480469 284.238281 241.320312 269.398438 229.160156 269.398438 C 217 269.398438 77.160156 273 77.160156 273 C 77.160156 273 173.761719 191.039062 201.679688 169 C 229.601562 146.960938 387.839844 12.71875 393.160156 12.71875 C 398.480469 12.71875 262.039062 196.480469 258.441406 201.398438 Z M 258.441406 201.398438 "/>
<path style=" stroke:none;fill-rule:nonzero;fill:rgb(100%,89.803922%,40.392157%);fill-opacity:1;" d="M 253.800781 283 C 261 272.640625 268.078125 271.878906 272.359375 274.441406 C 277.878906 277.761719 278.441406 285.398438 271.480469 294.640625 C 260.519531 309.28125 179.960938 417.078125 176.878906 420.878906 C 171.039062 428.078125 162.441406 424.921875 168.039062 414.480469 C 172.71875 405.839844 246.359375 293.71875 253.800781 283 Z M 253.800781 283 "/>
<path style=" stroke:none;fill-rule:nonzero;fill:rgb(100%,89.803922%,40.392157%);fill-opacity:1;" d="M 139.320312 261.960938 C 125.519531 271.199219 112.679688 257.398438 121.921875 247.28125 C 131.160156 237.160156 191.800781 186.679688 204.078125 176.238281 C 216.359375 165.800781 288.039062 103.441406 293.601562 98.960938 C 300.960938 93.039062 305.519531 99.039062 300.878906 105.199219 C 296.28125 111.359375 245.601562 162 223.238281 182.558594 C 205.960938 198.480469 152.441406 253.160156 139.320312 261.960938 Z M 139.320312 261.960938 "/>
</g>
</svg>