<svg version="1.1" id="icon-logo" xmlns="http://www.w3.org/2000/svg" xmlns:xlink="http://www.w3.org/1999/xlink" x="0px" y="0px"
	 viewBox="0 0 80 80" style="enable-background:new 0 0 80 80;" xml:space="preserve">
<style type="text/css">
	.st0{fill:#FFFFFF;}
</style>
<g id="canva">
	<g>
		<path d="M40,2.8c17.8,0,33.1,12.7,36.5,30.3c1.9,9.8-0.2,19.6-5.8,27.8c-5.6,8.2-14.1,13.7-23.8,15.6c-2.3,0.4-4.7,0.7-7,0.7
			c-17.8,0-33.1-12.7-36.5-30.3c-1.9-9.8,0.2-19.6,5.8-27.8c5.6-8.2,14.1-13.7,23.8-15.6C35.4,3,37.7,2.8,40,2.8 M40,0.8
			c-2.4,0-4.9,0.2-7.4,0.7C22.4,3.5,13.5,9.3,7.6,18C1.7,26.6-0.5,37,1.5,47.3C5,65.8,21.2,79.2,40,79.2c2.4,0,4.9-0.2,7.4-0.7
			c10.3-2,19.2-7.8,25.1-16.4c5.9-8.6,8.1-19.1,6.1-29.3C75,14.2,58.8,0.8,40,0.8L40,0.8z"/>
	</g>
	<g>
		<path d="M40,75.5c-17,0-31.7-12.2-34.9-28.9C3.3,37.3,5.3,27.8,10.6,20C16,12.2,24.1,6.9,33.4,5.1c2.2-0.4,4.5-0.6,6.7-0.6
			c17,0,31.7,12.2,34.9,28.9c1.8,9.3-0.2,18.8-5.5,26.6C64,67.8,55.9,73.1,46.6,74.9C44.4,75.3,42.2,75.5,40,75.5z"/>
		<path class="st0" d="M40,6.5c16,0,29.9,11.5,32.9,27.3c1.7,8.8-0.2,17.7-5.2,25.1C62.7,66.3,55,71.3,46.3,72.9
			c-2.1,0.4-4.2,0.6-6.3,0.6c-16,0-29.9-11.5-32.9-27.3c-1.7-8.8,0.2-17.7,5.2-25.1C17.3,13.7,25,8.7,33.7,7.1
			C35.8,6.7,37.9,6.5,40,6.5 M40,2.5c-2.3,0-4.7,0.2-7,0.7C23.2,5,14.6,10.6,9,18.9C3.3,27.2,1.3,37.1,3.1,47
			C6.5,64.7,22,77.5,40,77.5c2.3,0,4.7-0.2,7-0.7c9.8-1.9,18.4-7.5,24-15.8c5.6-8.3,7.7-18.3,5.9-28.1C73.5,15.3,58,2.5,40,2.5
			L40,2.5z"/>
	</g>
</g>
<g id="scope">
	<g>
		<g>
			<path class="st0" d="M31.1,45.2c-1.8,0-3.3-1.2-3.5-2.9c-0.3-1.8,1-3.7,2.8-4.1c0.3,0,0.4-0.1,0.6-0.1c1.8,0,3.3,1.2,3.7,3l0,0.3
				c0.1,0.8-0.1,1.7-0.7,2.4c-0.6,0.7-1.4,1.2-2.3,1.4l-0.4,0C31.4,45.2,31.2,45.2,31.1,45.2z"/>
			<path d="M31,38.6c1.5,0,2.8,1.1,3.2,2.6l0,0.2c0.2,1.5-0.9,3-2.6,3.3h-0.3c-0.1,0-0.1,0-0.2,0c-1.5,0-2.8-1-3-2.5
				c-0.2-1.6,0.9-3.2,2.4-3.5C30.7,38.6,30.9,38.6,31,38.6 M31,37.6c-0.2,0-0.4,0-0.7,0.1c0,0,0,0-0.1,0c-2.1,0.5-3.5,2.6-3.2,4.7
				c0.3,1.9,2,3.3,4,3.3c0.1,0,0.2,0,0.3,0h0.2c0.1,0,0.1,0,0.2,0c1-0.2,2-0.7,2.6-1.5c0.6-0.8,0.9-1.8,0.8-2.8l0-0.1
				c0-0.1,0-0.1,0-0.2C34.7,39,33,37.6,31,37.6L31,37.6z"/>
		</g>
	</g>
	<g>
		<g>
			<path class="st0" d="M39.9,43.4c-1.6,0-2.8-1-3.2-2.6c-0.1-0.2-0.2-0.4-0.2-0.6c-0.1-0.8,0.1-1.7,0.6-2.4
				c0.5-0.7,1.3-1.2,2.3-1.3c0.2,0,0.4,0,0.7,0c1.8,0,3.1,1.1,3.4,2.8c0.2,1,0.1,2-0.4,2.7c-0.5,0.7-1.3,1.2-2.3,1.4
				C40.4,43.4,40.2,43.4,39.9,43.4z"/>
			<path d="M40.1,36.9c1.5,0,2.6,0.9,3,2.4c0.4,1.8-0.5,3.2-2.3,3.6c-0.3,0-0.5,0.1-0.8,0.1c-1.4,0-2.4-0.9-2.8-2.3
				C37,40.5,37,40.4,37,40.2c-0.1-0.7,0.1-1.5,0.5-2.1c0.5-0.6,1.1-1,1.9-1.1C39.7,36.9,39.9,36.9,40.1,36.9 M40.1,35.9
				c-0.3,0-0.5,0-0.7,0.1c-1,0.2-1.9,0.7-2.6,1.5c-0.6,0.8-0.9,1.8-0.7,2.8c0,0.3,0.1,0.5,0.2,0.7c0.5,1.8,1.9,2.9,3.7,2.9
				c0.3,0,0.6,0,0.9-0.1c0,0,0,0,0.1,0c1.1-0.2,2-0.8,2.6-1.6c0.6-0.9,0.7-1.9,0.5-3.1C43.6,37.1,42.1,35.9,40.1,35.9L40.1,35.9z"/>
		</g>
	</g>
	<g>
		<g>
			<path class="st0" d="M29.9,62.2c-2.7,0-4.7-1.3-5.7-3.5c0,0,0-0.1,0-0.1c-0.4-1.2-0.9-2.4-1.2-3.7c-0.2-0.7-0.3-1.4-0.4-2
				c-0.1-0.7-0.2-1.3-0.4-1.9c-0.8-3-1.3-3.6-2.8-3.6c-0.3,0-0.8,0-1.3,0.1l-0.4,0.1c0,0,0,0-0.1,0c-0.2,0-0.4-0.2-0.5-0.4l-1-5.1
				c0-0.2,0.1-0.4,0.3-0.5l0.3-0.1c0.2-0.1,0.3-0.1,0.5-0.2l0.1-0.1c0.1,0,0.1,0,0.1-0.1c0,0,0.1,0,0.1,0c1.6-0.5,2-0.9,2.1-2.4
				c0-1.1,0-2.1-0.2-3.1c-0.1-0.9-0.2-1.6-0.3-2.4c-0.2-1.3-0.4-2.7-0.4-4c-0.1-3.3,1.7-5.5,5.1-6.4c0,0,0.1,0,0.1,0
				c0.4,0,0.8-0.1,1.2-0.2l0.1,0c0.4-0.1,0.9-0.2,1.4-0.2H27c0.2,0,0.4,0.2,0.5,0.4l0.9,4.7c0,0.2-0.1,0.5-0.3,0.6
				c0,0-0.8,0.2-0.9,0.3l-0.5,0.2c-1.8,0.2-1.8,0.3-1.6,2.4c0.1,0.6,0.2,1.2,0.3,1.8c0.1,0.6,0.3,1.3,0.3,2l0,0.5
				c0.1,1.2,0.2,2.3,0.2,3.5c0,1.6-0.6,3.1-1.7,4.6c2.9,1.7,3.9,4.6,4.5,7.4c0.1,0.5,0.3,1.1,0.4,1.6l0.1,0.4
				c0.2,0.9,0.4,1.9,0.7,2.8c0.2,0.7,0.3,0.7,0.6,0.7c0.2,0,0.4,0,0.6-0.1c0.6-0.1,1.1-0.2,1.7-0.3l0.4-0.1c0,0,0.1,0,0.1,0
				c0.2,0,0.4,0.2,0.5,0.4l0.9,4.6c0,0.2-0.1,0.5-0.3,0.6L34,61.4C32.6,61.9,31.2,62.2,29.9,62.2z"/>
			<path d="M27,22.7l0.9,4.7l-0.3,0.1c-0.2,0.1-0.4,0.1-0.6,0.2c-0.2,0.1-0.4,0.1-0.5,0.1c-2.2,0.3-2.2,0.8-2,2.9
				c0.1,0.6,0.2,1.3,0.3,1.9c0.1,0.6,0.3,1.3,0.3,2l0,0.3c0.1,1.3,0.2,2.5,0.2,3.7c0,1.6-0.6,3.2-2,4.7c3.2,1.5,4.1,4.4,4.8,7.4
				c0.2,0.6,0.3,1.3,0.5,2c0.2,0.9,0.4,1.9,0.7,2.9c0.2,0.9,0.6,1.1,1.1,1.1c0.2,0,0.4,0,0.7-0.1c0.6-0.1,1.1-0.2,1.7-0.3l0.4-0.1
				l0.9,4.6l-0.3,0.1c-1.4,0.5-2.7,0.8-3.9,0.8c-2.5,0-4.3-1.1-5.2-3.2c-0.4-1.2-0.9-2.4-1.2-3.7c-0.2-0.7-0.3-1.3-0.4-2
				c-0.1-0.6-0.2-1.3-0.4-1.9c-0.8-3.1-1.4-4-3.3-4c-0.4,0-0.8,0-1.4,0.1L17.7,47l-1-5.1l0.3-0.1c0.1-0.1,0.3-0.1,0.4-0.2
				c0.1-0.1,0.2-0.1,0.3-0.1c1.8-0.5,2.3-1.1,2.4-2.9c0-1.2,0-2.2-0.2-3.2c-0.1-0.8-0.2-1.6-0.3-2.4c-0.2-1.3-0.4-2.6-0.4-3.9
				c-0.1-3.1,1.5-5.1,4.8-5.9c0.5,0,0.9-0.1,1.3-0.2c0.4-0.1,0.9-0.2,1.4-0.2H27 M27,21.7h-0.3c-0.6,0-1.1,0.1-1.5,0.2l-0.1,0
				c-0.4,0.1-0.7,0.2-1.1,0.2c-0.1,0-0.1,0-0.2,0c-3.7,0.9-5.6,3.4-5.5,6.9c0,1.4,0.2,2.7,0.4,4l0,0.1c0.1,0.8,0.3,1.6,0.3,2.3
				c0,0,0,0.1,0,0.1c0.2,0.9,0.2,1.9,0.2,3c-0.1,1.2-0.2,1.5-1.7,1.9c-0.1,0-0.1,0.1-0.2,0.1c0,0-0.1,0-0.1,0c0,0-0.1,0-0.1,0.1
				c-0.2,0.1-0.3,0.1-0.4,0.2c0,0-0.1,0-0.1,0L16.3,41c-0.4,0.2-0.6,0.6-0.5,1.1l1,5.1c0.1,0.5,0.5,0.8,1,0.8c0,0,0.1,0,0.1,0
				l0.4-0.1c0.5-0.1,0.9-0.1,1.2-0.1c1.1,0,1.5,0.1,2.3,3.2c0.1,0.5,0.2,1.2,0.3,1.8l0,0.1c0.1,0.7,0.2,1.4,0.4,2.1
				c0.3,1.3,0.8,2.5,1.2,3.7l0,0.1c0,0,0,0,0,0.1c1.1,2.4,3.3,3.8,6.1,3.8c1.3,0,2.8-0.3,4.2-0.8l0.3-0.1c0.5-0.2,0.7-0.6,0.6-1.1
				l-0.9-4.6c-0.1-0.5-0.5-0.8-1-0.8c-0.1,0-0.1,0-0.2,0l-0.4,0.1c-0.6,0.1-1.2,0.2-1.7,0.3c-0.2,0-0.3,0-0.5,0c0,0,0,0,0,0
				c0-0.1-0.1-0.2-0.1-0.3c0,0,0,0,0-0.1c-0.3-0.9-0.5-1.9-0.7-2.7l-0.1-0.4c-0.1-0.5-0.2-1.1-0.4-1.7c-0.7-2.8-1.6-5.6-4.3-7.4
				c1-1.4,1.5-2.9,1.5-4.4c0-1.2-0.1-2.3-0.2-3.5l0-0.2l0-0.3c-0.1-0.8-0.2-1.5-0.3-2.1c-0.1-0.6-0.2-1.2-0.3-1.7
				c-0.1-0.6-0.1-1.4,0-1.5c0,0,0.2-0.2,1.2-0.3c0,0,0.1,0,0.1,0l0.5-0.2c0.1,0,0.3-0.1,0.4-0.1l0.2-0.1l0.3-0.1
				c0.5-0.2,0.8-0.6,0.7-1.1L28,22.5C27.9,22,27.5,21.7,27,21.7L27,21.7z"/>
		</g>
	</g>
	<g>
		<g>
			<path class="st0" d="M52.9,58c-0.1,0-0.2,0-0.3-0.1c-0.1-0.1-0.2-0.2-0.2-0.3l-0.9-4.8c-0.1-0.3,0.1-0.5,0.4-0.6l0.4-0.1
				c0.2,0,0.7-0.2,0.7-0.2c0.2-0.1,0.5-0.1,0.7-0.2c1.2-0.3,1.4-0.5,1.2-1.8c-0.2-1.6-0.4-3.1-0.7-4.7l-0.1-0.9
				c-0.3-2.3-0.3-5,1.6-7.3c-1.5-0.9-2.5-2-3-3.3c-0.5-1.2-0.8-2.5-1.1-3.7l-0.1-0.5c-0.2-0.7-0.4-1.3-0.6-2c-0.2-1-0.4-2.1-0.7-3.1
				c-0.2-0.5-0.5-0.6-0.7-0.6c-0.1,0-0.2,0-0.3,0c-0.6,0.1-1.2,0.2-2,0.3l-0.4,0.1c0,0,0,0-0.1,0c-0.2,0-0.4-0.2-0.5-0.4l-0.9-4.6
				c0-0.2,0.1-0.5,0.3-0.6l0.3-0.1c0.8-0.3,1.7-0.6,2.7-0.7c0.5-0.1,1-0.1,1.4-0.1c3.2,0,5.5,2,6.2,5.5c0.4,1.7,0.8,3.6,1.2,5.4
				l0.1,0.2c0.2,0.8,0.6,1.8,1,2.8c0.4,0.9,0.8,1.1,1.6,1.1c0.2,0,0.4,0,0.7,0c0.4-0.1,0.7-0.1,1.1-0.1h0.3c0.2,0,0.4,0.2,0.5,0.4
				l0.9,5c0,0.2,0,0.3-0.1,0.4l-0.1,0.1c-0.2,0.2-0.5,0.3-0.7,0.3c0,0-0.1,0.1-0.2,0.1c-1.8,0.6-2.4,1.3-2.2,3
				c0.1,1.4,0.3,2.8,0.5,4.2c0.2,1.7,0.4,3.2,0.4,4.8c-0.1,3.3-1.8,5.4-5,6.2c-0.5,0.1-1,0.2-1.5,0.3c-0.5,0.1-0.9,0.2-1.4,0.3
				L53,58C53,58,53,58,52.9,58z"/>
			<path d="M50,18.3c3,0,5,1.8,5.8,5.1c0.4,1.7,0.8,3.6,1.2,5.4l0.1,0.2c0.3,0.9,0.6,1.9,1,2.9c0.5,1.1,1.1,1.4,2.1,1.4
				c0.2,0,0.5,0,0.8-0.1c0.3-0.1,0.6-0.1,1-0.1h0.3l0.9,5l-0.1,0.1c-0.1,0.1-0.3,0.2-0.4,0.2c-0.1,0-0.1,0-0.2,0.1
				c-2.1,0.6-2.7,1.6-2.5,3.5c0.1,1.4,0.3,2.9,0.5,4.2c0.2,1.6,0.4,3.1,0.4,4.7c-0.1,3.1-1.6,4.9-4.7,5.7c-0.5,0.1-1,0.2-1.5,0.3
				c-0.5,0.1-0.9,0.2-1.4,0.3l-0.4,0.1L52,52.7l0.4-0.1c0.3-0.1,0.5-0.1,0.8-0.2c0.2-0.1,0.5-0.1,0.7-0.2c1.5-0.4,1.8-0.8,1.6-2.3
				c-0.2-1.7-0.4-3.2-0.7-4.9l-0.1-0.7c-0.3-2.4-0.3-5.1,1.8-7.4c-1.7-0.9-2.8-2-3.3-3.4c-0.5-1.2-0.8-2.5-1.1-3.7
				c-0.2-0.8-0.4-1.6-0.7-2.4c-0.2-1.1-0.4-2.1-0.7-3.1c-0.2-0.6-0.6-1-1.2-1c-0.1,0-0.3,0-0.4,0.1c-0.5,0.1-1.2,0.2-1.9,0.3
				l-0.4,0.1l-0.9-4.6l0.3-0.1c0.7-0.3,1.6-0.6,2.6-0.7C49.1,18.4,49.6,18.3,50,18.3 M50,17.3c-0.5,0-1,0-1.5,0.1
				c-1,0.1-2,0.4-2.8,0.7l-0.3,0.1c-0.4,0.2-0.7,0.6-0.6,1.1l0.9,4.6c0.1,0.5,0.5,0.8,1,0.8c0,0,0.1,0,0.1,0l0.4-0.1
				c0.8-0.1,1.4-0.2,2-0.3c0.1,0,0.2,0,0.3,0c0.1,0,0.2,0,0.3,0.2c0.3,0.9,0.5,2,0.7,3c0,0,0,0.1,0,0.1c0.2,0.7,0.4,1.3,0.6,2
				l0.1,0.4c0.3,1.2,0.7,2.5,1.2,3.8c0.5,1.3,1.4,2.4,2.8,3.3c-1.6,2.4-1.6,5.1-1.4,7.2l0.1,0.8l0,0.2c0.3,1.6,0.5,3.1,0.7,4.7
				c0.1,1,0.1,1-0.8,1.3c-0.2,0-0.5,0.1-0.7,0.2c-0.2,0.1-0.5,0.1-0.7,0.2l-0.4,0.1c-0.5,0.1-0.9,0.6-0.8,1.2l0.9,4.8
				c0,0.3,0.2,0.5,0.4,0.6c0.2,0.1,0.4,0.2,0.6,0.2c0.1,0,0.1,0,0.2,0l0.4-0.1c0.4-0.1,0.9-0.2,1.4-0.3c0.5-0.1,1-0.2,1.5-0.3
				c3.5-0.9,5.3-3.1,5.4-6.6c0-1.7-0.2-3.2-0.4-4.9c-0.2-1.4-0.4-2.8-0.5-4.2c-0.1-1.4,0.1-2,1.8-2.5c0.1,0,0.1,0,0.2-0.1l0,0
				c0.2,0,0.6-0.1,0.9-0.5l0.1-0.1c0.2-0.2,0.3-0.6,0.3-0.9l-0.9-5c-0.1-0.5-0.5-0.8-1-0.8H62c-0.4,0-0.8,0-1.2,0.1
				c-0.3,0-0.4,0-0.6,0c-0.6,0-0.8-0.1-1.2-0.9c-0.4-0.9-0.7-1.8-1-2.7l0-0.2c-0.4-1.8-0.8-3.6-1.2-5.4C55.9,19.4,53.5,17.3,50,17.3
				L50,17.3z"/>
		</g>
	</g>
	<g>
		<g>
			<path class="st0" d="M49.1,41.8c-1.7,0-3.2-1.2-3.5-2.9c-0.1-1,0.1-2,0.6-2.7c0.6-0.8,1.4-1.3,2.3-1.4c0.2,0,0.3,0,0.5,0
				c1.8,0,3.3,1.3,3.6,2.9c0.1,1.1-0.2,2.3-0.9,3.1c-0.6,0.7-1.4,1-2.2,1.1C49.4,41.8,49.2,41.8,49.1,41.8z"/>
			<path d="M49,35.2c1.5,0,2.9,1.1,3.1,2.5c0.1,1-0.2,2-0.8,2.7c-0.5,0.6-1.2,0.9-1.9,0.9c-0.1,0-0.3,0-0.4,0c-1.5,0-2.7-1-3.1-2.5
				c-0.3-1.8,0.9-3.3,2.6-3.6C48.8,35.2,48.9,35.2,49,35.2 M49,34.2c-0.2,0-0.4,0-0.6,0c-2.2,0.3-3.7,2.4-3.4,4.7c0,0,0,0,0,0.1
				c0.4,1.9,2.1,3.3,4,3.3c0.1,0,0.3,0,0.5,0c1,0,1.9-0.5,2.5-1.2c0.8-0.9,1.2-2.2,1-3.4C52.8,35.7,51,34.2,49,34.2L49,34.2z"/>
		</g>
	</g>
</g>
</svg>
