<svg xmlns="http://www.w3.org/2000/svg"  viewBox="0 0 64 64"><defs fill="#D3D3D3" /><path  d="m64,48h-12c0-5.1-1.4-9.44-3.91-12.76.92-.16,1.89-.24,2.91-.24,8.02,0,13,4.98,13,13ZM13,32c4.32,0,7-2.68,7-7s-2.68-7-7-7-7,2.68-7,7,2.68,7,7,7Zm38,0c4.32,0,7-2.68,7-7s-2.68-7-7-7-7,2.68-7,7,2.68,7,7,7Zm-19-4c4.94,0,8-3.06,8-8s-3.06-8-8-8-8,3.06-8,8,3.06,8,8,8Zm0,4c-9.87,0-16,6.13-16,16h32c0-9.87-6.13-16-16-16ZM0,48h12c0-5.1,1.4-9.44,3.91-12.76-.92-.16-1.89-.24-2.91-.24-8.02,0-13,4.98-13,13Z" fill="#D3D3D3" /></svg>