<svg version="1.1" id="mrakcw.cc.ua" xmlns="http://www.w3.org/2000/svg" xmlns:xlink="http://www.w3.org/1999/xlink" x="0px" y="0px" viewBox="0 0 177 32" style="enable-background:new 0 0 177 32;" xml:space="preserve">
<style type="text/css">
	.st0{fill:#FFFFFF;stroke:#FFFFFF;stroke-width:0.5;stroke-linecap:round;stroke-linejoin:round;stroke-miterlimit:10}.st1{stroke:#FFFFFF;stroke-width:0.25;stroke-linecap:round;stroke-linejoin:round;stroke-miterlimit:10}.st2{fill:none}.st3{fill:#FFFFFF}.st4{stroke:#000000;stroke-width:0.25;stroke-miterlimit:10;}
</style>
<title>MrakCw Design 👑 → Jun.Web.Dev</title>
<desc>Navbar logo 2022</desc>
	<g>
		<path class="st0" d="M28.4,29c1-3,1.9-6,2.9-8.9c0.4-1.2,0.8-2.5,1.2-3.8c0.4-1.3,0.8-2.7,1.2-4c0.4-1.3,0.8-2.6,1.1-3.8
			c0.4-1.2,0.7-2.4,0.9-3.4c1.2,0,2.4-0.1,3.5-0.2c1.1-0.1,2.3-0.3,3.6-0.4c-0.1,0.5-0.1,1.1-0.2,1.7c-0.1,0.6-0.2,1.3-0.3,2
			c-0.1,0.7-0.2,1.4-0.3,2.1c-0.1,0.7-0.3,1.7-0.4,2.8c-0.2,1.1-0.4,2.6-0.6,4.3h0.4c0.7-1.7,1.2-3.2,1.6-4.3
			c0.4-1.1,0.8-2.1,1.1-2.8C44.4,9.4,44.7,8.7,45,8s0.6-1.3,0.8-2c0.3-0.6,0.5-1.2,0.7-1.6c0.6,0,1.1-0.1,1.6-0.2
			c0.5-0.1,1-0.1,1.5-0.2c0.5-0.1,1-0.2,1.5-0.2c0.5-0.1,1.1-0.2,1.7-0.3c-0.2,1.3-0.4,2.7-0.6,4c-0.2,1.4-0.4,2.8-0.5,4.1
			c-0.2,1.4-0.3,2.7-0.5,4.1s-0.3,2.6-0.4,3.8c-0.3,2.8-0.5,5.6-0.7,8.2l-5.9,1.1c0-0.1,0-0.4,0.1-0.9c0-0.5,0.1-1.1,0.1-1.8
			c0.1-0.7,0.1-1.5,0.2-2.4c0.1-0.9,0.2-1.8,0.3-2.7s0.2-1.7,0.3-2.6c0.1-0.8,0.2-1.5,0.3-2.1h-0.3c-0.3,1-0.7,2-1.1,3
			c-0.4,1.1-0.8,2.1-1.2,3.2c-0.4,1.1-0.8,2.2-1.2,3.2c-0.4,1-0.7,2-1,3c-0.8,0-1.5,0.1-2,0.1s-1.2,0.1-2,0.1l1.1-12.6h-0.5
			c0,0.3-0.2,0.8-0.3,1.5c-0.2,0.7-0.4,1.5-0.6,2.4c-0.2,0.9-0.5,1.8-0.8,2.8c-0.3,1-0.5,1.9-0.8,2.7c-0.2,0.8-0.4,1.5-0.6,2
			c-0.2,0.5-0.3,0.8-0.3,0.9L28.4,29z"/>
		<path class="st0" d="M53.1,29.2c0.5-2.3,0.9-4.5,1.3-6.6c0.2-0.9,0.3-1.9,0.5-2.9c0.2-1,0.4-2,0.5-3c0.2-1,0.3-1.9,0.5-2.8
			c0.1-0.9,0.3-1.7,0.3-2.5c1-0.3,2-0.5,3.1-0.7c1.1-0.1,2.2-0.2,3.3-0.2c0.7,0,1.2,0.1,1.6,0.2c0.4,0.2,0.8,0.4,1,0.7
			c0.2,0.3,0.4,0.6,0.5,1c0.1,0.4,0.2,0.8,0.2,1.2c0,0.7-0.1,1.3-0.4,2c-0.2,0.7-0.6,1.3-1,1.9c-0.4,0.6-0.9,1.1-1.4,1.6
			c-0.5,0.5-1.1,0.9-1.7,1.2c0.3,0.7,0.6,1.4,1,2.2c0.3,0.8,0.7,1.6,1,2.3c0.3,0.9,0.7,1.7,1,2.6l-4,1.4c-0.3-1.1-0.6-2.1-0.9-3.1
			c-0.1-0.4-0.2-0.8-0.4-1.2c-0.1-0.4-0.2-0.8-0.3-1.2c-0.1-0.4-0.2-0.7-0.3-1c-0.1-0.3-0.1-0.5-0.1-0.7l-0.3,0.1
			c-0.1,0.5-0.2,1.2-0.4,1.9s-0.3,1.4-0.4,2.1c-0.2,0.8-0.3,1.6-0.5,2.4L53.1,29.2z M59.1,18.1c0.3,0,0.7-0.2,1.2-0.4
			c0.5-0.2,0.9-0.5,1.3-0.9c0.4-0.3,0.8-0.7,1.1-1c0.3-0.4,0.5-0.7,0.5-0.9c0-0.2-0.1-0.3-0.2-0.4c-0.1-0.1-0.3-0.2-0.5-0.3
			c-0.2-0.1-0.4-0.1-0.7-0.1c-0.3,0-0.5,0-0.8,0c-0.2,0-0.4,0-0.6,0c-0.2,0-0.4,0-0.5,0L59.1,18.1z"/>
		<path class="st0" d="M74.2,28.9c-0.5,0.1-1,0.2-1.4,0.2c0.1-0.6,0.1-1.1,0.2-1.7c0.1-0.5,0.1-1,0.1-1.4c0-0.5,0.1-0.9,0.1-1.2H71
			l-1,3.7c-0.4,0.1-0.8,0.1-1.3,0.2c-0.5,0.1-1,0.1-1.4,0.2c-0.5,0.1-1.1,0.1-1.6,0.2c0.7-2.3,1.4-4.5,2-6.7
			c0.3-0.9,0.6-1.9,0.9-2.9c0.3-1,0.6-2,0.9-3c0.3-1,0.6-2,0.9-2.9c0.3-0.9,0.5-1.8,0.7-2.5c1.2-0.1,2.3-0.2,3.5-0.3
			c1.2-0.1,2.4-0.3,3.5-0.5c-0.1,0.5-0.1,1.2-0.2,2c-0.1,0.8-0.1,1.7-0.2,2.6c-0.1,1-0.1,1.9-0.2,3c-0.1,1-0.1,2.1-0.2,3.1
			c-0.1,2.3-0.2,4.8-0.3,7.5c-0.5,0.1-1,0.2-1.5,0.2C75.1,28.7,74.7,28.8,74.2,28.9z M71.6,22.3c0.1,0,0.2,0,0.4,0
			c0.2,0,0.4,0,0.6,0c0.2,0,0.4,0,0.5,0c0.2,0,0.3,0,0.4,0c0-0.1,0-0.3,0-0.5c0-0.2,0.1-0.5,0.1-0.8c0-0.3,0.1-0.7,0.1-1
			c0-0.4,0.1-0.7,0.1-1.1c0.1-0.9,0.2-1.8,0.3-2.8l0.2-2.2l-0.4,0l-0.6,2.2L71.6,22.3z"/>
		<path class="st0" d="M79.3,29.2c0.5-2.4,1-4.7,1.4-6.9c0.2-1,0.3-2,0.5-3c0.2-1,0.4-2.1,0.5-3.1s0.3-2,0.4-3
			c0.1-1,0.2-1.8,0.3-2.6c0.4,0,0.8,0.1,1.3,0.1c0.5,0,1,0.1,1.4,0.1c0.5,0,1,0.1,1.5,0.1c0,0.1,0,0.2-0.1,0.4
			c0,0.2-0.1,0.4-0.1,0.7c-0.1,0.3-0.1,0.6-0.2,0.9c-0.1,0.3-0.1,0.6-0.2,1c-0.1,0.7-0.3,1.6-0.5,2.5l0.2,0c0.2-0.3,0.4-0.6,0.7-1.1
			c0.3-0.5,0.6-1,1-1.5s0.7-1.1,1-1.6c0.3-0.5,0.6-0.9,0.8-1.3c0.9-0.1,1.7-0.1,2.6-0.2c0.9-0.1,1.7-0.2,2.6-0.3
			c-0.8,1.1-1.6,2.1-2.3,3.2c-0.3,0.4-0.7,0.9-1,1.4c-0.3,0.5-0.7,0.9-1,1.4c-0.3,0.5-0.6,0.9-0.9,1.3c-0.3,0.4-0.5,0.8-0.8,1.2
			c0.4,1.7,0.8,3.4,1.3,5c0.5,1.6,1,3.2,1.6,4.9c-0.4,0-0.8,0-1.2,0c-0.4,0-0.8,0-1.2,0c-0.5,0-1,0-1.4,0c-0.5,0-0.9,0-1.4,0
			c-0.2-1.1-0.3-2.3-0.5-3.5c-0.2-1.2-0.3-2.4-0.5-3.5L84.7,22c-0.1,0.5-0.3,1.1-0.4,1.9c-0.1,0.7-0.3,1.5-0.4,2.2
			c-0.2,0.8-0.3,1.7-0.5,2.5L79.3,29.2z"/>
		<path class="st0" d="M105.5,25.1c-0.7,0.9-1.4,1.7-2.1,2.3c-0.7,0.6-1.5,1.1-2.2,1.4c-0.7,0.3-1.5,0.4-2.2,0.4
			c-0.7,0-1.3-0.2-1.9-0.5c-0.6-0.3-1.1-0.8-1.5-1.4c-0.4-0.6-0.8-1.4-1-2.3c-0.3-0.9-0.4-2-0.4-3.3c0-2.1,0.3-4.2,0.9-6.3
			s1.4-3.9,2.5-5.6c1.1-1.7,2.3-3,3.8-4s3.1-1.5,4.8-1.5c0.5,0,1.1,0.1,1.6,0.3c0.5,0.2,0.9,0.5,1.3,1c0.4,0.4,0.7,0.9,0.9,1.5
			c0.2,0.6,0.3,1.2,0.3,2c0,0.1,0,0.3,0,0.4c0,0.1,0,0.3,0,0.5l-4.5,1.2c-0.3-0.6-0.6-0.9-1-0.9c-0.4,0-0.7,0.2-1.1,0.6
			c-0.4,0.4-0.8,1-1.2,1.6c-0.4,0.7-0.8,1.4-1.1,2.2c-0.4,0.8-0.7,1.7-1,2.5c-0.3,0.8-0.5,1.6-0.7,2.4c-0.2,0.8-0.3,1.4-0.3,1.9
			c0,0.7,0.1,1.2,0.3,1.5s0.4,0.4,0.8,0.4c0.2,0,0.5-0.1,0.9-0.3c0.3-0.2,0.6-0.4,0.9-0.7s0.5-0.7,0.7-1c0.2-0.4,0.4-0.8,0.5-1.2
			l3.9,1.6C106.8,23.1,106.2,24.2,105.5,25.1z"/>
		<path class="st0" d="M110.4,29.3l1.9-18.1c0.8,0,1.6-0.1,2.3-0.2s1.4-0.2,2.1-0.3c0,0,0,0.2-0.1,0.5c-0.1,0.3-0.1,0.8-0.2,1.3
			c-0.1,0.5-0.2,1.1-0.3,1.8c-0.1,0.7-0.3,1.6-0.4,2.8c-0.2,1.2-0.5,2.8-0.8,4.9h0.4c0.4-1.6,0.8-2.8,1.1-3.8c0.3-1,0.5-1.8,0.7-2.4
			c0.2-0.6,0.3-1.2,0.5-1.8c0.2-0.6,0.3-1.1,0.5-1.6c0.1-0.5,0.3-0.9,0.3-1.2h0.2c0.3,0,0.6,0,0.9-0.1c0.3,0,0.6-0.1,0.9-0.1
			s0.6-0.1,0.9-0.2c0,0.2-0.1,0.5-0.1,0.9c0,0.5-0.1,1.1-0.2,1.7c-0.1,0.7-0.1,1.4-0.2,2.2c-0.1,0.8-0.1,1.6-0.2,2.4
			c-0.1,0.8-0.1,1.5-0.2,2.2c-0.1,0.7-0.1,1.3-0.2,1.8h0.5l2.4-11c0.6-0.1,1.1-0.2,1.7-0.2c0.5-0.1,1-0.1,1.5-0.2
			c0.5-0.1,1-0.1,1.4-0.2c-0.3,0.7-0.5,1.5-0.8,2.4c-0.3,0.9-0.5,1.8-0.8,2.8c-0.3,1-0.5,1.9-0.8,2.9c-0.2,1-0.5,1.9-0.7,2.9
			c-0.5,2.2-1.1,4.4-1.6,6.7l-5.8,1l1.1-9.8h-0.3l-2.5,9.3L110.4,29.3z"/>
		<path class="st0" d="M152.6,15.5c-0.3,1.3-0.8,2.6-1.4,3.9c-0.6,1.3-1.4,2.6-2.3,3.7c-0.9,1.2-1.9,2.2-3,3.1
			c-1.1,0.9-2.4,1.6-3.7,2.2c-1.3,0.5-2.8,0.8-4.3,0.8c-0.3,0-0.6,0-1-0.1c-0.3,0-0.6-0.1-1-0.1c0.6-3.1,1.2-6.2,1.8-9.2
			c0.2-1.2,0.5-2.5,0.7-3.9c0.2-1.3,0.5-2.7,0.7-4c0.2-1.3,0.4-2.6,0.7-3.8c0.2-1.2,0.4-2.3,0.5-3.3c1-0.2,2-0.4,3-0.5
			c1-0.2,2-0.2,3.1-0.2c1.2,0,2.3,0.2,3.1,0.6c0.9,0.4,1.5,0.9,2.1,1.6c0.5,0.7,0.9,1.5,1.2,2.4c0.3,0.9,0.4,1.9,0.4,2.9
			C153.1,13,152.9,14.2,152.6,15.5z M144.3,13c-0.3,1.2-0.5,2.5-0.8,3.7c-0.3,1.2-0.5,2.6-0.8,3.9c-0.3,1.4-0.5,2.8-0.8,4.5
			c0.5-0.4,1.1-0.9,1.6-1.5c0.5-0.6,1-1.3,1.4-2.2c0.5-0.8,0.9-1.7,1.2-2.6c0.4-0.9,0.7-1.8,1-2.7s0.5-1.7,0.6-2.4s0.2-1.4,0.2-1.9
			c0-0.8-0.2-1.5-0.7-2c-0.5-0.5-1.2-0.7-2.2-0.7C144.8,10.5,144.5,11.8,144.3,13z"/>
		<path class="st0" d="M153.5,29.2l3.3-18.1l8.1-0.7c-0.1,0.4-0.2,0.8-0.3,1.1c-0.1,0.3-0.2,0.7-0.2,1c-0.1,0.3-0.1,0.7-0.2,0.9
			c-0.2,0-0.4,0-0.7,0c-0.3,0-0.7,0-1,0c-0.4,0-0.7,0-1.1,0c-0.4,0-0.7,0-1,0l-0.9,4.6c0.5,0,1-0.1,1.5-0.1c0.4,0,0.8,0,1.1,0
			s0.7,0,0.9,0c-0.1,0.5-0.1,0.9-0.2,1.4c-0.1,0.5-0.1,0.9-0.2,1.4c-0.2,0-0.4,0-0.8,0c-0.4,0-0.8,0-1.2,0c-0.4,0-0.9,0-1.5,0.1
			l-0.9,4.7L162,25l-0.3,2.9L153.5,29.2z"/>
		<path class="st0" d="M165.4,29.4c0.2-2.4,0.4-4.7,0.6-7c0.1-1,0.2-2,0.2-3c0.1-1.1,0.1-2.1,0.2-3.1c0.1-1,0.1-2,0.1-3
			s0.1-1.8,0.1-2.6c0.4,0,0.8,0,1.3,0c0.5,0,0.9,0,1.3-0.1c0.4,0,0.8-0.1,1.4-0.1c-0.2,2-0.3,3.6-0.5,4.9c-0.1,1.3-0.2,2.3-0.3,3.1
			c-0.1,0.8-0.1,1.6-0.2,2.3c-0.1,0.7-0.1,1.4-0.2,2c-0.1,0.6-0.1,1.2-0.2,1.6h0.5l2.9-13.6c0.5,0,0.9,0,1.4-0.1
			c0.4,0,0.9-0.1,1.3-0.1c0.5,0,0.9-0.1,1.3-0.1c-0.2,0.7-0.5,1.6-0.7,2.5c-0.2,0.9-0.5,1.8-0.8,2.8c-0.3,1-0.5,2-0.8,3
			c-0.2,1-0.5,2-0.7,2.9c-0.5,2.2-1.1,4.4-1.6,6.8L165.4,29.4z"/>
		<path class="st1" d="M27.3,28.1c1-3,1.9-6,2.9-8.9c0.4-1.2,0.8-2.5,1.2-3.8c0.4-1.3,0.8-2.7,1.2-4c0.4-1.3,0.8-2.6,1.1-3.8
			c0.4-1.2,0.7-2.4,0.9-3.4c1.2,0,2.4-0.1,3.5-0.2c1.1-0.1,2.3-0.3,3.6-0.4c-0.1,0.5-0.1,1.1-0.2,1.7c-0.1,0.6-0.2,1.3-0.3,2
			c-0.1,0.7-0.2,1.4-0.3,2.1c-0.1,0.7-0.3,1.7-0.4,2.8c-0.2,1.1-0.4,2.6-0.6,4.3h0.4c0.7-1.7,1.2-3.2,1.6-4.3
			c0.4-1.1,0.8-2.1,1.1-2.8c0.3-0.7,0.5-1.4,0.8-2.1s0.6-1.3,0.8-2C45,4.5,45.2,4,45.4,3.5c0.6,0,1.1-0.1,1.6-0.2
			c0.5-0.1,1-0.1,1.5-0.2C49,3,49.5,3,50.1,2.9c0.5-0.1,1.1-0.2,1.7-0.3c-0.2,1.3-0.4,2.7-0.6,4c-0.2,1.4-0.4,2.8-0.5,4.1
			c-0.2,1.4-0.3,2.7-0.5,4.1s-0.3,2.6-0.4,3.8c-0.3,2.8-0.5,5.6-0.7,8.2l-5.9,1.1c0-0.1,0-0.4,0.1-0.9c0-0.5,0.1-1.1,0.1-1.8
			c0.1-0.7,0.1-1.5,0.2-2.4c0.1-0.9,0.2-1.8,0.3-2.7s0.2-1.7,0.3-2.6c0.1-0.8,0.2-1.5,0.3-2.1h-0.3c-0.3,1-0.7,2-1.1,3
			c-0.4,1.1-0.8,2.1-1.2,3.2c-0.4,1.1-0.8,2.2-1.2,3.2c-0.4,1-0.7,2-1,3c-0.8,0-1.5,0.1-2,0.1s-1.2,0.1-2,0.1l1.1-12.6h-0.5
			c0,0.3-0.2,0.8-0.3,1.5c-0.2,0.7-0.4,1.5-0.6,2.4c-0.2,0.9-0.5,1.8-0.8,2.8c-0.3,1-0.5,1.9-0.8,2.7c-0.2,0.8-0.4,1.5-0.6,2
			c-0.2,0.5-0.3,0.8-0.3,0.9L27.3,28.1z"/>
		<path class="st1" d="M52,28.3c0.5-2.3,0.9-4.5,1.3-6.6c0.2-0.9,0.3-1.9,0.5-2.9c0.2-1,0.4-2,0.5-3c0.2-1,0.3-1.9,0.5-2.8
			c0.1-0.9,0.3-1.7,0.3-2.5c1-0.3,2-0.5,3.1-0.7c1.1-0.1,2.2-0.2,3.3-0.2c0.7,0,1.2,0.1,1.6,0.2c0.4,0.2,0.8,0.4,1,0.7
			c0.2,0.3,0.4,0.6,0.5,1c0.1,0.4,0.2,0.8,0.2,1.2c0,0.7-0.1,1.3-0.4,2c-0.2,0.7-0.6,1.3-1,1.9c-0.4,0.6-0.9,1.1-1.4,1.6
			c-0.5,0.5-1.1,0.9-1.7,1.2c0.3,0.7,0.6,1.4,1,2.2c0.3,0.8,0.7,1.6,1,2.3c0.3,0.9,0.7,1.7,1,2.6l-4,1.4c-0.3-1.1-0.6-2.1-0.9-3.1
			c-0.1-0.4-0.2-0.8-0.4-1.2c-0.1-0.4-0.2-0.8-0.3-1.2c-0.1-0.4-0.2-0.7-0.3-1c-0.1-0.3-0.1-0.5-0.1-0.7l-0.3,0.1
			c-0.1,0.5-0.2,1.2-0.4,1.9c-0.1,0.7-0.3,1.4-0.4,2.1c-0.2,0.8-0.3,1.6-0.5,2.4L52,28.3z M58,17.2c0.3,0,0.7-0.2,1.2-0.4
			c0.5-0.2,0.9-0.5,1.3-0.9c0.4-0.3,0.8-0.7,1.1-1c0.3-0.4,0.5-0.7,0.5-0.9c0-0.2-0.1-0.3-0.2-0.4c-0.1-0.1-0.3-0.2-0.5-0.3
			c-0.2-0.1-0.4-0.1-0.7-0.1c-0.3,0-0.5,0-0.8,0c-0.2,0-0.4,0-0.6,0c-0.2,0-0.4,0-0.5,0L58,17.2z"/>
		<path class="st1" d="M73.1,28c-0.5,0.1-1,0.2-1.4,0.2c0.1-0.6,0.1-1.1,0.2-1.7c0.1-0.5,0.1-1,0.1-1.4c0-0.5,0.1-0.9,0.1-1.2H70
			l-1,3.7c-0.4,0.1-0.8,0.1-1.3,0.2c-0.5,0.1-1,0.1-1.4,0.2c-0.5,0.1-1.1,0.1-1.6,0.2c0.7-2.3,1.4-4.5,2-6.7
			c0.3-0.9,0.6-1.9,0.9-2.9c0.3-1,0.6-2,0.9-3c0.3-1,0.6-2,0.9-2.9c0.3-0.9,0.5-1.8,0.7-2.5c1.2-0.1,2.3-0.2,3.5-0.3
			c1.2-0.1,2.4-0.3,3.5-0.5c-0.1,0.5-0.1,1.2-0.2,2c-0.1,0.8-0.1,1.7-0.2,2.6c-0.1,1-0.1,1.9-0.2,3c-0.1,1-0.1,2.1-0.2,3.1
			c-0.1,2.3-0.2,4.8-0.3,7.5c-0.5,0.1-1,0.2-1.5,0.2C74.1,27.8,73.6,27.9,73.1,28z M70.6,21.4c0.1,0,0.2,0,0.4,0s0.4,0,0.6,0
			s0.4,0,0.5,0c0.2,0,0.3,0,0.4,0c0-0.1,0-0.3,0-0.5c0-0.2,0.1-0.5,0.1-0.8c0-0.3,0.1-0.7,0.1-1c0-0.4,0.1-0.7,0.1-1.1
			c0.1-0.9,0.2-1.8,0.3-2.8l0.2-2.2l-0.4,0L72.2,15L70.6,21.4z"/>
		<path class="st1" d="M78.2,28.3c0.5-2.4,1-4.7,1.4-6.9c0.2-1,0.3-2,0.5-3c0.2-1,0.4-2.1,0.5-3.1s0.3-2,0.4-3
			c0.1-1,0.2-1.8,0.3-2.6c0.4,0,0.8,0.1,1.3,0.1c0.5,0,1,0.1,1.4,0.1c0.5,0,1,0.1,1.5,0.1c0,0.1,0,0.2-0.1,0.4
			c0,0.2-0.1,0.4-0.1,0.7c-0.1,0.3-0.1,0.6-0.2,0.9c-0.1,0.3-0.1,0.6-0.2,1c-0.1,0.7-0.3,1.6-0.5,2.5l0.2,0c0.2-0.3,0.4-0.6,0.7-1.1
			c0.3-0.5,0.6-1,1-1.5c0.3-0.5,0.7-1.1,1-1.6c0.3-0.5,0.6-0.9,0.8-1.3c0.9-0.1,1.7-0.1,2.6-0.2c0.9-0.1,1.7-0.2,2.6-0.3
			c-0.8,1.1-1.6,2.1-2.3,3.2c-0.3,0.4-0.7,0.9-1,1.4c-0.3,0.5-0.7,0.9-1,1.4c-0.3,0.5-0.6,0.9-0.9,1.3c-0.3,0.4-0.5,0.8-0.8,1.2
			c0.4,1.7,0.8,3.4,1.3,5c0.5,1.6,1,3.2,1.6,4.9c-0.4,0-0.8,0-1.2,0c-0.4,0-0.8,0-1.2,0c-0.5,0-1,0-1.4,0c-0.5,0-0.9,0-1.4,0
			c-0.2-1.1-0.3-2.3-0.5-3.5c-0.2-1.2-0.3-2.4-0.5-3.5l-0.5,0.5c-0.1,0.5-0.3,1.1-0.4,1.9c-0.1,0.7-0.3,1.5-0.4,2.2
			c-0.2,0.8-0.3,1.7-0.5,2.5L78.2,28.3z"/>
		<path class="st1" d="M104.4,24.2c-0.7,0.9-1.4,1.7-2.1,2.3c-0.7,0.6-1.5,1.1-2.2,1.4c-0.7,0.3-1.5,0.4-2.2,0.4
			c-0.7,0-1.3-0.2-1.9-0.5c-0.6-0.3-1.1-0.8-1.5-1.4c-0.4-0.6-0.8-1.4-1-2.3c-0.3-0.9-0.4-2-0.4-3.3c0-2.1,0.3-4.2,0.9-6.3
			s1.4-3.9,2.5-5.6c1.1-1.7,2.3-3,3.8-4s3.1-1.5,4.8-1.5c0.5,0,1.1,0.1,1.6,0.3c0.5,0.2,0.9,0.5,1.3,1c0.4,0.4,0.7,0.9,0.9,1.5
			c0.2,0.6,0.3,1.2,0.3,2c0,0.1,0,0.3,0,0.4s0,0.3,0,0.5l-4.5,1.2c-0.3-0.6-0.6-0.9-1-0.9c-0.4,0-0.7,0.2-1.1,0.6
			c-0.4,0.4-0.8,1-1.2,1.6c-0.4,0.7-0.8,1.4-1.1,2.2c-0.4,0.8-0.7,1.7-1,2.5c-0.3,0.8-0.5,1.6-0.7,2.4c-0.2,0.8-0.3,1.4-0.3,1.9
			c0,0.7,0.1,1.2,0.3,1.5c0.2,0.3,0.4,0.4,0.8,0.4c0.2,0,0.5-0.1,0.9-0.3c0.3-0.2,0.6-0.4,0.9-0.7s0.5-0.7,0.7-1
			c0.2-0.4,0.4-0.8,0.5-1.2l3.9,1.6C105.7,22.2,105.1,23.3,104.4,24.2z"/>
		<path class="st1" d="M109.4,28.4l1.9-18.1c0.8,0,1.6-0.1,2.3-0.2c0.7-0.1,1.4-0.2,2.1-0.3c0,0,0,0.2-0.1,0.5
			c-0.1,0.3-0.1,0.8-0.2,1.3c-0.1,0.5-0.2,1.1-0.3,1.8c-0.1,0.7-0.3,1.6-0.4,2.8c-0.2,1.2-0.5,2.8-0.8,4.9h0.4
			c0.4-1.6,0.8-2.8,1.1-3.8c0.3-1,0.5-1.8,0.7-2.4s0.3-1.2,0.5-1.8c0.2-0.6,0.3-1.1,0.5-1.6c0.1-0.5,0.3-0.9,0.3-1.2h0.2
			c0.3,0,0.6,0,0.9-0.1c0.3,0,0.6-0.1,0.9-0.1s0.6-0.1,0.9-0.2c0,0.2-0.1,0.5-0.1,0.9s-0.1,1.1-0.2,1.7c-0.1,0.7-0.1,1.4-0.2,2.2
			c-0.1,0.8-0.1,1.6-0.2,2.4c-0.1,0.8-0.1,1.5-0.2,2.2c-0.1,0.7-0.1,1.3-0.2,1.8h0.5l2.4-11c0.6-0.1,1.1-0.2,1.7-0.2
			c0.5-0.1,1-0.1,1.5-0.2c0.5-0.1,1-0.1,1.4-0.2c-0.3,0.7-0.5,1.5-0.8,2.4s-0.5,1.8-0.8,2.8c-0.3,1-0.5,1.9-0.8,2.9
			c-0.2,1-0.5,1.9-0.7,2.9c-0.5,2.2-1.1,4.4-1.6,6.7l-5.8,1l1.1-9.8h-0.3l-2.5,9.3L109.4,28.4z"/>
		<path class="st1" d="M151.5,14.7c-0.3,1.3-0.8,2.6-1.4,3.9c-0.6,1.3-1.4,2.6-2.3,3.7s-1.9,2.2-3,3.1c-1.1,0.9-2.4,1.6-3.7,2.2
			c-1.3,0.5-2.8,0.8-4.3,0.8c-0.3,0-0.6,0-1-0.1c-0.3,0-0.6-0.1-1-0.1c0.6-3.1,1.2-6.2,1.8-9.2c0.2-1.2,0.5-2.5,0.7-3.9
			c0.2-1.3,0.5-2.7,0.7-4c0.2-1.3,0.4-2.6,0.7-3.8c0.2-1.2,0.4-2.3,0.5-3.3c1-0.2,2-0.4,3-0.5c1-0.2,2-0.2,3.1-0.2
			c1.2,0,2.3,0.2,3.1,0.6c0.9,0.4,1.5,0.9,2.1,1.6c0.5,0.7,0.9,1.5,1.2,2.4c0.3,0.9,0.4,1.9,0.4,2.9C152,12.1,151.9,13.3,151.5,14.7
			z M143.2,12.1c-0.3,1.2-0.5,2.5-0.8,3.7c-0.3,1.2-0.5,2.6-0.8,3.9c-0.3,1.4-0.5,2.8-0.8,4.5c0.5-0.4,1.1-0.9,1.6-1.5
			c0.5-0.6,1-1.3,1.4-2.2c0.5-0.8,0.9-1.7,1.2-2.6c0.4-0.9,0.7-1.8,1-2.7c0.3-0.9,0.5-1.7,0.6-2.4s0.2-1.4,0.2-1.9
			c0-0.8-0.2-1.5-0.7-2S145,8.2,144,8.2C143.7,9.6,143.5,10.9,143.2,12.1z"/>
		<path class="st1" d="M152.4,28.3l3.3-18.1l8.1-0.7c-0.1,0.4-0.2,0.8-0.3,1.1c-0.1,0.3-0.2,0.7-0.2,1c-0.1,0.3-0.1,0.7-0.2,0.9
			c-0.2,0-0.4,0-0.7,0c-0.3,0-0.7,0-1,0c-0.4,0-0.7,0-1.1,0c-0.4,0-0.7,0-1,0l-0.9,4.6c0.5,0,1-0.1,1.5-0.1c0.4,0,0.8,0,1.1,0
			c0.4,0,0.7,0,0.9,0c-0.1,0.5-0.1,0.9-0.2,1.4c-0.1,0.5-0.1,0.9-0.2,1.4c-0.2,0-0.4,0-0.8,0c-0.4,0-0.8,0-1.2,0
			c-0.4,0-0.9,0-1.5,0.1l-0.9,4.7l3.7-0.6l-0.3,2.9L152.4,28.3z"/>
		<path class="st1" d="M164.3,28.5c0.2-2.4,0.4-4.7,0.6-7c0.1-1,0.2-2,0.2-3c0.1-1.1,0.1-2.1,0.2-3.1c0.1-1,0.1-2,0.1-3
			c0-1,0.1-1.8,0.1-2.6c0.4,0,0.8,0,1.3,0c0.5,0,0.9,0,1.3-0.1c0.4,0,0.8-0.1,1.4-0.1c-0.2,2-0.3,3.6-0.5,4.9
			c-0.1,1.3-0.2,2.3-0.3,3.1c-0.1,0.8-0.1,1.6-0.2,2.3c-0.1,0.7-0.1,1.4-0.2,2c-0.1,0.6-0.1,1.2-0.2,1.6h0.5l2.9-13.6
			c0.5,0,0.9,0,1.4-0.1c0.4,0,0.9-0.1,1.3-0.1c0.5,0,0.9-0.1,1.3-0.1c-0.2,0.7-0.5,1.6-0.7,2.5c-0.2,0.9-0.5,1.8-0.8,2.8
			c-0.3,1-0.5,2-0.8,3c-0.2,1-0.5,2-0.7,2.9c-0.5,2.2-1.1,4.4-1.6,6.8L164.3,28.5z"/>
		<polygon class="st2" points="18.4,12.2 3.8,9.4 2.6,15.5 17.2,18.3 16.7,21.2 23.9,16.4 19,9.4 		"/>
		<path class="st3" d="M19.3,7l-1.5-0.3l-0.7,3.7L2.5,7.6l-1.8,9.1l14.6,2.8l-0.7,3.7l1.5,0.3l9.4-6.1l0.2-1.1L19.3,7z M16.7,21.2l0.6-2.9L2.6,15.5l1.2-6.1l14.6,2.8L19,9.4l4.9,7L16.7,21.2z"/>
		<polygon class="st4" points="18.4,12.2 3.8,9.4 2.6,15.5 17.2,18.3 16.7,21.2 23.9,16.4 19,9.4 			"/>
	</g>
</svg>
