<svg version="1.1" id="mrakcw.tk" xmlns="http://www.w3.org/2000/svg" xmlns:xlink="http://www.w3.org/1999/xlink" x="0px" y="0px" viewBox="0 0 177 32" style="enable-background:new 0 0 177 32;" xml:space="preserve">
	<title>MrakCw Dev 👑</title>
	<desc>Navbar logo 2023</desc>
	<g>
		<use href="#m" fill="#fff" transform="translate(1 1)" />
		<use href="#r" fill="#fff" transform="translate(1 1)" />
		<use href="#a" fill="#fff" transform="translate(1 1)" />
		<use href="#k" fill="#fff" transform="translate(1 1)" />
		<use href="#c" fill="#fff" transform="translate(1 1)" />
		<use href="#w" fill="#fff" transform="translate(1 1)" />
		<use href="#d" fill="#fff" transform="translate(1 1)" />
		<use href="#e" fill="#fff" transform="translate(1 1)" />
		<use href="#v" fill="#fff" transform="translate(1 1)" />
		<use href="#arrow" fill="#fff" stroke="#fff" stroke-width="1.5" stroke-linecap="round" stroke-linejoin="round"/>
	</g>
	<g stroke="#fff" stroke-width="0.5" stroke-linecap="round">
		<path id="m" d="M49.8,18.6c0.1-1.2,0.2-2.4,0.4-3.8c0.2-1.4,0.3-2.7,0.5-4.1C50.8,9.4,51,8,51.2,6.6c0.1-0.9,0.3-1.9,0.4-2.9c0.1-0.4,0.1-0.7,0.2-1.1c-0.6,0.1-1.2,0.2-1.7,0.3C49.5,3,49,3,48.5,3.1c-0.5,0.1-1,0.1-1.5,0.2c-0.5,0.1-1,0.2-1.6,0.2c-0.2,0.5-0.4,1-0.8,1.8c-0.2,0.7-0.5,1.3-0.8,2S43.3,8.7,43,9.4c-0.3,0.7-0.7,1.7-1.1,2.8c-0.1,0.2-0.2,0.5-0.3,0.8c-0.3,1-0.8,2.2-1.3,3.5h-0.4c0.2-1.7,0.4-3.2,0.6-4.3c0.1-1.1,0.3-2.1,0.4-2.8C41,8.7,41.1,8,41.2,7.3c0.1-0.7,0.2-1.4,0.3-2c0-0.2,0.1-0.4,0.1-0.7c0-0.4,0.1-0.7,0.1-1c-1.3,0.1-2.5,0.3-3.6,0.4c-1.1,0.1-2.3,0.2-3.5,0.2c-0.2,1-0.5,2.2-0.9,3.4c-0.3,1.2-0.7,2.5-1.1,3.8c-0.4,1.3-0.8,2.7-1.2,4c-0.4,1.3-0.8,2.6-1.2,3.8c-1,2.9-1.9,5.9-2.9,8.9l1.4-0.1l4.2-0.3c0-0.1,0.1-0.4,0.3-0.9s0.4-1.2,0.6-2c0.3-0.8,0.5-1.7,0.8-2.7c0.3-1,0.6-1.9,0.8-2.8c0.2-0.9,0.4-1.7,0.6-2.4c0.1-0.7,0.3-1.2,0.3-1.5h0.5l-0.4,4.9L35.7,28c0.4,0,0.8,0,1.1,0c0.3,0,0.7-0.1,0.9-0.1c0.5,0,1.2-0.1,2-0.1c0.3-1,0.6-2,1-3c0.4-1,0.8-2.1,1.2-3.2c0.4-1.1,0.8-2.1,1.2-3.2c0.4-1,0.8-2,1.1-3h0.3c-0.1,0.6-0.2,1.3-0.3,2.1c-0.1,0.8-0.2,1.5-0.3,2.2c0,0.1,0,0.3,0,0.4c-0.1,0.9-0.2,1.8-0.3,2.7c-0.1,0.9-0.1,1.7-0.2,2.4c0,0.7-0.1,1.3-0.1,1.8c-0.1,0.5-0.1,0.8-0.1,0.9l1.1-0.2l4.8-0.9C49.3,24.2,49.5,21.4,49.8,18.6z"/>
		<path id="r" d="M62.3,23.9c-0.3-0.7-0.7-1.5-1-2.3c-0.4-0.8-0.7-1.5-1-2.2c0.6-0.3,1.2-0.7,1.7-1.2s1-1,1.4-1.6c0.4-0.6,0.8-1.2,1-1.9c0.3-0.7,0.4-1.3,0.4-2c0-0.4-0.1-0.8-0.2-1.2c-0.1-0.3-0.2-0.5-0.4-0.8c0-0.1-0.1-0.1-0.1-0.2c-0.2-0.3-0.6-0.5-1-0.7c-0.4-0.1-0.9-0.2-1.6-0.2c-1.1,0-2.2,0.1-3.3,0.2c-1.1,0.2-2.1,0.4-3.1,0.7c0,0.8-0.2,1.6-0.3,2.5c-0.2,0.9-0.3,1.8-0.5,2.8c-0.1,1-0.3,2-0.5,3s-0.3,2-0.5,2.9c-0.4,2.1-0.8,4.3-1.3,6.6l1.4-0.4l2.3-0.7c0.2-0.8,0.3-1.6,0.5-2.4c0.1-0.7,0.3-1.4,0.4-2.1c0.2-0.7,0.3-1.4,0.4-1.9l0.3-0.1c0,0.2,0,0.4,0.1,0.7c0.1,0.3,0.2,0.6,0.3,1c0,0.2,0.1,0.4,0.1,0.6c0.1,0.2,0.1,0.4,0.2,0.6c0.2,0.4,0.3,0.8,0.4,1.2c0.3,1,0.6,2,0.9,3.1l0.8-0.3l3.2-1.1C63,25.6,62.6,24.8,62.3,23.9z M58.8,13.2c0.1,0,0.3,0,0.5,0s0.4,0,0.6,0c0.3,0,0.5,0,0.8,0s0.5,0,0.7,0.1c0.2,0.1,0.4,0.2,0.5,0.3c0.1,0.1,0.2,0.2,0.2,0.4c0,0,0,0.1,0,0.1c-0.1,0.2-0.2,0.5-0.5,0.8c-0.3,0.3-0.7,0.7-1.1,1c-0.3,0.3-0.7,0.6-1.1,0.8c-0.1,0-0.1,0.1-0.2,0.1c-0.5,0.2-0.9,0.4-1.2,0.4L58.8,13.2z"/>
		<path id="a" d="M74.5,27.8c0.5,0,1-0.1,1.5-0.2c0.1-2.7,0.2-5.2,0.3-7.5c0.1-1,0.1-2.1,0.2-3.1c0.1-1.1,0.1-2,0.2-3c0.1-0.9,0.1-1.8,0.2-2.6c0-0.3,0.1-0.6,0.1-0.9c0-0.4,0.1-0.8,0.1-1.1c-1.1,0.2-2.3,0.4-3.5,0.5c-1.2,0.1-2.3,0.2-3.5,0.3c-0.2,0.7-0.4,1.6-0.7,2.5c-0.3,0.9-0.6,1.9-0.9,2.9s-0.6,2-0.9,3c-0.3,1-0.6,2-0.9,2.9c-0.6,2.2-1.3,4.4-2,6.7c0.4-0.1,0.9-0.1,1.3-0.2c0.1,0,0.2,0,0.3,0c0.4-0.1,0.9-0.1,1.4-0.2c0.5-0.1,0.9-0.1,1.3-0.2l1-3.7h2.1c0,0.2-0.1,0.5-0.1,0.9c0,0.1,0,0.2,0,0.3c0,0.4,0,0.9-0.1,1.4c-0.1,0.6-0.1,1.1-0.2,1.7c0.4,0,0.8-0.1,1.2-0.2c0.1,0,0.1,0,0.2,0C73.6,27.9,74.1,27.8,74.5,27.8z M70.6,21.4l1.6-6.4l0.7-2h0.4l-0.2,2.2c-0.1,1-0.2,1.8-0.3,2.7c0,0,0,0.1,0,0.1c0,0.4-0.1,0.7-0.1,1.1c0,0.3-0.1,0.7-0.1,1c0,0.3-0.1,0.6-0.1,0.8c0,0.2,0,0.4,0,0.5c-0.1,0-0.2,0-0.4,0c-0.1,0-0.1,0-0.3,0c-0.1,0-0.2,0-0.2,0c-0.2,0-0.4,0-0.6,0S70.7,21.4,70.6,21.4z"/>
		<path id="k" d="M87.8,27.9c0.4,0,0.8,0,1.2,0c0.4,0,0.8,0,1.2,0c-0.6-1.7-1.1-3.3-1.6-4.9s-0.9-3.3-1.3-5c0.3-0.4,0.5-0.8,0.8-1.2c0.3-0.4,0.6-0.8,0.9-1.3s0.7-0.9,1-1.4s0.7-1,1-1.4c0.5-0.7,1-1.4,1.5-2.1c0.3-0.4,0.6-0.7,0.8-1.1c-0.9,0.1-1.7,0.2-2.6,0.3C89.8,9.9,89,9.9,88.1,10c-0.2,0.4-0.5,0.8-0.8,1.3c-0.3,0.5-0.7,1.1-1,1.6c-0.1,0.1-0.1,0.1-0.1,0.2c-0.3,0.4-0.6,0.9-0.9,1.3c-0.3,0.5-0.5,0.8-0.7,1.1h-0.2c0.2-0.9,0.4-1.8,0.5-2.5c0.1-0.4,0.1-0.7,0.2-1c0.1-0.3,0.1-0.6,0.2-0.9c0-0.1,0-0.2,0-0.3c0-0.2,0.1-0.3,0.1-0.4c0.1-0.2,0.1-0.3,0.1-0.4c-0.5,0-1-0.1-1.5-0.1c-0.4,0-0.9-0.1-1.4-0.1s-0.9-0.1-1.3-0.1c-0.1,0.8-0.2,1.6-0.3,2.6s-0.3,2-0.4,3c-0.1,1-0.3,2.1-0.5,3.1c-0.2,1-0.3,2-0.5,3c-0.4,2.2-0.9,4.5-1.4,6.9l1.3-0.1l2.7-0.2c0.2-0.8,0.3-1.7,0.5-2.5c0.1-0.7,0.3-1.5,0.4-2.2c0.1-0.8,0.3-1.4,0.4-1.9l0.5-0.5c0.1,0.8,0.3,1.7,0.4,2.6c0,0.3,0.1,0.6,0.1,0.9c0.2,1.2,0.3,2.4,0.5,3.5c0.3,0,0.7,0,1,0c0.1,0,0.3,0,0.4,0C86.8,27.9,87.3,27.9,87.8,27.9z"/>
		<path id="c" d="M98.6,22.1c-0.2-0.3-0.3-0.8-0.3-1.5c0-0.5,0.1-1.1,0.3-1.9s0.4-1.6,0.7-2.4c0.3-0.8,0.6-1.7,1-2.5c0.3-0.8,0.7-1.5,1.1-2.2c0.4-0.6,0.8-1.2,1.2-1.6c0.4-0.4,0.7-0.6,1.1-0.6c0.4,0,0.7,0.3,1,0.9l4.5-1.2c0-0.2,0-0.4,0-0.5c0-0.1,0-0.3,0-0.4c0-0.8-0.1-1.4-0.3-2c-0.2-0.6-0.5-1.1-0.9-1.5c0,0,0,0,0,0c-0.4-0.5-0.8-0.8-1.3-1c-0.5-0.2-1.1-0.3-1.6-0.3c-1.7,0-3.3,0.5-4.8,1.5s-2.7,2.3-3.8,4c-1.1,1.7-1.9,3.5-2.5,5.6c-0.6,2.1-0.9,4.2-0.9,6.3c0,1.3,0.1,2.4,0.4,3.3c0.2,0.9,0.6,1.7,1,2.3c0.4,0.6,0.9,1.1,1.5,1.4c0,0,0,0,0,0c0.6,0.3,1.2,0.5,1.9,0.5s1.5-0.1,2.2-0.4c0.7-0.3,1.5-0.8,2.2-1.4c0.7-0.6,1.4-1.4,2.1-2.3c0.6-0.8,1.2-1.8,1.7-2.9c0.1-0.1,0.1-0.2,0.2-0.4l-3.9-1.6c-0.1,0.4-0.3,0.8-0.5,1.2c-0.2,0.3-0.4,0.7-0.7,1c-0.3,0.3-0.6,0.5-0.9,0.7c-0.3,0.2-0.6,0.3-0.8,0.3c0,0-0.1,0-0.1,0C99,22.5,98.8,22.4,98.6,22.1z"/>
		<path id="w" d="M123.6,20.5c0.2-1,0.5-1.9,0.7-2.9c0.3-1,0.5-1.9,0.8-2.9c0.3-1,0.5-1.9,0.8-2.8c0.2-0.5,0.3-0.9,0.4-1.3c0.1-0.4,0.2-0.8,0.4-1.1c-0.4,0.1-0.9,0.1-1.4,0.2c-0.5,0.1-1,0.1-1.5,0.2c-0.6,0-1.1,0.1-1.7,0.2l-1.4,6.2l-1,4.8h-0.5c0.1-0.5,0.1-1.1,0.2-1.8s0.1-1.4,0.2-2.2c0.1-0.8,0.1-1.6,0.2-2.4c0.1-0.8,0.1-1.5,0.2-2.2c0.1-0.5,0.2-1.1,0.2-1.5c0-0.1,0-0.2,0-0.2c0-0.4,0.1-0.7,0.1-0.9c-0.3,0.1-0.6,0.2-0.9,0.2c-0.3,0-0.6,0.1-0.9,0.1c-0.3,0.1-0.6,0.1-0.9,0.1h-0.2c0,0.3-0.2,0.7-0.3,1.2c-0.2,0.5-0.3,1-0.5,1.6c-0.2,0.6-0.3,1.2-0.5,1.8c-0.1,0.2-0.1,0.4-0.2,0.7c-0.1,0.5-0.3,1-0.5,1.7c-0.3,1-0.7,2.2-1.1,3.8h-0.4c0.3-2.1,0.6-3.7,0.8-4.9c0.1-1.2,0.3-2.1,0.4-2.8c0.1-0.7,0.2-1.3,0.3-1.8c0.1-0.3,0.1-0.5,0.1-0.7c0-0.2,0-0.4,0.1-0.6c0.1-0.3,0.1-0.5,0.1-0.5c-0.7,0.1-1.4,0.2-2.1,0.3c-0.7,0.1-1.5,0.2-2.3,0.2l-1.9,18.1l1.1-0.2l4-0.5l2.5-9.3h0.3l-0.7,6l-0.4,3.8l1.1-0.2l4.7-0.8C122.5,24.9,123.1,22.7,123.6,20.5z"/>
		<path id="d" d="M141.1,27.6c1.3-0.6,2.6-1.3,3.7-2.2c1.1-0.9,2.1-2,3-3.1c0.9-1.1,1.7-2.4,2.3-3.7c0.6-1.3,1.1-2.6,1.4-3.9c0.4-1.4,0.5-2.6,0.6-3.9c0-1-0.1-2-0.4-2.9c-0.3-0.9-0.7-1.7-1.2-2.4c-0.2-0.2-0.4-0.4-0.5-0.6c-0.4-0.4-0.9-0.8-1.6-1c-0.8-0.4-1.9-0.6-3.1-0.6c-1.1,0-2.1,0-3.1,0.2c-1,0.1-2,0.3-3,0.5c-0.1,1-0.3,2.1-0.5,3.3c-0.3,1.2-0.5,2.5-0.7,3.8c-0.2,1.3-0.5,2.7-0.7,4c-0.2,1.4-0.5,2.7-0.7,3.9c-0.6,3-1.2,6.1-1.8,9.2c0.4,0,0.7,0.1,1,0.1c0.1,0,0.2,0,0.2,0c0.3,0,0.5,0.1,0.8,0.1C138.3,28.4,139.8,28.1,141.1,27.6z M140.8,24.2c0.3-1.7,0.5-3.1,0.8-4.5c0.3-1.3,0.5-2.7,0.8-3.9c0.3-1.2,0.5-2.5,0.8-3.7c0.3-1.2,0.5-2.5,0.8-3.9c1,0,1.6,0.2,2.1,0.7c0.1,0.1,0.2,0.3,0.3,0.4c0.3,0.4,0.4,1,0.4,1.6c0,0.5-0.1,1.2-0.2,1.9c-0.1,0.7-0.3,1.5-0.6,2.4c-0.3,0.9-0.6,1.8-1,2.7c-0.3,0.9-0.7,1.8-1.2,2.6c-0.4,0.9-0.9,1.6-1.4,2.2c0,0-0.1,0.1-0.1,0.1C141.8,23.4,141.3,23.8,140.8,24.2z"/>
		<path id="e" d="M159.3,12.5c0.3,0,0.6,0,1,0c0.4,0,0.7,0,1.1,0c0.3,0,0.7,0,1,0s0.5,0,0.7,0c0.1-0.2,0.1-0.6,0.2-0.9c0-0.3,0.1-0.7,0.2-1c0,0,0-0.1,0-0.1c0.1-0.3,0.2-0.7,0.3-1l-8.1,0.7l-3.3,18.1l1.3-0.2l6.8-1.2l0.2-1.7l0.1-1.2l-2.4,0.4l-1.3,0.2l0.9-4.7c0.6-0.1,1.1-0.1,1.5-0.1c0.4,0,0.8,0,1.2,0c0.4,0,0.6,0,0.8,0c0.1-0.5,0.1-0.9,0.2-1.4c0-0.2,0.1-0.3,0.1-0.5c0-0.3,0.1-0.6,0.1-0.9c-0.2,0-0.5,0-0.9,0c-0.3,0-0.7,0-1.1,0c-0.1,0-0.1,0-0.2,0c-0.4,0-0.9,0.1-1.3,0.1L159.3,12.5z"/>
		<path id="v" d="M172.5,20.8c0.2-0.9,0.5-1.9,0.7-2.9c0.3-1,0.5-2,0.8-3c0.3-1,0.6-1.9,0.8-2.8c0.1-0.5,0.3-1,0.4-1.5c0.1-0.4,0.2-0.7,0.3-1c-0.4,0-0.8,0.1-1.3,0.1c-0.4,0-0.9,0.1-1.3,0.1c-0.5,0.1-0.9,0.1-1.4,0.1l-1.6,7.3l-1.3,6.3h-0.5c0.1-0.4,0.1-1,0.2-1.6c0.1-0.6,0.1-1.3,0.2-2c0.1-0.7,0.1-1.5,0.2-2.3c0.1-0.8,0.2-1.8,0.3-3.1c0.2-1.1,0.3-2.4,0.4-3.9c0-0.3,0.1-0.6,0.1-1c-0.6,0-1,0.1-1.4,0.1c-0.4,0.1-0.8,0.1-1.3,0.1s-0.9,0-1.3,0c0,0.8-0.1,1.6-0.1,2.6s0,2-0.1,3c-0.1,1-0.1,2-0.2,3.1c0,1-0.1,2-0.2,3c-0.2,2.3-0.4,4.6-0.6,7l1.2-0.2l5.4-0.7C171.4,25.2,172,23,172.5,20.8z"/>
		<polygon id="arrow" points="18.4,12.2 3.8,9.4 2.6,15.5 17.2,18.3 16.7,21.2 23.9,16.4 19,9.4"/>
	</g>
</svg>